<svg xmlns="http://www.w3.org/2000/svg" viewBox="0 0 1325.52 1077.24"><defs><style>.cls-1{fill:#fff;}</style></defs><g id="Layer_2" data-name="Layer 2"><g id="Layer_2-2" data-name="Layer 2"><g id="TEXTONLY"><g id="_22" data-name="&apos;22"><path class="cls-1" d="M452.32,719.1a75,75,0,0,1-3.54,16,2.68,2.68,0,0,0,.4,1.49,2.65,2.65,0,0,1,.41,1.48,36.44,36.44,0,0,1-5.16,10.1q-9.62,22-26.44,33.58t-33.92,11q-17.07-.59-30.55-13.37T337.16,739.9a4.66,4.66,0,0,0-.43-1.78,2.86,2.86,0,0,1-.38-1.19,12.21,12.21,0,0,0-.12-4.45,16.76,16.76,0,0,1-.16-5.06l-.21-2.37,1.88-3.57q2.17-6.53,4.68-12.48c1.66-4,3.42-7.92,5.27-11.88a17.65,17.65,0,0,1,2.13-7.13A231,231,0,0,1,364,666.51q9-13.37,18.23-27l7.3-10.69a80.57,80.57,0,0,0,6.14-8.32q2.65-4.15,5.09-7.73a48.06,48.06,0,0,1,16.13-13.37q9.72-5,18.61-3.86t14.26,9.21q5.37,8,3.59,25.25h.55a2.37,2.37,0,0,0-.4,1.79l.05.59q-3.3,25-4.92,47.25a337.45,337.45,0,0,0,0,46.65A133,133,0,0,1,449.5,712q.83-3,1.47,1.19A30.36,30.36,0,0,0,452.32,719.1Z"/><path class="cls-1" d="M649.91,703.15q-2.29,13.33-15,24.48a117.86,117.86,0,0,1-29.78,18.81,129.56,129.56,0,0,1-35.52,10.22q-18.43,2.57-32.74-.94t-21.4-14.11q-7.08-10.62-1.27-30.17,6.19-15.09,14.88-32.05t18.58-33a327.91,327.91,0,0,1,20.9-30A145.49,145.49,0,0,1,591,593.27q15-14.89,39.23-27.16a192.54,192.54,0,0,1,51.2-17.37A172.63,172.63,0,0,1,735.17,547q26.83,3.35,47.44,18.43,19.15,12,27.12,28.89a84.86,84.86,0,0,1,8,36.36q0,19.41-7.06,41.14a331.26,331.26,0,0,1-17.4,42.88q-10.32,21.15-22.47,41.49T747.33,793.6a750.85,750.85,0,0,1-68.15,87.74q-38.91,43.44-73.66,84.74-16.89-6.14-14-13.1T609,939.62q14.58-6.39,36.86-11.57a405.52,405.52,0,0,1,44.2-7.74,255,255,0,0,1,39.48-1.89q17.55.71,22.7,6,7.86,3.18,11,15t1,26.57a115.75,115.75,0,0,1-8.69,29.6,81,81,0,0,1-16.68,25q-6.82,8.46-28.4,18a393.12,393.12,0,0,1-49.71,17.68q-28.12,8.12-58.8,13.87a401.56,401.56,0,0,1-55.37,6.82q-24.69,1.07-39.69-3.71t-11.48-17.19c1.77-6.3,1.13-11.07-1.88-14.31s-6.14-6.64-9.38-10.23A32.37,32.37,0,0,1,477,1017.9q-2.21-8.35,4.52-24.12,6.36-13.44,11.37-22.45t10.39-17.23q5.39-8.22,11.88-16.92t15.79-22.07q17-24.83,34.47-47.46l34.7-45q17.22-22.32,33.48-45.6T665,728.17q12-21.72,18-39.61a81.71,81.71,0,0,0,3-38.19,165.19,165.19,0,0,1-11.56,14q-5.31,5.69-9.77,11.21a109.45,109.45,0,0,0-8.26,11.81A63.47,63.47,0,0,0,649.91,703.15Z"/><path class="cls-1" d="M955.28,664.85q-2.35,13.06-15.53,24a123.49,123.49,0,0,1-30.92,18.46,140.6,140.6,0,0,1-36.9,10.05q-19.15,2.53-34-.88t-22.26-13.79q-7.38-10.39-1.37-29.55,6.42-14.8,15.42-31.41T849,609.41A318.32,318.32,0,0,1,870.64,580a146.27,146.27,0,0,1,23.23-22.74q15.52-14.61,40.73-26.65a208.89,208.89,0,0,1,53.17-17.08,190.36,190.36,0,0,1,55.89-1.79q27.88,3.26,49.33,18,19.92,11.68,28.21,28.28a79,79,0,0,1,8.33,35.59q0,19-7.28,40.31a314.53,314.53,0,0,1-18,42q-10.7,20.73-23.3,40.67t-24.29,36.69a742.85,742.85,0,0,1-70.68,86q-40.4,42.58-76.43,83.09-17.55-6-14.58-12.82t18.11-13.1q15.13-6.28,38.28-11.38a446.76,446.76,0,0,1,45.92-7.64,282.09,282.09,0,0,1,41-1.89q18.26.66,23.61,5.86,8.16,3.1,11.43,14.7t1,26a108.21,108.21,0,0,1-9,29,79.06,79.06,0,0,1-17.29,24.55q-7.08,8.28-29.49,17.68A425.47,425.47,0,0,1,967,1010.8q-29.22,8-61.09,13.65a439.93,439.93,0,0,1-57.52,6.75q-25.65,1.08-41.25-3.59t-12-16.82q2.73-9.25-2-14t-9.77-10A31.2,31.2,0,0,1,776,973.34q-2.31-8.18,4.66-23.62,6.6-13.19,11.79-22t10.77-16.89q5.58-8.05,12.32-16.58T832,872.6q17.63-24.33,35.76-46.53l36-44.08q17.87-21.88,34.72-44.71T971,689.34q12.47-21.3,18.63-38.82a75.63,75.63,0,0,0,3-37.42,163.07,163.07,0,0,1-12,13.78q-5.52,5.57-10.13,11A106.66,106.66,0,0,0,962,649.45,60,60,0,0,0,955.28,664.85Z"/></g><g id="SAGE"><path class="cls-1" d="M118.09,597.07q-28.54,4.66-53.18-.58T24.09,578.94A60.14,60.14,0,0,1,2.22,548.18q-5.67-18.45,3.16-39.57,5.25-11,14.17-15.76A52.09,52.09,0,0,1,39.46,487a128.32,128.32,0,0,1,23.29,0q12.31,1.06,24.6,1.82a172.2,172.2,0,0,0,23.29,0,44.48,44.48,0,0,0,19.63-5.86q21.78-10.12,31.79-18.8t11.56-16.31a15.86,15.86,0,0,0-3.56-13.86,68.85,68.85,0,0,0-13.33-12.08q-8.21-5.85-17.82-11.52a106.63,106.63,0,0,1-16.42-11.7q-30-17.44-48.56-42.9T55.25,292q-.21-26.86,5.7-49a165.65,165.65,0,0,1,15.93-39.72,152.21,152.21,0,0,1,23-30.88,189.68,189.68,0,0,1,26.85-23.05q14.43-9.78,30.07-18.88A204.21,204.21,0,0,1,230.31,105a233.7,233.7,0,0,1,47.27-1.84q16,.89,27.95,7.41t24,13.62q11.66,9.44,14.32,19.68a32.2,32.2,0,0,1-.76,19.54,37.55,37.55,0,0,1-11.3,16,36.91,36.91,0,0,1-17.4,8.44,46.71,46.71,0,0,1,.58,12.51,22.9,22.9,0,0,1-5.39,12.4q-4.85,6-14.86,11.27t-27.23,9.66a286.47,286.47,0,0,0-37.16,3.73q-15.65,2.81-24.73,9.07a28.37,28.37,0,0,0-11.76,17.18q-2.7,10.93,1.79,28.67,1.8,7.21,10.68,14.12T227,321.06q11.79,7.69,24.91,17.51A119.35,119.35,0,0,1,275.35,362a102.13,102.13,0,0,1,16,31.77q5.64,18.18,3.35,42.49-2.51,22-12.92,47.64t-31.57,48.81Q229,555.9,196.6,573.63T118.09,597.07Z"/><path class="cls-1" d="M508.63,93Q519,87.1,530.93,79.55T554.15,70a87.48,87.48,0,0,1,26.31-.37,60.75,60.75,0,0,1,23,7.55,28.92,28.92,0,0,1,13.11,15.69q3.45,10-3.34,24.08a51.57,51.57,0,0,1,16.07,10.13,42.45,42.45,0,0,1,10.94,17.12Q634.49,209.6,631,273.81T620,403.59q-2.13,21.63-3.39,43.14t-3.38,43.13l-2.35,12.41c-.4,4.29-.81,8.27-1.25,12s-.85,7.7-1.24,12a53,53,0,0,1-18.06,16.09,66,66,0,0,1-23.68,7.55,84.74,84.74,0,0,1-25.25-.63,53.6,53.6,0,0,1-21.65-8.58,14.3,14.3,0,0,1-6.8-9,40.41,40.41,0,0,1-1-11.7,103.82,103.82,0,0,1,1.47-12.59,81.67,81.67,0,0,0,1.32-11.13q.18-11-.18-21.63T514.36,453l-.1-1.14A109.47,109.47,0,0,0,499.31,461q-7.28,5.24-13.13,10.29T476.35,480c-2.65,2.44-4.16,3.88-4.5,4.3a36.51,36.51,0,0,1-11.37,7.47,58.08,58.08,0,0,1-10,3c-3,.57-5.73,1.19-8.14,1.87a14.2,14.2,0,0,0-6.27,3.66q-4.77,11-10.61,22.67a190.17,190.17,0,0,1-12.7,21.77,148.35,148.35,0,0,1-14.18,17.92,44.38,44.38,0,0,1-15.63,11.17,73.25,73.25,0,0,1-32.64,6.64q-16.65-.54-27.78-16.48-8.58-6.45-9.23-23.68a171.64,171.64,0,0,1,2.59-35.81q3.25-18.58,7.54-35t6.11-21.82q14.79-46.86,32.42-94.06T401.35,261a897.91,897.91,0,0,1,48.43-88A656.56,656.56,0,0,1,508.63,93Zm-14.77,230.4q-3.45,13.13-9.9,34.12t-13.07,43.76L515.5,394q1.32-37.1,3.85-73.78T523.82,247l-1.5,2.5-17.18,32.72q-2.55,10.14-5.36,20.57T493.86,323.39Zm6,74.87q4-.48,7.91-1.26t7.86-1.84l-.05-.57q-7.32,1.49-13.5,2.82C497.92,398.31,497.19,398.59,499.83,398.26Z"/><path class="cls-1" d="M963.58,60q25.13,15.87,35.32,48.47T998,184.35q-4.54,20.07-19.09,31.58t-30.72,14.93q-16.15,3.42-29.8-.38t-15.7-13.86l-6.23-11.29,0,.57q-8.41-9.87-21-8.91t-26.61,9.27a150.52,150.52,0,0,0-28.3,22.38,242,242,0,0,0-26.39,30.75,285.75,285.75,0,0,0-21.43,34.45q-9.37,17.79-12.65,32.52-2.93,12.4-5.16,22.72a71.93,71.93,0,0,0-1.68,19.71,48.92,48.92,0,0,0,4.84,18.34q4.29,8.94,14.31,17.48,25.4,12.39,49.27,8t41.89-16q18-11.65,28.93-25t10.46-18.49q1.41-3.6,2.81-7.22a54,54,0,0,0,2.24-7.16c-1.53.19-1.15.05,1.12-.42s2.65-.42,1.17.14c-.77.1.11.27,2.65.54s3.59.42,3.22.47Q900.4,356.87,887,358.8T862.75,356a107.46,107.46,0,0,1-19.48-10.82q-8.65-6.1-15.45-4.71a13.53,13.53,0,0,1-8.41-9.87,32.37,32.37,0,0,1,.3-15.82q2.1-8.57,9.18-16.61t18.82-12.33A203,203,0,0,1,901,264.73q27.43-6.5,51.44-3.12,22.23,3,32.09,19.33t10.68,38a149.54,149.54,0,0,1-5.46,44.84q-6.29,23.14-15.8,39.22-7.48,13-23.28,33.24t-40.52,40.51Q885.37,497,851.88,513.1t-76.47,20.22q-37.77,4-64.45-3.33T667.13,505.5Q650,488.37,641.21,461.9t-11.29-60.58a375.64,375.64,0,0,1,3.45-63.81,418.36,418.36,0,0,1,14.31-65.14,397.21,397.21,0,0,1,25-62.42A340.1,340.1,0,0,1,708,153.72q14.44-19,26.78-32.81a213.6,213.6,0,0,1,26.33-25,202.49,202.49,0,0,1,31.66-20.49,438.41,438.41,0,0,1,42.75-19.27q42.09-13.72,74.33-11.93T963.58,60Z"/><path class="cls-1" d="M1284.41.32q25.24-2.34,34.72,12.26t4.9,34.54q-4.59,20-21.37,39t-44,26.21q-14.66,5.7-24.89,9.73a123.56,123.56,0,0,0-17.44,8.3,57,57,0,0,0-11.92,9.08,40.19,40.19,0,0,0-7.76,11.46q-7.31,13.41-13.48,25.54a79.39,79.39,0,0,0-8,25.47l-1.29,12.71q11.84,3.76,28.16-.12t30.24-7.49q13.92-3.6,22.77-2.92t5.76,13.6q-4.44,18.23-16.27,38.42t-35.67,31.53q-15.36,4.64-20.92,6.7c-3.72,1.38-6.56,2.38-8.52,3a61,61,0,0,1-7.12,1.68q-4.18.78-16.72,2.79-3.6,7.27-9.88,21.7t-11.41,28.43a127.36,127.36,0,0,0-6.63,24.18c-1,6.78.28,9.95,3.88,9.54q17.55-.31,29.62-.86T1184,383q10.79-1.25,22.39-3.73t28.79-6.76q11.1,2.14,13.35,7a23.12,23.12,0,0,1,2.13,10.32,30.17,30.17,0,0,0,1.53,10.38q1.65,4.95,12.15,7.16c3.7.71,5.1,3.89,4.18,9.51s-3.68,11.94-8.31,18.94a130,130,0,0,1-18.38,21.53,97.83,97.83,0,0,1-25.38,17.78q-20.55,7.52-38.26,12.71a344.86,344.86,0,0,1-35.31,8.36,355.07,355.07,0,0,1-37.46,4.62q-19.87,1.44-44.71,1.46a154.93,154.93,0,0,1-15.93-1.87,77.92,77.92,0,0,1-17.72-5.08A40.57,40.57,0,0,1,1012.5,485q-6.06-6.72-6.47-18.09a532.4,532.4,0,0,1-1.1-83.79A539.3,539.3,0,0,1,1016.57,303,697.7,697.7,0,0,1,1040,222.12q14.52-41.07,33.49-86.65a52.82,52.82,0,0,0,3.88-21q-.11-11.4-.46-22.21a69.69,69.69,0,0,1,1.88-19.63q2.25-8.82,11.54-13.32a802.75,802.75,0,0,1,100.7-43Q1240.65-.89,1284.41.32Z"/></g></g></g></g></svg>