<?xml version="1.0" standalone="no"?>
<!DOCTYPE svg PUBLIC "-//W3C//DTD SVG 1.1//EN" "http://www.w3.org/Graphics/SVG/1.1/DTD/svg11.dtd" >
<svg xmlns="http://www.w3.org/2000/svg" xmlns:xlink="http://www.w3.org/1999/xlink" version="1.1">
<metadata>
Created by FontForge 20170731 at Sat Oct 28 20:57:53 2023
 By Aleksey,,,
Copyright (c) 2014-2022 ParaType Inc., ParaType Ltd. All rights reserved.
</metadata>
<defs>
<font id="DIN2014-Bold" horiz-adv-x="995" >
  <font-face 
    font-family="ninP DIN2014 ADD4 B"
    font-weight="700"
    font-stretch="normal"
    units-per-em="2048"
    panose-1="2 11 7 4 2 2 2 2 2 4"
    ascent="1595"
    descent="-453"
    x-height="1024"
    cap-height="1413"
    bbox="-774 -608 6255 2068"
    underline-thickness="102"
    underline-position="-307"
    unicode-range="U+0020-1F4F1"
  />
<missing-glyph horiz-adv-x="512" 
 />
    <glyph glyph-name="afii10017.var.accented" unicode="&#x410;`" horiz-adv-x="1243" 
d="M299 0h-307l491 1413h275l491 -1413h-305l-86 268h-473zM621 1008l-160 -498h319zM500 1520l164 264h301l-211 -264h-254z" />
    <glyph glyph-name="afii10022.var.accented" unicode="&#x415;`" horiz-adv-x="1079" 
d="M139 1413h881v-244h-594v-317h532v-242h-532v-368h594v-242h-881v1413zM412 1520l163 264h302l-211 -264h-254z" />
    <glyph glyph-name="afii10026.var.accented" unicode="&#x418;`" horiz-adv-x="1384" 
d="M139 1413h287v-887l590 887h229v-1413h-287v877l-583 -877h-236v1413zM555 1520l164 264h301l-211 -264h-254z" />
    <glyph glyph-name="afii10032.var.accented" unicode="&#x41e;`" horiz-adv-x="1275" 
d="M1180 606q0 -312 -146.5 -468t-396.5 -156q-121 0 -218.5 37.5t-170.5 112t-112.5 195t-39.5 279.5v201q0 160 39.5 281t112.5 195.5t170.5 111.5t218.5 37q122 0 220 -37t171 -111.5t112.5 -195.5t39.5 -281v-201zM383 807v-201q0 -199 63.5 -291t190.5 -92t191.5 92.5
t64.5 290.5v201q0 198 -64.5 290.5t-191.5 92.5t-190.5 -92t-63.5 -291zM485 1520l164 264h301l-211 -264h-254z" />
    <glyph glyph-name="afii10037.var.accented" unicode="&#x423;`" horiz-adv-x="1185" 
d="M891 1413h295l-434 -1126q-69 -178 -180 -241.5t-330 -63.5v249q113 0 169 21.5t89 83.5l-484 1077h318l303 -704zM477 1520l164 264h301l-211 -264h-254z" />
    <glyph glyph-name="afii10045.var.accented" unicode="&#x42b;`" horiz-adv-x="1671" 
d="M139 1413h287v-518h199q137 0 240.5 -35t165.5 -97t92 -141.5t30 -175.5q0 -95 -30.5 -173.5t-94.5 -140.5t-174 -97t-258 -35h-457v1413zM1532 1413v-1413h-287v1413h287zM608 653h-182v-411h182q258 0 258 204q0 207 -258 207zM664 1520l163 264h301l-210 -264h-254z
" />
    <glyph glyph-name="afii10047.var.accented" unicode="&#x42d;`" horiz-adv-x="1216" 
d="M408 590v241h426q-4 185 -68.5 272t-187.5 87q-101 0 -162 -56.5t-80 -158.5h-275q35 228 168.5 342.5t348.5 114.5q122 0 219.5 -37t170.5 -111.5t112.5 -195.5t39.5 -281v-201q0 -159 -39.5 -279.5t-112 -195t-170.5 -112t-220 -37.5q-447 0 -517 456h275
q22 -109 80 -162t162 -53q250 0 256 367h-426zM428 1520l164 264h301l-211 -264h-254z" />
    <glyph glyph-name="afii10048.var.accented" unicode="&#x42e;`" horiz-adv-x="1724" 
d="M1628 627q0 -645 -512 -645q-506 0 -512 628h-178v-610h-287v1413h287v-561h178q25 580 512 580q512 0 512 -646v-159zM891 774v-133q0 -219 51 -318.5t174 -99.5q124 0 174.5 99t50.5 319v133q0 217 -50.5 316.5t-174.5 99.5q-123 0 -174 -99.5t-51 -316.5zM553 1520
l164 264h301l-211 -264h-254z" />
    <glyph glyph-name="afii10049.var.accented" unicode="&#x42f;`" horiz-adv-x="1257" 
d="M342 0h-315l327 592q-270 93 -270 393q0 211 141 319.5t393 108.5h500v-1413h-287v555h-196zM639 797h192v372h-192q-136 0 -202 -41.5t-66 -142.5q0 -98 58 -143t210 -45zM510 1520l164 264h301l-211 -264h-254z" />
    <glyph glyph-name="afii10023.var.accented" unicode="&#x401;`" horiz-adv-x="1079" 
d="M139 1413h881v-244h-594v-317h532v-242h-532v-368h594v-242h-881v1413zM244 1540v240h254v-240h-254zM659 1540v240h254v-240h-254zM444 1804l164 264h301l-211 -264h-254z" />
    <glyph glyph-name="afii10065.var.accented" unicode="&#x430;`" 
d="M53 303q0 105 51 176.5t134 103t194 31.5h203v60q0 88 -36.5 119.5t-145.5 31.5q-79 0 -120.5 -16.5t-72.5 -65.5l-184 129q56 93 148.5 131.5t252.5 38.5q104 0 177 -17t128.5 -58t82 -114t26.5 -181v-672h-256v90q-32 -55 -83.5 -81.5t-137.5 -26.5q-164 0 -262.5 84
t-98.5 237zM635 383v39h-172q-80 0 -117 -27.5t-37 -87.5q0 -57 40 -85.5t110 -28.5q91 0 133.5 44t42.5 146zM332 1161l143 324h293l-186 -324h-250z" />
    <glyph glyph-name="afii10070.var.accented" unicode="&#x435;`" 
d="M702 291l195 -135q-53 -92 -143.5 -133t-231.5 -41q-222 0 -338 127.5t-116 334.5v140q0 228 109 343t312 115q422 0 422 -479v-117h-583q2 -115 46 -179t146 -64q76 0 112.5 20.5t69.5 67.5zM492 821q-148 0 -164 -188h321q-4 98 -43 143t-114 45zM367 1161l143 324h293
l-187 -324h-249z" />
    <glyph glyph-name="afii10074.var.accented" unicode="&#x438;`" horiz-adv-x="1089" 
d="M367 1024v-559l391 559h225v-1024h-260v580l-395 -580h-224v1024h263zM414 1161l143 324h293l-186 -324h-250z" />
    <glyph glyph-name="afii10080.var.accented" unicode="&#x43e;`" horiz-adv-x="1021" 
d="M952 575v-122q0 -220 -109 -345.5t-333 -125.5q-218 0 -330 125t-112 346v122q0 228 114.5 347.5t327.5 119.5q215 0 328.5 -119t113.5 -348zM510 203q100 0 141 68t41 190v106q0 126 -43.5 190t-138.5 64t-138.5 -64t-43.5 -190v-106q0 -59 8.5 -103t28 -80.5t56 -55.5
t89.5 -19zM367 1161l143 324h293l-187 -324h-249z" />
    <glyph glyph-name="afii10085.var.accented" unicode="&#x443;`" horiz-adv-x="980" 
d="M10 1024h275l227 -655l205 655h264l-358 -1071q-47 -141 -100.5 -212t-137.5 -100.5t-231 -29.5v233q109 0 158.5 27.5t80.5 114.5zM379 1161l143 324h293l-186 -324h-250z" />
    <glyph glyph-name="afii10093.var.accented" unicode="&#x44b;`" horiz-adv-x="1353" 
d="M104 1024h263v-352h108q432 0 432 -334q0 -168 -108 -253t-303 -85h-392v1024zM987 1024h260v-1024h-260v1024zM367 451v-230h114q146 0 146 117q0 56 -39 84.5t-131 28.5h-90zM514 1161l143 324h293l-186 -324h-250z" />
    <glyph glyph-name="afii10095.var.accented" unicode="&#x44d;`" horiz-adv-x="923" 
d="M274 418v203h320q-10 200 -197 200q-110 0 -170 -86l-194 137q61 80 152.5 125t201.5 45q232 0 350.5 -118.5t118.5 -339.5v-140q0 -217 -120 -339.5t-349 -122.5q-123 0 -215.5 44t-144.5 130l190 135q61 -88 180 -88q57 0 97 17t60.5 48.5t29.5 67.5t10 82h-320z
M283 1161l143 324h293l-187 -324h-249z" />
    <glyph glyph-name="afii10096.var.accented" unicode="&#x44e;`" horiz-adv-x="1415" 
d="M1346 584v-140q0 -214 -109.5 -338t-308.5 -124q-185 0 -298 109.5t-120 320.5h-143v-412h-263v1024h263v-389h145q12 199 121.5 303t294.5 104q198 0 308 -116t110 -342zM928 203q84 0 120.5 64t36.5 190v114q0 131 -39.5 190.5t-117.5 59.5q-158 0 -158 -250v-114
q0 -128 35.5 -191t122.5 -63zM432 1161l143 324h293l-186 -324h-250z" />
    <glyph glyph-name="afii10097.var.accented" unicode="&#x44f;`" horiz-adv-x="1024" 
d="M918 0h-261v365h-129l-215 -365h-276l246 408q-193 85 -193 299q0 143 101 230t317 87h410v-1024zM657 582v221h-137q-149 0 -149 -109q0 -59 40 -85.5t126 -26.5h120zM416 1161l143 324h293l-186 -324h-250z" />
    <glyph glyph-name="afii10071.var.accented" unicode="&#x451;`" 
d="M702 291l195 -135q-53 -92 -143.5 -133t-231.5 -41q-222 0 -338 127.5t-116 334.5v140q0 228 109 343t312 115q422 0 422 -479v-117h-583q2 -115 46 -179t146 -64q76 0 112.5 20.5t69.5 67.5zM492 821q-148 0 -164 -188h321q-4 98 -43 143t-114 45zM350 1468l144 324h292
l-186 -324h-250zM150 1174v239h253v-239h-253zM567 1174v239h252v-239h-252z" />
    <glyph glyph-name="fi" unicode="fi" horiz-adv-x="1011" 
d="M29 1024h131v55q0 99 19 163.5t63.5 102.5t107.5 53t160 15h76v-229h-49q-69 0 -93 -33t-24 -113v-14h516v-1024h-262v803h-254v-803h-260v803h-131v221z" />
    <glyph glyph-name="fl" unicode="fl" horiz-adv-x="1132" 
d="M676 328v856h-139q-69 0 -93 -33t-24 -113v-14h166v-221h-166v-803h-260v803h-131v221h131v55q0 99 19 163.5t63.5 102.5t107.5 53t160 15h428v-1026q0 -86 31 -124t112 -38v-225q-215 0 -310 71t-95 257z" />
    <glyph glyph-name=".notdef" horiz-adv-x="512" 
 />
    <glyph glyph-name=".null" horiz-adv-x="0" 
 />
    <glyph glyph-name="nonmarkingreturn" horiz-adv-x="682" 
 />
    <glyph glyph-name="space" unicode=" " horiz-adv-x="512" 
 />
    <glyph glyph-name="exclam" unicode="!" horiz-adv-x="512" 
d="M385 1413v-1026h-258v1026h258zM395 0v279h-278v-279h278z" />
    <glyph glyph-name="quotedbl" unicode="&#x22;" horiz-adv-x="741" 
d="M328 1413v-375h-246v375h246zM659 1413v-375h-243v375h243z" />
    <glyph glyph-name="numbersign" unicode="#" horiz-adv-x="1259" 
d="M104 1026h215l72 387h262l-71 -387h196l72 387h262l-72 -387h162v-229h-205l-32 -174h161v-230h-204l-74 -393h-260l71 393h-196l-72 -393h-264l74 393h-172v230h215l32 174h-172v229zM539 797l-33 -174h196l33 174h-196z" />
    <glyph glyph-name="dollar" unicode="$" horiz-adv-x="1105" 
d="M1055 1194l-215 -154q-73 111 -170 136v-357q212 -59 305.5 -153t93.5 -269q0 -163 -97 -273.5t-286 -135.5v-226h-237v228q-266 34 -412 229l219 154q89 -116 207 -140v369q-197 58 -292 160t-95 268q0 155 93.5 261.5t279.5 131.5v240h237v-242q245 -38 369 -227z
M782 383q0 51 -25.5 87.5t-86.5 66.5v-299q57 18 84.5 57t27.5 88zM362 1032q0 -95 101 -147v289q-101 -35 -101 -142z" />
    <glyph glyph-name="percent" unicode="%" horiz-adv-x="1554" 
d="M1044 1413h252l-788 -1413h-254zM1513 410v-121q0 -145 -75 -226t-234 -81q-150 0 -228.5 78.5t-78.5 228.5v121q0 148 79 225.5t228 77.5q151 0 230 -76.5t79 -226.5zM1204 160q51 0 75 31.5t24 97.5v114q0 69 -24 99t-75 30q-94 0 -94 -129v-114q0 -66 22.5 -97.5
t71.5 -31.5zM662 1128v-120q0 -145 -75.5 -226.5t-236.5 -81.5q-149 0 -227 79t-78 229v120q0 148 79 226t226 78q153 0 232.5 -77t79.5 -227zM352 879q51 0 75 31.5t24 97.5v114q0 69 -24 99t-75 30q-94 0 -94 -129v-114q0 -67 22 -98t72 -31z" />
    <glyph glyph-name="ampersand" unicode="&#x26;" horiz-adv-x="1363" 
d="M72 375q0 128 63 225t174 184q-135 165 -135 326q0 145 109 233.5t278 88.5q182 0 282.5 -82t100.5 -199q0 -46 -17.5 -91t-42 -79.5t-68 -75.5t-77 -67.5t-88.5 -67.5l271 -301q28 86 28 190h271q0 -222 -111 -399l236 -260h-330l-78 84q-155 -102 -379 -102
q-114 0 -208 33t-154 88.5t-92.5 125.5t-32.5 146zM571 223q119 0 199 47l-313 344q-107 -104 -107 -198q0 -88 60.5 -140.5t160.5 -52.5zM446 1110q0 -80 72 -180q83 58 125.5 105t42.5 100q0 40 -32.5 69t-88.5 29q-54 0 -86.5 -31t-32.5 -92z" />
    <glyph glyph-name="quotesingle" unicode="'" horiz-adv-x="409" 
d="M328 1413v-375h-246v375h246z" />
    <glyph glyph-name="parenleft" unicode="(" horiz-adv-x="649" 
d="M629 -35l-144 -203q-108 68 -177.5 131t-109 130.5t-54.5 135.5t-15 158v791q0 90 15 157.5t54.5 135t109 130.5t177.5 132l144 -203q-52 -39 -78.5 -60t-59.5 -52.5t-47.5 -56t-29.5 -61t-20 -78.5t-5 -97v-684q0 -55 5 -97t20 -78.5t29.5 -61.5t47.5 -56.5t59.5 -52.5
t78.5 -60z" />
    <glyph glyph-name="parenright" unicode=")" horiz-adv-x="649" 
d="M190 -238l-143 203q52 39 78.5 60t59.5 52.5t47.5 56.5t29.5 61.5t20 78.5t5 97v684q0 55 -5 97t-20 78.5t-29.5 61t-47.5 56t-59.5 52.5t-78.5 60l143 203q143 -91 221.5 -177t107 -172t28.5 -206v-791q0 -90 -15 -158t-55 -135.5t-109.5 -130.5t-177.5 -131z" />
    <glyph glyph-name="asterisk" unicode="*" horiz-adv-x="870" 
d="M520 1413l-10 -209l174 115l96 -168l-180 -94l182 -96l-98 -166l-174 110l10 -207h-194l8 205l-170 -110l-98 168l184 94l-182 96l94 168l172 -111l-8 205h194z" />
    <glyph glyph-name="plus" unicode="+" horiz-adv-x="1105" 
d="M119 614v222h284v288h226v-288h286v-222h-286v-286h-226v286h-284z" />
    <glyph glyph-name="comma" unicode="," horiz-adv-x="524" 
d="M401 319v-413l-278 -238v651h278z" />
    <glyph glyph-name="hyphen" unicode="-" horiz-adv-x="653" 
d="M61 477v230h531v-230h-531z" />
    <glyph glyph-name="period" unicode="." horiz-adv-x="565" 
d="M442 319v-319h-319v319h319z" />
    <glyph glyph-name="slash" unicode="/" horiz-adv-x="993" 
d="M332 -238h-236l688 1901h236z" />
    <glyph glyph-name="zero" unicode="0" horiz-adv-x="1105" 
d="M1028 983v-551q0 -115 -38 -203.5t-104.5 -141t-150.5 -79t-182 -26.5t-182 26.5t-150.5 79t-104.5 141t-38 203.5v549q0 120 38 209.5t105 141t150 76t182 24.5t182 -24.5t150 -75.5t105 -140t38 -209zM741 956q0 234 -188 234q-191 0 -191 -234v-499q0 -234 191 -234
q188 0 188 234v499z" />
    <glyph glyph-name="one" unicode="1" horiz-adv-x="1105" 
d="M745 1413v-1413h-286v1114l-203 -133v276l231 156h258z" />
    <glyph glyph-name="two" unicode="2" horiz-adv-x="1105" 
d="M977 242v-242h-873v184l474 557q131 152 131 281q0 82 -51.5 127t-125.5 45t-122 -44.5t-54 -127.5h-254q0 119 60.5 213.5t161.5 145.5t223 51q190 0 318 -117.5t128 -292.5q0 -53 -14.5 -108t-33.5 -95t-52.5 -89.5t-54.5 -76t-58 -69.5l-291 -342h488z" />
    <glyph glyph-name="three" unicode="3" horiz-adv-x="1105" 
d="M397 608v242h105q90 0 143 46.5t53 133.5q0 71 -49.5 117.5t-126.5 46.5q-73 0 -120 -42t-56 -110h-254q5 113 65 202.5t159.5 138.5t220.5 49q191 0 318.5 -114.5t127.5 -275.5q0 -110 -55 -187.5t-137 -121.5q97 -47 155 -132.5t58 -205.5q0 -179 -120 -296t-331 -117
q-219 0 -345 110t-134 287h252q11 -71 64 -113.5t145 -42.5q84 0 134 53.5t50 133.5q0 95 -55 146.5t-162 51.5h-105z" />
    <glyph glyph-name="four" unicode="4" horiz-adv-x="1105" 
d="M502 1413h313l-440 -969h270v361h287v-361h129v-243h-129v-201h-287v201h-627v198z" />
    <glyph glyph-name="five" unicode="5" horiz-adv-x="1105" 
d="M557 727q-98 0 -149 -104h-258v790h804v-260h-524v-242q78 74 209 74q168 0 268.5 -129t100.5 -375q0 -499 -443 -499q-186 0 -314 101t-145 282h283q36 -142 168 -142q78 0 121 61t43 183q0 131 -39.5 195.5t-124.5 64.5z" />
    <glyph glyph-name="six" unicode="6" horiz-adv-x="1105" 
d="M799 1413l-295 -582q58 27 137 27q164 0 275.5 -120t111.5 -302q0 -114 -36.5 -202.5t-102 -142.5t-150 -81.5t-184.5 -27.5q-101 0 -186 27t-151 81t-103 142t-37 202q0 143 129 404l285 575h307zM365 424q0 -92 48.5 -146.5t141.5 -54.5q90 0 138 54.5t48 146.5
q0 90 -48 144.5t-138 54.5q-93 0 -141.5 -54t-48.5 -145z" />
    <glyph glyph-name="seven" unicode="7" horiz-adv-x="1105" 
d="M379 950h-244v463h864v-201l-407 -1212h-297l410 1169h-326v-219z" />
    <glyph glyph-name="eight" unicode="8" horiz-adv-x="1105" 
d="M72 393q0 115 61.5 207t149.5 133q-86 43 -138.5 127.5t-52.5 183.5q0 91 38 165.5t102.5 122.5t147 74t173.5 26q124 0 227 -44t168.5 -134t65.5 -210q0 -99 -52.5 -183.5t-138.5 -127.5q90 -40 150.5 -132t60.5 -208q0 -96 -38 -175t-104 -130t-153 -78.5t-186 -27.5
t-186 27.5t-153 78.5t-104 130t-38 175zM358 420q0 -83 55.5 -141t139.5 -58q82 0 139.5 58.5t57.5 140.5q0 87 -60.5 141.5t-136.5 54.5q-77 0 -136 -54t-59 -142zM377 1016q0 -74 51.5 -126t124.5 -52q72 0 124 52.5t52 125.5q0 72 -52 123t-124 51q-73 0 -124.5 -51
t-51.5 -123z" />
    <glyph glyph-name="nine" unicode="9" horiz-adv-x="1105" 
d="M307 0l297 582q-61 -27 -137 -27q-164 0 -276.5 120t-112.5 302q0 114 37 202.5t102.5 143t150.5 82t185 27.5q101 0 186 -27.5t151 -81.5t103 -142t37 -202q0 -139 -131 -404l-285 -575h-307zM743 989q0 92 -49 146.5t-141 54.5q-90 0 -139 -54.5t-49 -146.5
q0 -90 49 -144t139 -54q91 0 140.5 54t49.5 144z" />
    <glyph glyph-name="colon" unicode=":" horiz-adv-x="503" 
d="M401 1024v-281h-278v281h278zM401 279v-279h-278v279h278z" />
    <glyph glyph-name="semicolon" unicode=";" horiz-adv-x="503" 
d="M401 279v-385l-278 -240v625h278zM401 1024v-281h-278v281h278z" />
    <glyph glyph-name="less" unicode="&#x3c;" horiz-adv-x="1105" 
d="M872 893l-370 -193l370 -190v-295l-665 375v223l665 375v-295z" />
    <glyph glyph-name="equal" unicode="=" horiz-adv-x="1105" 
d="M156 735v246h796v-246h-796zM156 373v243h796v-243h-796z" />
    <glyph glyph-name="greater" unicode="&#x3e;" horiz-adv-x="1105" 
d="M600 700l-371 193v295l666 -375v-223l-666 -375v295z" />
    <glyph glyph-name="question" unicode="?" horiz-adv-x="997" 
d="M608 387h-248v141q0 68 16.5 112t63.5 89l92 88q49 47 72.5 73.5t41.5 66t18 85.5q0 69 -44.5 109.5t-113.5 40.5q-67 0 -113 -36.5t-47 -102.5h-270q0 93 34 166t93.5 119t136.5 70t166 24q92 0 171 -24.5t140.5 -71.5t97 -123t35.5 -173q0 -59 -15.5 -113t-45.5 -102.5
t-63 -87.5t-81 -86l-67 -65q-28 -28 -38.5 -40t-21 -37.5t-10.5 -57.5v-64zM625 0v279h-281v-279h281z" />
    <glyph glyph-name="at" unicode="@" horiz-adv-x="1839" 
d="M1311 991v-497q0 -84 22.5 -119t71.5 -35q61 0 90 62t29 198q0 127 -32.5 227t-88 165.5t-133.5 109t-164.5 62t-185.5 18.5q-128 0 -231 -36.5t-169 -96t-110.5 -141t-63 -166.5t-18.5 -177q0 -155 47 -275t130 -192.5t190.5 -109.5t234.5 -37q136 0 237.5 24.5
t214.5 81.5l97 -186q-81 -59 -225.5 -100t-333.5 -41q-132 0 -255.5 33t-232 101.5t-189.5 165.5t-128 235t-47 300q0 158 45.5 294t125.5 235t187.5 169.5t233 105t260.5 34.5q184 0 341.5 -54t274 -155t182.5 -254t66 -342q0 -226 -96.5 -352.5t-276.5 -126.5
q-191 0 -272 133q-68 -133 -269 -133q-163 0 -253.5 104.5t-90.5 284.5v106q0 190 93.5 288.5t250.5 98.5q108 0 181 -47v37h260zM913 340q74 0 106 39t32 125v102q0 96 -33 135t-105 39q-125 0 -125 -174v-78q0 -99 29 -143.5t96 -44.5z" />
    <glyph glyph-name="A" unicode="A" horiz-adv-x="1243" 
d="M299 0h-307l491 1413h275l491 -1413h-305l-86 268h-473zM621 1008l-160 -498h319z" />
    <glyph glyph-name="B" unicode="B" horiz-adv-x="1241" 
d="M139 1413h473q516 0 516 -371q0 -106 -49 -182t-137 -119q232 -85 232 -335q0 -85 -29 -156.5t-89 -128.5t-162 -89t-237 -32h-518v1413zM426 612v-370h207q254 0 254 186q0 98 -67 141t-214 43h-180zM426 1171v-317h190q226 0 226 162q0 52 -20 84.5t-77.5 51.5
t-158.5 19h-160z" />
    <glyph glyph-name="C" unicode="C" horiz-adv-x="1216" 
d="M1155 975h-274q-44 215 -244 215q-127 0 -190.5 -92t-63.5 -291v-201q0 -383 254 -383q105 0 162.5 52.5t81.5 162.5h272q-35 -234 -164.5 -345t-351.5 -111q-121 0 -218.5 37.5t-170.5 112t-112.5 195t-39.5 279.5v201q0 160 39.5 281t112.5 195.5t170.5 111.5t218.5 37
q215 0 349 -114.5t169 -342.5z" />
    <glyph glyph-name="D" unicode="D" horiz-adv-x="1280" 
d="M641 0h-502v1413h502q124 0 220.5 -33t170 -104t113 -191.5t39.5 -285.5v-185q0 -164 -39.5 -284.5t-113 -191.5t-170.5 -104.5t-220 -33.5zM641 242q138 0 197 91.5t59 280.5v185q0 189 -58.5 279.5t-197.5 90.5h-215v-927h215z" />
    <glyph glyph-name="E" unicode="E" horiz-adv-x="1079" 
d="M139 1413h881v-244h-594v-317h532v-242h-532v-368h594v-242h-881v1413z" />
    <glyph glyph-name="F" unicode="F" horiz-adv-x="1067" 
d="M139 1413h881v-244h-594v-350h532v-241h-532v-578h-287v1413z" />
    <glyph glyph-name="G" unicode="G" horiz-adv-x="1253" 
d="M643 735h514v-129q0 -315 -136.5 -469.5t-383.5 -154.5q-121 0 -218.5 37.5t-170.5 112t-112.5 195t-39.5 279.5v180q0 168 39.5 293.5t112.5 201.5t170 113.5t219 37.5q220 0 352.5 -119t165.5 -338h-274q-20 101 -80.5 158t-163.5 57q-127 0 -190.5 -92t-63.5 -291
v-201q0 -199 63.5 -291t190.5 -92q117 0 174 68.5t70 202.5h-238v241z" />
    <glyph glyph-name="H" unicode="H" horiz-adv-x="1343" 
d="M426 1413v-561h489v561h287v-1413h-287v610h-489v-610h-287v1413h287z" />
    <glyph glyph-name="I" unicode="I" horiz-adv-x="606" 
d="M446 1413v-1413h-286v1413h286z" />
    <glyph glyph-name="J" unicode="J" horiz-adv-x="1048" 
d="M-18 193l237 133q34 -48 84.5 -75.5t108.5 -27.5q108 0 159.5 71.5t51.5 248.5v870h286v-870q0 -295 -123 -428t-356 -133q-300 0 -448 211z" />
    <glyph glyph-name="K" unicode="K" horiz-adv-x="1320" 
d="M1296 0h-342l-360 596l-168 -221v-375h-287v1413h287v-610l446 610h340l-432 -571z" />
    <glyph glyph-name="L" unicode="L" horiz-adv-x="1032" 
d="M426 1413v-1171h594v-242h-881v1413h287z" />
    <glyph glyph-name="M" unicode="M" horiz-adv-x="1609" 
d="M408 1413l397 -770l393 770h272v-1413h-274v877l-307 -623h-174l-303 616v-870h-273v1413h269z" />
    <glyph glyph-name="N" unicode="N" horiz-adv-x="1343" 
d="M930 1413h272v-1413h-239l-551 874v-874h-273v1413h238l553 -887v887z" />
    <glyph glyph-name="O" unicode="O" horiz-adv-x="1275" 
d="M1180 606q0 -312 -146.5 -468t-396.5 -156q-121 0 -218.5 37.5t-170.5 112t-112.5 195t-39.5 279.5v201q0 160 39.5 281t112.5 195.5t170.5 111.5t218.5 37q122 0 220 -37t171 -111.5t112.5 -195.5t39.5 -281v-201zM383 807v-201q0 -199 63.5 -291t190.5 -92t191.5 92.5
t64.5 290.5v201q0 198 -64.5 290.5t-191.5 92.5t-190.5 -92t-63.5 -291z" />
    <glyph glyph-name="P" unicode="P" horiz-adv-x="1208" 
d="M645 498h-219v-498h-287v1413h506q250 0 389.5 -114.5t139.5 -337.5q0 -222 -140 -342.5t-389 -120.5zM426 739h178q148 0 215.5 53.5t67.5 168.5q0 103 -68.5 155.5t-214.5 52.5h-178v-430z" />
    <glyph glyph-name="Q" unicode="Q" horiz-adv-x="1290" 
d="M1180 606q0 -198 -64 -338l197 -168l-152 -180l-190 162q-132 -100 -334 -100q-121 0 -218.5 37.5t-170.5 112t-112.5 195t-39.5 279.5v201q0 160 39.5 281t112.5 195.5t170.5 111.5t218.5 37q122 0 220 -37t171 -111.5t112.5 -195.5t39.5 -281v-201zM383 807v-201
q0 -199 63.5 -291t190.5 -92q79 0 129 33l-160 137l156 182l121 -106q10 68 10 137v201q0 198 -64.5 290.5t-191.5 92.5t-190.5 -92t-63.5 -291z" />
    <glyph glyph-name="R" unicode="R" horiz-adv-x="1263" 
d="M1225 0h-316l-254 555h-229v-555h-287v1413h506q249 0 389 -110.5t140 -321.5q0 -280 -242 -379zM426 797h192q137 0 203 39.5t66 144.5t-66.5 146.5t-202.5 41.5h-192v-372z" />
    <glyph glyph-name="S" unicode="S" horiz-adv-x="1177" 
d="M1090 1200l-216 -153q-47 75 -110.5 109t-167.5 34q-96 0 -147.5 -41.5t-51.5 -114.5q0 -80 65 -125t214 -82q228 -57 328 -154t100 -280q0 -182 -124.5 -296.5t-363.5 -114.5q-189 0 -320 55t-224 176l219 152q59 -73 130.5 -107.5t176.5 -34.5q115 0 167 43.5t52 114.5
q0 76 -61 123t-228 90q-212 56 -314.5 162t-102.5 278q0 85 29 156.5t86 126t151 85t217 30.5q347 0 496 -232z" />
    <glyph glyph-name="T" unicode="T" horiz-adv-x="1097" 
d="M16 1413h1065v-244h-389v-1169h-286v1169h-390v244z" />
    <glyph glyph-name="U" unicode="U" horiz-adv-x="1363" 
d="M938 1413h287v-840q0 -153 -40.5 -268t-114 -185t-171 -104t-217.5 -34t-217.5 34t-171 103.5t-114 184.5t-40.5 267v842h287v-842q0 -181 62 -264.5t194 -83.5t194 83.5t62 264.5v842z" />
    <glyph glyph-name="V" unicode="V" horiz-adv-x="1257" 
d="M6 1413h313l310 -950l309 950h313l-491 -1413h-260z" />
    <glyph glyph-name="W" unicode="W" horiz-adv-x="1820" 
d="M909 973l-299 -973h-272l-324 1413h308l188 -930l268 930h258l277 -936l186 936h309l-325 -1413h-275z" />
    <glyph glyph-name="X" unicode="X" horiz-adv-x="1212" 
d="M338 0h-311l397 729l-354 684h311l225 -450l228 450h309l-357 -684l400 -729h-309l-271 481z" />
    <glyph glyph-name="Y" unicode="Y" horiz-adv-x="1193" 
d="M12 1413h332l252 -526l254 526h330l-441 -835v-578h-286v578z" />
    <glyph glyph-name="Z" unicode="Z" horiz-adv-x="1062" 
d="M61 1413h934v-188l-569 -983h590v-242h-955v188l574 981h-574v244z" />
    <glyph glyph-name="bracketleft" unicode="[" horiz-adv-x="686" 
d="M143 -209v1831h490v-221h-230v-1389h230v-221h-490z" />
    <glyph glyph-name="backslash" unicode="\" horiz-adv-x="993" 
d="M51 1663h238l688 -1901h-238z" />
    <glyph glyph-name="bracketright" unicode="]" horiz-adv-x="686" 
d="M53 1622h490v-1831h-490v217h230v1397h-230v217z" />
    <glyph glyph-name="asciicircum" unicode="^" horiz-adv-x="1105" 
d="M434 1413h236l360 -518h-295l-182 264l-168 -264h-307z" />
    <glyph glyph-name="underscore" unicode="_" horiz-adv-x="1077" 
d="M0 -135h1077v-211h-1077v211z" />
    <glyph glyph-name="grave" unicode="`" horiz-adv-x="690" 
d="M420 1485l143 -324h-250l-186 324h293z" />
    <glyph glyph-name="a" unicode="a" 
d="M53 303q0 105 51 176.5t134 103t194 31.5h203v60q0 88 -36.5 119.5t-145.5 31.5q-79 0 -120.5 -16.5t-72.5 -65.5l-184 129q56 93 148.5 131.5t252.5 38.5q104 0 177 -17t128.5 -58t82 -114t26.5 -181v-672h-256v90q-32 -55 -83.5 -81.5t-137.5 -26.5q-164 0 -262.5 84
t-98.5 237zM635 383v39h-172q-80 0 -117 -27.5t-37 -87.5q0 -57 40 -85.5t110 -28.5q91 0 133.5 44t42.5 146z" />
    <glyph glyph-name="b" unicode="b" horiz-adv-x="1044" 
d="M352 1413v-452q76 81 221 81q188 0 296 -120.5t108 -346.5v-122q0 -217 -103.5 -344t-300.5 -127q-148 0 -221 79v-61h-248v1413h248zM535 203q182 0 182 258v106q0 126 -43.5 190t-138.5 64q-183 0 -183 -254v-106q0 -258 183 -258z" />
    <glyph glyph-name="c" unicode="c" horiz-adv-x="913" 
d="M702 291l195 -135q-54 -90 -144 -132t-229 -42q-217 0 -336.5 124.5t-119.5 337.5v140q0 224 121 341t350 117q120 0 212.5 -43t145.5 -127l-197 -137q-61 86 -168 86t-155.5 -63.5t-48.5 -190.5v-106q0 -59 9 -103t30.5 -80.5t63 -55.5t101.5 -19q117 0 170 88z" />
    <glyph glyph-name="d" unicode="d" horiz-adv-x="1058" 
d="M692 971v442h260v-1413h-260v59q-83 -77 -219 -77q-196 0 -300.5 126t-104.5 336v140q0 220 109 339t296 119q136 0 219 -71zM510 203q53 0 90 19t56.5 55.5t27.5 80.5t8 103v129q0 231 -182 231q-95 0 -138.5 -64t-43.5 -190v-106q0 -258 182 -258z" />
    <glyph glyph-name="e" unicode="e" 
d="M702 291l195 -135q-53 -92 -143.5 -133t-231.5 -41q-222 0 -338 127.5t-116 334.5v140q0 228 109 343t312 115q422 0 422 -479v-117h-583q2 -115 46 -179t146 -64q76 0 112.5 20.5t69.5 67.5zM492 821q-148 0 -164 -188h321q-4 98 -43 143t-114 45z" />
    <glyph glyph-name="f" unicode="f" horiz-adv-x="616" 
d="M29 1024h131v55q0 99 19 163.5t63.5 102.5t107.5 53t160 15h76v-229h-49q-69 0 -93 -33t-24 -113v-14h166v-221h-166v-803h-260v803h-131v221z" />
    <glyph glyph-name="g" unicode="g" horiz-adv-x="1058" 
d="M692 971v53h260v-1004q0 -100 -22.5 -175t-61 -121.5t-97 -75t-123 -39t-146.5 -10.5q-147 0 -241.5 41.5t-160.5 142.5l176 127q68 -92 201 -92q119 0 167 43t48 159v33q-83 -71 -219 -71q-196 0 -300.5 126t-104.5 336v140q0 220 109 339t296 119q136 0 219 -71z
M510 203q182 0 182 235v129q0 126 -43.5 190t-138.5 64t-138.5 -64t-43.5 -190v-106q0 -258 182 -258z" />
    <glyph glyph-name="h" unicode="h" horiz-adv-x="1077" 
d="M104 0v1413h263v-469q75 98 229 98q81 0 146.5 -20.5t118 -65.5t81.5 -125t29 -190v-641h-260v600q0 116 -41 166.5t-123 50.5q-89 0 -134.5 -56t-45.5 -159v-602h-263z" />
    <glyph glyph-name="i" unicode="i" horiz-adv-x="532" 
d="M135 0v1024h262v-1024h-262zM125 1159v254h283v-254h-283z" />
    <glyph glyph-name="j" unicode="j" horiz-adv-x="514" 
d="M397 1024v-1079q0 -98 -23 -162.5t-74 -102.5t-122.5 -53.5t-177.5 -15.5v225q78 0 107.5 35t29.5 111v1042h260zM127 1159v254h281v-254h-281z" />
    <glyph glyph-name="k" unicode="k" horiz-adv-x="1028" 
d="M653 1024h312l-355 -428l414 -596h-307l-281 385l-69 -86v-299h-263v1413h263v-762z" />
    <glyph glyph-name="l" unicode="l" horiz-adv-x="583" 
d="M104 328v1085h263v-1026q0 -86 31 -124t112 -38v-225q-215 0 -310.5 71t-95.5 257z" />
    <glyph glyph-name="m" unicode="m" horiz-adv-x="1628" 
d="M944 602v-602h-260v600q0 217 -156 217q-73 0 -117 -55t-44 -160v-602h-263v1024h256v-86q77 104 228 104q190 0 286 -137q113 137 295 137q170 0 262.5 -102t92.5 -299v-641h-262v600q0 113 -39 165t-119 52q-73 0 -116.5 -55t-43.5 -160z" />
    <glyph glyph-name="n" unicode="n" horiz-adv-x="1077" 
d="M104 0v1024h256v-86q33 43 94.5 73.5t141.5 30.5q81 0 146.5 -20.5t118 -65.5t81.5 -125t29 -190v-641h-260v600q0 116 -41 166.5t-123 50.5q-89 0 -134.5 -56t-45.5 -159v-602h-263z" />
    <glyph glyph-name="o" unicode="o" horiz-adv-x="1021" 
d="M952 575v-122q0 -220 -109 -345.5t-333 -125.5q-218 0 -330 125t-112 346v122q0 228 114.5 347.5t327.5 119.5q215 0 328.5 -119t113.5 -348zM510 203q100 0 141 68t41 190v106q0 126 -43.5 190t-138.5 64t-138.5 -64t-43.5 -190v-106q0 -59 8.5 -103t28 -80.5t56 -55.5
t89.5 -19z" />
    <glyph glyph-name="p" unicode="p" horiz-adv-x="1058" 
d="M991 584v-140q0 -207 -103.5 -334.5t-295.5 -127.5q-154 0 -225 59v-430h-263v1413h263v-68q77 86 227 86q181 0 289 -121t108 -337zM549 203q99 0 139.5 68t40.5 190v106q0 127 -43 190.5t-137 63.5q-182 0 -182 -231v-129q0 -59 8 -103t27.5 -80.5t56.5 -55.5t90 -19z
" />
    <glyph glyph-name="q" unicode="q" horiz-adv-x="1058" 
d="M692 973v51h260v-1413h-260v446q-84 -75 -219 -75q-196 0 -300.5 126t-104.5 336v140q0 220 109 339t296 119q134 0 219 -69zM510 203q53 0 90 19t56.5 55.5t27.5 80.5t8 103v106q0 126 -43.5 190t-138.5 64t-138.5 -64t-43.5 -190v-106q0 -258 182 -258z" />
    <glyph glyph-name="r" unicode="r" horiz-adv-x="839" 
d="M860 883l-201 -144q-54 78 -129 78t-119 -55t-44 -160v-602h-263v1024h256v-86q71 104 224 104q184 0 276 -159z" />
    <glyph glyph-name="s" unicode="s" horiz-adv-x="950" 
d="M858 872l-192 -137q-37 43 -80 62.5t-121 19.5q-56 0 -92.5 -19.5t-36.5 -60.5q0 -44 38.5 -65.5t125.5 -34.5q194 -30 286.5 -109.5t92.5 -228.5q0 -150 -103.5 -233.5t-298.5 -83.5q-157 0 -257.5 40.5t-166.5 129.5l201 143q34 -45 81.5 -66.5t137.5 -21.5
q68 0 106.5 22t38.5 62q0 46 -37 67.5t-137 36.5q-368 60 -368 332q0 148 102.5 231.5t292.5 83.5q136 0 233 -38.5t154 -131.5z" />
    <glyph glyph-name="t" unicode="t" horiz-adv-x="677" 
d="M29 803v221h131v225h260v-225h201v-221h-201v-428q0 -80 24 -113t93 -33h84v-229h-111q-97 0 -160 15t-107.5 53t-63.5 102.5t-19 163.5v469h-131z" />
    <glyph glyph-name="u" unicode="u" horiz-adv-x="1077" 
d="M971 1024v-1024h-256v86q-34 -55 -85.5 -79.5t-148.5 -24.5q-81 0 -147 21t-119 67t-82 126t-29 189v639h263v-600q0 -118 40 -167.5t125 -49.5q179 0 179 215v602h260z" />
    <glyph glyph-name="v" unicode="v" horiz-adv-x="1032" 
d="M743 1024h289l-389 -1024h-246l-397 1024h287l229 -664z" />
    <glyph glyph-name="w" unicode="w" horiz-adv-x="1466" 
d="M733 641l-231 -641h-213l-283 1024h270l146 -586l207 586h192l221 -588l146 588h272l-284 -1024h-211z" />
    <glyph glyph-name="x" unicode="x" horiz-adv-x="1003" 
d="M991 0h-291l-198 311l-199 -311h-289l336 524l-309 500h289l172 -293l172 293h289l-310 -500z" />
    <glyph glyph-name="y" unicode="y" horiz-adv-x="980" 
d="M10 1024h275l227 -655l205 655h264l-358 -1071q-47 -141 -100.5 -212t-137.5 -100.5t-231 -29.5v233q109 0 158.5 27.5t80.5 114.5z" />
    <glyph glyph-name="z" unicode="z" horiz-adv-x="919" 
d="M61 182l451 621h-444v221h782v-182l-444 -621h458v-221h-803v182z" />
    <glyph glyph-name="braceleft" unicode="{" horiz-adv-x="671" 
d="M465 1241v-389q0 -64 -21.5 -95.5t-70.5 -47.5q45 -14 68.5 -55t23.5 -89v-389q0 -94 28 -121.5t103 -27.5h29v-222h-84q-67 0 -115.5 7.5t-92.5 28t-70.5 55.5t-42 92t-15.5 135v364q0 58 -24 82.5t-79 24.5h-39v229h39q55 0 79 24.5t24 82.5v364q0 78 15.5 135t42 92
t70.5 55.5t92.5 28t115.5 7.5h84v-221h-29q-51 0 -76.5 -9.5t-40 -42.5t-14.5 -98z" />
    <glyph glyph-name="bar" unicode="|" horiz-adv-x="593" 
d="M422 1663v-1901h-248v1901h248z" />
    <glyph glyph-name="braceright" unicode="}" horiz-adv-x="649" 
d="M221 852v389q0 95 -27.5 122.5t-101.5 27.5h-29v221h84q67 0 115.5 -7.5t92.5 -28t70.5 -55.5t42 -92t15.5 -135v-364q0 -58 24 -82.5t79 -24.5h39v-229h-39q-55 0 -79 -24.5t-24 -82.5v-364q0 -78 -15.5 -135t-42 -92t-70.5 -55.5t-92.5 -28t-115.5 -7.5h-84v222h29
q74 0 101.5 27t27.5 122v389q0 48 23.5 89t68.5 55q-49 16 -70.5 47.5t-21.5 95.5z" />
    <glyph glyph-name="asciitilde" unicode="~" horiz-adv-x="1105" 
d="M727 530q-60 0 -112.5 14.5t-83.5 32t-72.5 32t-81.5 14.5q-107 0 -180 -93l-174 142q141 176 354 176q61 0 114 -14.5t83.5 -31.5t71.5 -31.5t81 -14.5q108 0 180 94l176 -143q-147 -177 -356 -177z" />
    <glyph glyph-name="uni00A0" unicode="&#xa0;" horiz-adv-x="512" 
 />
    <glyph glyph-name="exclamdown" unicode="&#xa1;" horiz-adv-x="512" 
d="M385 -389v1026h-258v-1026h258zM395 1024v-279h-278v279h278z" />
    <glyph glyph-name="cent" unicode="&#xa2;" horiz-adv-x="1105" 
d="M760 297l194 -135q-81 -141 -258 -168v-232h-233v236q-162 32 -250 151t-88 300v131q0 188 86 301.5t252 144.5v248h233v-246q177 -32 258 -162l-196 -137q-61 86 -168 86q-108 0 -156.5 -63.5t-48.5 -190.5v-94q0 -59 9 -103t31 -80.5t63.5 -55.5t101.5 -19
q118 0 170 88z" />
    <glyph glyph-name="sterling" unicode="&#xa3;" horiz-adv-x="1105" 
d="M55 0v242h150v325h-150v244h150v63q0 150 33 259.5t94 174t140.5 94.5t180.5 30q142 0 243 -50t173 -161l-235 -134q-78 103 -168 103q-85 0 -129.5 -72.5t-44.5 -243.5v-63h268v-244h-268v-325h530v-242h-967z" />
    <glyph glyph-name="currency" unicode="&#xa4;" horiz-adv-x="1105" 
d="M147 750q0 98 46 188l-162 162l172 172l157 -160q90 49 195 49q107 0 193 -47l159 160l172 -172l-159 -160q47 -86 47 -192q0 -103 -49 -193l161 -160l-172 -172l-162 160q-88 -45 -190 -45q-107 0 -193 47l-159 -160l-172 172l162 162q-46 87 -46 189zM367 750
q0 -82 54.5 -138.5t133.5 -56.5q81 0 135.5 56.5t54.5 138.5t-54.5 139t-135.5 57q-79 0 -133.5 -57t-54.5 -139z" />
    <glyph glyph-name="yen" unicode="&#xa5;" horiz-adv-x="1105" 
d="M123 473h280v105h-280v229h151l-229 606h317l185 -600l194 600h322l-244 -606h152v-229h-281v-105h281v-229h-281v-244h-287v244h-280v229z" />
    <glyph glyph-name="brokenbar" unicode="&#xa6;" horiz-adv-x="548" 
d="M428 498v-498h-287v498h287zM428 1413v-498h-287v498h287z" />
    <glyph glyph-name="section" unicode="&#xa7;" horiz-adv-x="1091" 
d="M147 -72h261q4 -44 25.5 -69t78.5 -25q54 0 81.5 24.5t27.5 63.5q0 47 -38 84.5t-130 69.5q-94 33 -155 65.5t-112 82.5t-74.5 120.5t-23.5 167.5q0 113 49 197t137 131q-127 99 -127 256q0 147 101.5 233t273.5 86q361 0 361 -319h-258q-5 44 -27.5 69t-79.5 25
q-54 0 -80 -24.5t-26 -63.5q0 -48 39 -85.5t139 -72.5q70 -24 119 -47.5t96 -59t75 -79t45 -105.5t17 -141q0 -115 -49 -199t-137 -131q127 -99 127 -254q0 -147 -101 -233t-272 -86q-360 0 -363 319zM682 512q0 81 -45 123.5t-121 42.5q-78 0 -123 -44t-45 -122t45 -122
t123 -44t122 44t44 122z" />
    <glyph glyph-name="dieresis" unicode="&#xa8;" horiz-adv-x="872" 
d="M100 1174v239h254v-239h-254zM518 1174v239h252v-239h-252z" />
    <glyph glyph-name="copyright" unicode="&#xa9;" horiz-adv-x="1957" 
d="M70 512q0 186 71.5 353t192 287t287 190.5t350.5 70.5t350.5 -70.5t287 -190.5t192 -287t71.5 -353t-71.5 -353t-192 -287t-287 -190.5t-350.5 -70.5t-350.5 70.5t-287 190.5t-192 287t-71.5 353zM315 512q0 -184 87 -338t237.5 -243t331.5 -89q136 0 257.5 52.5t208 142
t137 213.5t50.5 262t-50.5 261.5t-137 212.5t-208 141.5t-257.5 52.5q-181 0 -331.5 -88.5t-237.5 -242t-87 -337.5zM1157 291l195 -135q-54 -90 -144 -132t-229 -42q-217 0 -337 125t-120 337v140q0 224 121 341t350 117q120 0 213 -43t146 -127l-197 -137q-61 86 -168 86
q-108 0 -156.5 -63.5t-48.5 -190.5v-106q0 -59 9 -103t31 -80.5t63.5 -55.5t101.5 -19q117 0 170 88z" />
    <glyph glyph-name="ordfeminine" unicode="&#xaa;" horiz-adv-x="647" 
d="M33 956q0 201 246 201h122v31q0 50 -22.5 70t-83.5 20q-50 0 -76.5 -15t-48.5 -53l-123 84q34 65 97 94t169 29q134 0 200.5 -47.5t66.5 -159.5v-444h-179v47q-24 -32 -56 -43.5t-89 -11.5q-98 0 -160.5 50t-62.5 148zM401 1001v23h-96q-50 0 -71 -16.5t-21 -51.5
q0 -59 84 -59q53 0 78.5 21t25.5 83z" />
    <glyph glyph-name="guillemotleft" unicode="&#xab;" horiz-adv-x="1062" 
d="M61 580l476 473v-293l-185 -180l185 -183v-291zM502 580l475 473v-293l-182 -180l182 -183v-291z" />
    <glyph glyph-name="logicalnot" unicode="&#xac;" horiz-adv-x="1093" 
d="M991 342h-264v272h-651v230h915v-502z" />
    <glyph glyph-name="uni00AD" unicode="&#xad;" horiz-adv-x="653" 
d="M61 477v230h531v-230h-531z" />
    <glyph glyph-name="registered" unicode="&#xae;" horiz-adv-x="1114" 
d="M14 1026q0 109 43 208t115 171t171 115t208 43q145 0 268.5 -72t195.5 -196t72 -269t-72 -269t-195.5 -196t-268.5 -72q-109 0 -208 43t-171 115t-115 171t-43 208zM168 1026q0 -158 112.5 -270.5t270.5 -112.5t270.5 112.5t112.5 270.5t-112.5 270.5t-270.5 112.5
t-270.5 -112.5t-112.5 -270.5zM471 766h-137v534h227q103 0 155 -49.5t52 -120.5q0 -112 -98 -155l125 -209h-156l-104 184h-64v-184zM471 1065h61q50 0 72.5 14t22.5 49q0 58 -84 58h-72v-121z" />
    <glyph glyph-name="macron" unicode="&#xaf;" horiz-adv-x="829" 
d="M125 1174v227h580v-227h-580z" />
    <glyph glyph-name="degree" unicode="&#xb0;" horiz-adv-x="630" 
d="M27 1145q0 122 83.5 205.5t204.5 83.5t205 -83.5t84 -205.5t-84 -205.5t-205 -83.5t-204.5 83.5t-83.5 205.5zM209 1145q0 -46 31 -77.5t75 -31.5t73.5 31.5t29.5 77.5q0 45 -29.5 75.5t-73.5 30.5t-75 -31t-31 -75z" />
    <glyph glyph-name="plusminus" unicode="&#xb1;" horiz-adv-x="1036" 
d="M121 696v222h285v288h223v-288h289v-222h-289v-215h-223v215h-285zM121 213v221h797v-221h-797z" />
    <glyph glyph-name="twosuperior" unicode="&#xb2;" horiz-adv-x="569" 
d="M541 905v-139h-478v129l211 182q74 65 74 119q0 30 -16 47t-45 17q-28 0 -46.5 -18.5t-21.5 -49.5h-168q0 107 71 167t173 60q106 0 170.5 -56.5t64.5 -156.5q0 -62 -33.5 -113.5t-95.5 -103.5l-96 -84h236z" />
    <glyph glyph-name="threesuperior" unicode="&#xb3;" horiz-adv-x="616" 
d="M244 1038v121h26q80 0 80 62q0 24 -16 37.5t-43 13.5q-59 0 -66 -55h-172q0 92 69.5 147t174.5 55q104 0 164.5 -48.5t60.5 -133.5q0 -50 -25 -84t-63 -51q47 -17 74 -55.5t27 -88.5q0 -96 -66 -147t-172 -51q-115 0 -181 58.5t-71 148.5h174q10 -56 72 -56
q30 0 48.5 15.5t18.5 46.5q0 65 -88 65h-26z" />
    <glyph glyph-name="acute" unicode="&#xb4;" horiz-adv-x="817" 
d="M190 1161l144 324h293l-187 -324h-250z" />
    <glyph glyph-name="mu" unicode="&#x3bc;" horiz-adv-x="1060" 
d="M358 -281h-260v1305h260v-596q0 -69 13 -114.5t38.5 -67.5t53.5 -30.5t67 -8.5q175 0 175 217v600h231v-1024h-227v86q-63 -104 -211 -104q-84 0 -140 30v-293z" />
    <glyph glyph-name="mu" unicode="&#xb5;" horiz-adv-x="1060" 
d="M358 -281h-260v1305h260v-596q0 -69 13 -114.5t38.5 -67.5t53.5 -30.5t67 -8.5q175 0 175 217v600h231v-1024h-227v86q-63 -104 -211 -104q-84 0 -140 30v-293z" />
    <glyph glyph-name="paragraph" unicode="&#xb6;" horiz-adv-x="1341" 
d="M1180 1413v-1802h-273v1558h-153v-1558h-273v1024q-161 0 -275 114t-114 275t114 275t275 114h699z" />
    <glyph glyph-name="periodcentered" unicode="&#xb7;" horiz-adv-x="442" 
d="M375 866v-307h-307v307h307z" />
    <glyph glyph-name="cedilla" unicode="&#xb8;" horiz-adv-x="716" 
d="M238 -147l41 198l165 -6l-24 -90q106 -42 106 -148q0 -82 -66.5 -129t-174.5 -47q-59 0 -95 9l31 133q24 -4 39 -4q68 0 68 43q0 41 -90 41z" />
    <glyph glyph-name="onesuperior" unicode="&#xb9;" horiz-adv-x="567" 
d="M440 1413v-647h-180v457l-117 -76v178l131 88h166z" />
    <glyph glyph-name="ordmasculine" unicode="&#xba;" horiz-adv-x="716" 
d="M631 1137v-93q0 -134 -75.5 -209t-211.5 -75q-130 0 -207.5 73.5t-77.5 210.5v93q0 139 78 210.5t207 71.5q132 0 209.5 -70.5t77.5 -211.5zM344 924q51 0 79 32t28 91v88q0 120 -107 120q-104 0 -104 -120v-88q0 -123 104 -123z" />
    <glyph glyph-name="guillemotright" unicode="&#xbb;" horiz-adv-x="1062" 
d="M526 1053l475 -473l-475 -474v291l183 183l-183 180v293zM84 1053l475 -473l-475 -474v291l184 183l-184 180v293z" />
    <glyph glyph-name="onequarter" unicode="&#xbc;" horiz-adv-x="1347" 
d="M430 1413v-647h-180v457l-117 -76v178l131 88h166zM936 647h209l-252 -405h104v92h181v-92h79v-146h-79v-96h-181v96h-329v131zM999 1413h261l-971 -1413h-262z" />
    <glyph glyph-name="onehalf" unicode="&#xbd;" horiz-adv-x="1331" 
d="M430 1413v-647h-180v457l-117 -76v178l131 88h166zM1251 139v-139h-477v129l211 182q74 65 74 119q0 29 -16.5 46.5t-45.5 17.5q-28 0 -46 -18.5t-21 -49.5h-168q0 107 71 167t173 60q106 0 170.5 -56.5t64.5 -156.5q0 -62 -33.5 -113.5t-95.5 -103.5l-96 -84h235z
M999 1413h261l-971 -1413h-262z" />
    <glyph glyph-name="threequarters" unicode="&#xbe;" horiz-adv-x="1294" 
d="M231 1038v121h27q80 0 80 62q0 24 -16 37.5t-43 13.5q-59 0 -66 -55h-172q0 92 69.5 147t174.5 55q104 0 164.5 -48.5t60.5 -133.5q0 -50 -25 -84t-63 -51q47 -17 73.5 -55.5t26.5 -88.5q0 -96 -65.5 -147t-171.5 -51q-115 0 -181 58.5t-71 148.5h174q10 -56 72 -56
q30 0 48.5 15.5t18.5 46.5q0 65 -88 65h-27zM936 647h209l-252 -405h104v92h181v-92h79v-146h-79v-96h-181v96h-329v131zM999 1413h261l-971 -1413h-262z" />
    <glyph glyph-name="questiondown" unicode="&#xbf;" horiz-adv-x="997" 
d="M418 637h248v-141q0 -68 -16.5 -112t-63.5 -89l-92 -88q-49 -47 -72.5 -73.5t-41.5 -66t-18 -85.5q0 -69 44.5 -109.5t113.5 -40.5q67 0 113 36.5t47 102.5h270q0 -93 -34 -166t-93.5 -119t-136.5 -70t-166 -24q-92 0 -171 24.5t-140.5 71.5t-97 123t-35.5 173
q0 59 15.5 113t45.5 102.5t63 87.5t81 86l67 65q22 22 29.5 30t20 26t16.5 36t4 43v64zM401 745v279h281v-279h-281z" />
    <glyph glyph-name="Agrave" unicode="&#xc0;" horiz-adv-x="1243" 
d="M299 0h-307l491 1413h275l491 -1413h-305l-86 268h-473zM621 1008l-160 -498h319zM578 1784l163 -264h-256l-211 264h304z" />
    <glyph glyph-name="Aacute" unicode="&#xc1;" horiz-adv-x="1243" 
d="M299 0h-307l491 1413h275l491 -1413h-305l-86 268h-473zM621 1008l-160 -498h319zM500 1520l164 264h301l-211 -264h-254z" />
    <glyph glyph-name="Acircumflex" unicode="&#xc2;" horiz-adv-x="1243" 
d="M299 0h-307l491 1413h275l491 -1413h-305l-86 268h-473zM621 1008l-160 -498h319zM514 1800h215l283 -291h-273l-118 125l-117 -125h-273z" />
    <glyph glyph-name="Atilde" unicode="&#xc3;" horiz-adv-x="1243" 
d="M299 0h-307l491 1413h275l491 -1413h-305l-86 268h-473zM621 1008l-160 -498h319zM748 1511q-56 0 -133 30t-109 30q-60 0 -107 -53l-139 141q47 57 110.5 90t131.5 33q49 0 126 -30t113 -30q56 0 103 56l139 -142q-45 -57 -107.5 -91t-127.5 -34z" />
    <glyph glyph-name="Adieresis" unicode="&#xc4;" horiz-adv-x="1243" 
d="M299 0h-307l491 1413h275l491 -1413h-305l-86 268h-473zM621 1008l-160 -498h319zM287 1540v240h254v-240h-254zM702 1540v240h254v-240h-254z" />
    <glyph glyph-name="Aring" unicode="&#xc5;" horiz-adv-x="1243" 
d="M299 0h-307l471 1354q-78 56 -78 155q0 92 66.5 147.5t169.5 55.5q106 0 172.5 -55t66.5 -148q0 -101 -82 -157l471 -1352h-305l-86 268h-473zM621 1008l-160 -498h319zM547 1509q0 -30 20 -46.5t54 -16.5q75 0 75 63q0 64 -75 64q-74 0 -74 -64z" />
    <glyph glyph-name="AE" unicode="&#xc6;" horiz-adv-x="1830" 
d="M328 0h-336l801 1413h976v-244h-591v-317h530v-242h-530v-368h591v-242h-878v283h-406zM618 524h273v488z" />
    <glyph glyph-name="Ccedilla" unicode="&#xc7;" horiz-adv-x="1216" 
d="M537 -147l26 133q-218 21 -342.5 176t-124.5 444v201q0 160 39.5 281t112.5 195.5t170.5 111.5t218.5 37q215 0 349 -114.5t169 -342.5h-274q-44 215 -244 215q-127 0 -190.5 -92t-63.5 -291v-201q0 -383 254 -383q105 0 162.5 52.5t81.5 162.5h272q-32 -210 -138 -319.5
t-288 -130.5l-8 -33q108 -42 108 -148q0 -82 -67.5 -129t-175.5 -47q-59 0 -95 9l31 133q24 -4 39 -4q68 0 68 43q0 41 -90 41z" />
    <glyph glyph-name="Egrave" unicode="&#xc8;" horiz-adv-x="1079" 
d="M139 1413h881v-244h-594v-317h532v-242h-532v-368h594v-242h-881v1413zM592 1784l164 -264h-256l-211 264h303z" />
    <glyph glyph-name="Eacute" unicode="&#xc9;" horiz-adv-x="1079" 
d="M139 1413h881v-244h-594v-317h532v-242h-532v-368h594v-242h-881v1413zM412 1520l163 264h302l-211 -264h-254z" />
    <glyph glyph-name="Ecircumflex" unicode="&#xca;" horiz-adv-x="1079" 
d="M139 1413h881v-244h-594v-317h532v-242h-532v-368h594v-242h-881v1413zM471 1800h215l283 -291h-273l-118 125l-117 -125h-273z" />
    <glyph glyph-name="Edieresis" unicode="&#xcb;" horiz-adv-x="1079" 
d="M139 1413h881v-244h-594v-317h532v-242h-532v-368h594v-242h-881v1413zM244 1540v240h254v-240h-254zM659 1540v240h254v-240h-254z" />
    <glyph glyph-name="Igrave" unicode="&#xcc;" horiz-adv-x="606" 
d="M446 1413v-1413h-286v1413h286zM285 1784l164 -264h-256l-211 264h303z" />
    <glyph glyph-name="Iacute" unicode="&#xcd;" horiz-adv-x="606" 
d="M446 1413v-1413h-286v1413h286zM160 1520l164 264h301l-211 -264h-254z" />
    <glyph glyph-name="Icircumflex" unicode="&#xce;" horiz-adv-x="606" 
d="M446 1413v-1413h-286v1413h286zM197 1800h215l282 -291h-272l-119 125l-117 -125h-272z" />
    <glyph glyph-name="Idieresis" unicode="&#xcf;" horiz-adv-x="606" 
d="M446 1413v-1413h-286v1413h286zM-31 1540v240h254v-240h-254zM385 1540v240h254v-240h-254z" />
    <glyph glyph-name="Eth" unicode="&#xd0;" horiz-adv-x="1282" 
d="M643 0h-502v610h-161v242h161v561h502q124 0 220.5 -33t170 -104t113 -191.5t39.5 -285.5v-185q0 -164 -39.5 -284.5t-113 -191.5t-170.5 -104.5t-220 -33.5zM643 242q138 0 197 91.5t59 280.5v185q0 189 -58.5 279.5t-197.5 90.5h-215v-317h279v-242h-279v-368h215z" />
    <glyph glyph-name="Ntilde" unicode="&#xd1;" horiz-adv-x="1343" 
d="M930 1413h272v-1413h-239l-551 874v-874h-273v1413h238l553 -887v887zM797 1511q-56 0 -133 30t-109 30q-59 0 -106 -53l-140 141q47 57 110.5 90t131.5 33q49 0 126.5 -30t113.5 -30q55 0 102 56l139 -142q-45 -57 -107.5 -91t-127.5 -34z" />
    <glyph glyph-name="Ograve" unicode="&#xd2;" horiz-adv-x="1275" 
d="M1180 606q0 -312 -146.5 -468t-396.5 -156q-121 0 -218.5 37.5t-170.5 112t-112.5 195t-39.5 279.5v201q0 160 39.5 281t112.5 195.5t170.5 111.5t218.5 37q122 0 220 -37t171 -111.5t112.5 -195.5t39.5 -281v-201zM383 807v-201q0 -199 63.5 -291t190.5 -92t191.5 92.5
t64.5 290.5v201q0 198 -64.5 290.5t-191.5 92.5t-190.5 -92t-63.5 -291zM639 1784l164 -264h-256l-211 264h303z" />
    <glyph glyph-name="Oacute" unicode="&#xd3;" horiz-adv-x="1275" 
d="M1180 606q0 -312 -146.5 -468t-396.5 -156q-121 0 -218.5 37.5t-170.5 112t-112.5 195t-39.5 279.5v201q0 160 39.5 281t112.5 195.5t170.5 111.5t218.5 37q122 0 220 -37t171 -111.5t112.5 -195.5t39.5 -281v-201zM383 807v-201q0 -199 63.5 -291t190.5 -92t191.5 92.5
t64.5 290.5v201q0 198 -64.5 290.5t-191.5 92.5t-190.5 -92t-63.5 -291zM485 1520l164 264h301l-211 -264h-254z" />
    <glyph glyph-name="Ocircumflex" unicode="&#xd4;" horiz-adv-x="1275" 
d="M1180 606q0 -312 -146.5 -468t-396.5 -156q-121 0 -218.5 37.5t-170.5 112t-112.5 195t-39.5 279.5v201q0 160 39.5 281t112.5 195.5t170.5 111.5t218.5 37q122 0 220 -37t171 -111.5t112.5 -195.5t39.5 -281v-201zM383 807v-201q0 -199 63.5 -291t190.5 -92t191.5 92.5
t64.5 290.5v201q0 198 -64.5 290.5t-191.5 92.5t-190.5 -92t-63.5 -291zM530 1800h215l283 -291h-272l-119 125l-117 -125h-272z" />
    <glyph glyph-name="Otilde" unicode="&#xd5;" horiz-adv-x="1275" 
d="M1180 606q0 -312 -146.5 -468t-396.5 -156q-121 0 -218.5 37.5t-170.5 112t-112.5 195t-39.5 279.5v201q0 160 39.5 281t112.5 195.5t170.5 111.5t218.5 37q122 0 220 -37t171 -111.5t112.5 -195.5t39.5 -281v-201zM383 807v-201q0 -199 63.5 -291t190.5 -92t191.5 92.5
t64.5 290.5v201q0 198 -64.5 290.5t-191.5 92.5t-190.5 -92t-63.5 -291zM764 1511q-56 0 -133 30t-109 30q-59 0 -106 -53l-140 141q47 57 110.5 90t131.5 33q49 0 126.5 -30t113.5 -30q55 0 102 56l139 -142q-45 -57 -107.5 -91t-127.5 -34z" />
    <glyph glyph-name="Odieresis" unicode="&#xd6;" horiz-adv-x="1275" 
d="M1180 606q0 -312 -146.5 -468t-396.5 -156q-121 0 -218.5 37.5t-170.5 112t-112.5 195t-39.5 279.5v201q0 160 39.5 281t112.5 195.5t170.5 111.5t218.5 37q122 0 220 -37t171 -111.5t112.5 -195.5t39.5 -281v-201zM383 807v-201q0 -199 63.5 -291t190.5 -92t191.5 92.5
t64.5 290.5v201q0 198 -64.5 290.5t-191.5 92.5t-190.5 -92t-63.5 -291zM303 1540v240h254v-240h-254zM719 1540v240h254v-240h-254z" />
    <glyph glyph-name="multiply" unicode="&#xd7;" horiz-adv-x="1153" 
d="M348 326l-160 159l240 240l-240 242l158 157l242 -241l241 241l158 -157l-242 -242l240 -240l-160 -159l-239 239z" />
    <glyph glyph-name="Oslash" unicode="&#xd8;" horiz-adv-x="1275" 
d="M418 -238h-236l117 322q-203 157 -203 522v201q0 160 39.5 281t112.5 195.5t170.5 111.5t218.5 37q59 0 143 -15l90 246h236l-123 -340q197 -157 197 -516v-201q0 -312 -146.5 -468t-396.5 -156q-60 0 -135 14zM383 807v-201q0 -130 27 -215l286 793q-27 6 -59 6
q-127 0 -190.5 -92t-63.5 -291zM893 807q0 117 -25 203l-282 -783q16 -4 51 -4q127 0 191.5 92.5t64.5 290.5v201z" />
    <glyph glyph-name="Ugrave" unicode="&#xd9;" horiz-adv-x="1363" 
d="M938 1413h287v-840q0 -153 -40.5 -268t-114 -185t-171 -104t-217.5 -34t-217.5 34t-171 103.5t-114 184.5t-40.5 267v842h287v-842q0 -181 62 -264.5t194 -83.5t194 83.5t62 264.5v842zM666 1784l163 -264h-256l-211 264h304z" />
    <glyph glyph-name="Uacute" unicode="&#xda;" horiz-adv-x="1363" 
d="M938 1413h287v-840q0 -153 -40.5 -268t-114 -185t-171 -104t-217.5 -34t-217.5 34t-171 103.5t-114 184.5t-40.5 267v842h287v-842q0 -181 62 -264.5t194 -83.5t194 83.5t62 264.5v842zM535 1520l163 264h301l-211 -264h-253z" />
    <glyph glyph-name="Ucircumflex" unicode="&#xdb;" horiz-adv-x="1363" 
d="M938 1413h287v-840q0 -153 -40.5 -268t-114 -185t-171 -104t-217.5 -34t-217.5 34t-171 103.5t-114 184.5t-40.5 267v842h287v-842q0 -181 62 -264.5t194 -83.5t194 83.5t62 264.5v842zM575 1800h216l282 -291h-272l-119 125l-117 -125h-272z" />
    <glyph glyph-name="Udieresis" unicode="&#xdc;" horiz-adv-x="1363" 
d="M938 1413h287v-840q0 -153 -40.5 -268t-114 -185t-171 -104t-217.5 -34t-217.5 34t-171 103.5t-114 184.5t-40.5 267v842h287v-842q0 -181 62 -264.5t194 -83.5t194 83.5t62 264.5v842zM348 1540v240h254v-240h-254zM764 1540v240h254v-240h-254z" />
    <glyph glyph-name="Yacute" unicode="&#xdd;" horiz-adv-x="1193" 
d="M12 1413h332l252 -526l254 526h330l-441 -835v-578h-286v578zM453 1520l163 264h302l-211 -264h-254z" />
    <glyph glyph-name="Thorn" unicode="&#xde;" horiz-adv-x="1208" 
d="M645 279h-219v-279h-287v1413h287v-219h219q250 0 389.5 -114.5t139.5 -336.5q0 -223 -140 -343.5t-389 -120.5zM426 522h178q148 0 215.5 53t67.5 168q0 209 -283 209h-178v-430z" />
    <glyph glyph-name="germandbls" unicode="&#xdf;" horiz-adv-x="1050" 
d="M946 1157q0 -141 -125 -201q72 -26 98.5 -81.5t26.5 -153.5v-434q0 -91 -17 -148.5t-57 -87.5t-91 -40.5t-134 -10.5h-129v217h68q55 0 77.5 27.5t22.5 87.5v383q0 63 -21.5 92t-78.5 29h-68v202h68q51 0 75.5 26t24.5 71q0 44 -34.5 69t-106.5 25q-96 0 -137 -56.5
t-41 -166.5v-1006h-263v1022q0 410 441 410q86 0 155 -15.5t114 -41.5t75.5 -62t43.5 -74.5t13 -81.5z" />
    <glyph glyph-name="agrave" unicode="&#xe0;" 
d="M53 303q0 105 51 176.5t134 103t194 31.5h203v60q0 88 -36.5 119.5t-145.5 31.5q-79 0 -120.5 -16.5t-72.5 -65.5l-184 129q56 93 148.5 131.5t252.5 38.5q104 0 177 -17t128.5 -58t82 -114t26.5 -181v-672h-256v90q-32 -55 -83.5 -81.5t-137.5 -26.5q-164 0 -262.5 84
t-98.5 237zM635 383v39h-172q-80 0 -117 -27.5t-37 -87.5q0 -57 40 -85.5t110 -28.5q91 0 133.5 44t42.5 146zM512 1485l143 -324h-249l-187 324h293z" />
    <glyph glyph-name="aacute" unicode="&#xe1;" 
d="M53 303q0 105 51 176.5t134 103t194 31.5h203v60q0 88 -36.5 119.5t-145.5 31.5q-79 0 -120.5 -16.5t-72.5 -65.5l-184 129q56 93 148.5 131.5t252.5 38.5q104 0 177 -17t128.5 -58t82 -114t26.5 -181v-672h-256v90q-32 -55 -83.5 -81.5t-137.5 -26.5q-164 0 -262.5 84
t-98.5 237zM635 383v39h-172q-80 0 -117 -27.5t-37 -87.5q0 -57 40 -85.5t110 -28.5q91 0 133.5 44t42.5 146zM332 1161l143 324h293l-186 -324h-250z" />
    <glyph glyph-name="acircumflex" unicode="&#xe2;" 
d="M53 303q0 105 51 176.5t134 103t194 31.5h203v60q0 88 -36.5 119.5t-145.5 31.5q-79 0 -120.5 -16.5t-72.5 -65.5l-184 129q56 93 148.5 131.5t252.5 38.5q104 0 177 -17t128.5 -58t82 -114t26.5 -181v-672h-256v90q-32 -55 -83.5 -81.5t-137.5 -26.5q-164 0 -262.5 84
t-98.5 237zM635 383v39h-172q-80 0 -117 -27.5t-37 -87.5q0 -57 40 -85.5t110 -28.5q91 0 133.5 44t42.5 146zM385 1454h217l221 -291h-233l-96 133l-97 -133h-233z" />
    <glyph glyph-name="atilde" unicode="&#xe3;" 
d="M53 303q0 105 51 176.5t134 103t194 31.5h203v60q0 88 -36.5 119.5t-145.5 31.5q-79 0 -120.5 -16.5t-72.5 -65.5l-184 129q56 93 148.5 131.5t252.5 38.5q104 0 177 -17t128.5 -58t82 -114t26.5 -181v-672h-256v90q-32 -55 -83.5 -81.5t-137.5 -26.5q-164 0 -262.5 84
t-98.5 237zM635 383v39h-172q-80 0 -117 -27.5t-37 -87.5q0 -57 40 -85.5t110 -28.5q91 0 133.5 44t42.5 146zM629 1165q-55 0 -131.5 30t-108.5 30q-61 0 -108 -56l-138 131q45 57 109 91t131 34q49 0 126.5 -29.5t113.5 -29.5q55 0 104 55l137 -131q-44 -57 -106.5 -91
t-128.5 -34z" />
    <glyph glyph-name="adieresis" unicode="&#xe4;" 
d="M53 303q0 105 51 176.5t134 103t194 31.5h203v60q0 88 -36.5 119.5t-145.5 31.5q-79 0 -120.5 -16.5t-72.5 -65.5l-184 129q56 93 148.5 131.5t252.5 38.5q104 0 177 -17t128.5 -58t82 -114t26.5 -181v-672h-256v90q-32 -55 -83.5 -81.5t-137.5 -26.5q-164 0 -262.5 84
t-98.5 237zM635 383v39h-172q-80 0 -117 -27.5t-37 -87.5q0 -57 40 -85.5t110 -28.5q91 0 133.5 44t42.5 146zM141 1174v239h254v-239h-254zM559 1174v239h252v-239h-252z" />
    <glyph glyph-name="aring" unicode="&#xe5;" 
d="M53 303q0 105 51 176.5t134 103t194 31.5h203v60q0 88 -36.5 119.5t-145.5 31.5q-79 0 -120.5 -16.5t-72.5 -65.5l-184 129q56 93 148.5 131.5t252.5 38.5q104 0 177 -17t128.5 -58t82 -114t26.5 -181v-672h-256v90q-32 -55 -83.5 -81.5t-137.5 -26.5q-164 0 -262.5 84
t-98.5 237zM635 383v39h-172q-80 0 -117 -27.5t-37 -87.5q0 -57 40 -85.5t110 -28.5q91 0 133.5 44t42.5 146zM248 1323q0 99 69.5 162t182.5 63t182.5 -63t69.5 -162q0 -98 -69.5 -160.5t-182.5 -62.5t-182.5 62.5t-69.5 160.5zM424 1323q0 -41 20.5 -65.5t55.5 -24.5
q36 0 55.5 24t19.5 66q0 88 -75 88q-36 0 -56 -23t-20 -65z" />
    <glyph glyph-name="ae" unicode="&#xe6;" horiz-adv-x="1556" 
d="M1266 291l192 -135q-53 -92 -143.5 -133t-229.5 -41q-230 0 -333 141q-112 -141 -336 -141q-168 0 -265.5 83.5t-97.5 233.5q0 83 29.5 144.5t83 98.5t122 54.5t152.5 17.5h195v52q0 45 -6 71.5t-24 48t-53.5 30.5t-92.5 9q-86 0 -127.5 -18t-71.5 -64l-184 125
q105 174 407 174q211 0 299 -98q98 98 271 98q422 0 422 -481v-119h-584q1 -127 51.5 -183t142.5 -56q69 0 109 20.5t72 67.5zM635 381v41h-174q-152 0 -152 -115q0 -114 150 -114q86 0 131 42t45 146zM1055 821q-149 0 -164 -192h321q-5 94 -41.5 143t-115.5 49z" />
    <glyph glyph-name="ccedilla" unicode="&#xe7;" horiz-adv-x="913" 
d="M418 -147l26 135q-179 22 -277.5 143.5t-98.5 312.5v140q0 224 121 341t350 117q120 0 212.5 -43t145.5 -127l-197 -137q-61 86 -168 86t-155.5 -63.5t-48.5 -190.5v-106q0 -59 9 -103t30.5 -80.5t63 -55.5t101.5 -19q117 0 170 88l195 -135q-89 -149 -289 -170l-8 -31
q107 -42 107 -148q0 -82 -67 -129t-175 -47q-58 0 -94 9l30 133q24 -4 39 -4q68 0 68 43q0 41 -90 41z" />
    <glyph glyph-name="egrave" unicode="&#xe8;" 
d="M702 291l195 -135q-53 -92 -143.5 -133t-231.5 -41q-222 0 -338 127.5t-116 334.5v140q0 228 109 343t312 115q422 0 422 -479v-117h-583q2 -115 46 -179t146 -64q76 0 112.5 20.5t69.5 67.5zM492 821q-148 0 -164 -188h321q-4 98 -43 143t-114 45zM524 1485l144 -324
h-250l-187 324h293z" />
    <glyph glyph-name="eacute" unicode="&#xe9;" 
d="M702 291l195 -135q-53 -92 -143.5 -133t-231.5 -41q-222 0 -338 127.5t-116 334.5v140q0 228 109 343t312 115q422 0 422 -479v-117h-583q2 -115 46 -179t146 -64q76 0 112.5 20.5t69.5 67.5zM492 821q-148 0 -164 -188h321q-4 98 -43 143t-114 45zM336 1161l143 324h293
l-186 -324h-250z" />
    <glyph glyph-name="ecircumflex" unicode="&#xea;" 
d="M702 291l195 -135q-53 -92 -143.5 -133t-231.5 -41q-222 0 -338 127.5t-116 334.5v140q0 228 109 343t312 115q422 0 422 -479v-117h-583q2 -115 46 -179t146 -64q76 0 112.5 20.5t69.5 67.5zM492 821q-148 0 -164 -188h321q-4 98 -43 143t-114 45zM381 1454h217
l221 -291h-233l-97 133l-96 -133h-233z" />
    <glyph glyph-name="edieresis" unicode="&#xeb;" 
d="M702 291l195 -135q-53 -92 -143.5 -133t-231.5 -41q-222 0 -338 127.5t-116 334.5v140q0 228 109 343t312 115q422 0 422 -479v-117h-583q2 -115 46 -179t146 -64q76 0 112.5 20.5t69.5 67.5zM492 821q-148 0 -164 -188h321q-4 98 -43 143t-114 45zM154 1174v239h254
v-239h-254zM571 1174v239h252v-239h-252z" />
    <glyph glyph-name="igrave" unicode="&#xec;" horiz-adv-x="532" 
d="M135 0v1024h262v-1024h-262zM244 1485l143 -324h-250l-186 324h293z" />
    <glyph glyph-name="iacute" unicode="&#xed;" horiz-adv-x="532" 
d="M135 0v1024h262v-1024h-262zM125 1161l143 324h293l-186 -324h-250z" />
    <glyph glyph-name="icircumflex" unicode="&#xee;" horiz-adv-x="532" 
d="M135 0v1024h262v-1024h-262zM147 1454h218l221 -291h-234l-96 133l-96 -133h-234z" />
    <glyph glyph-name="idieresis" unicode="&#xef;" horiz-adv-x="532" 
d="M135 0v1024h262v-1024h-262zM-80 1174v239h254v-239h-254zM338 1174v239h252v-239h-252z" />
    <glyph glyph-name="eth" unicode="&#xf0;" horiz-adv-x="1034" 
d="M338 1151l45 86q-38 13 -111 43l93 174l108 -45l53 102l150 -79l-49 -93q95 -45 153 -88.5t99 -105.5t57 -144t16 -202v-201v-29v-116q0 -220 -109 -345.5t-333 -125.5q-218 0 -330 125t-112 346v122q0 228 114 347.5t320 119.5q146 0 225 -71q-12 71 -52.5 114
t-135.5 86l-52 -98zM510 203q100 0 141 68t41 190v106q0 126 -43.5 190t-138.5 64t-138.5 -64t-43.5 -190v-106q0 -59 8.5 -103t28 -80.5t56 -55.5t89.5 -19z" />
    <glyph glyph-name="ntilde" unicode="&#xf1;" horiz-adv-x="1077" 
d="M104 0v1024h256v-86q33 43 94.5 73.5t141.5 30.5q81 0 146.5 -20.5t118 -65.5t81.5 -125t29 -190v-641h-260v600q0 116 -41 166.5t-123 50.5q-89 0 -134.5 -56t-45.5 -159v-602h-263zM664 1165q-55 0 -131.5 30t-108.5 30q-62 0 -109 -56l-137 131q45 57 109 91t131 34
q49 0 126 -29.5t113 -29.5q56 0 105 55l137 -131q-44 -57 -106.5 -91t-128.5 -34z" />
    <glyph glyph-name="ograve" unicode="&#xf2;" horiz-adv-x="1021" 
d="M952 575v-122q0 -220 -109 -345.5t-333 -125.5q-218 0 -330 125t-112 346v122q0 228 114.5 347.5t327.5 119.5q215 0 328.5 -119t113.5 -348zM510 203q100 0 141 68t41 190v106q0 126 -43.5 190t-138.5 64t-138.5 -64t-43.5 -190v-106q0 -59 8.5 -103t28 -80.5t56 -55.5
t89.5 -19zM551 1485l143 -324h-250l-186 324h293z" />
    <glyph glyph-name="oacute" unicode="&#xf3;" horiz-adv-x="1021" 
d="M952 575v-122q0 -220 -109 -345.5t-333 -125.5q-218 0 -330 125t-112 346v122q0 228 114.5 347.5t327.5 119.5q215 0 328.5 -119t113.5 -348zM510 203q100 0 141 68t41 190v106q0 126 -43.5 190t-138.5 64t-138.5 -64t-43.5 -190v-106q0 -59 8.5 -103t28 -80.5t56 -55.5
t89.5 -19zM367 1161l143 324h293l-187 -324h-249z" />
    <glyph glyph-name="ocircumflex" unicode="&#xf4;" horiz-adv-x="1021" 
d="M952 575v-122q0 -220 -109 -345.5t-333 -125.5q-218 0 -330 125t-112 346v122q0 228 114.5 347.5t327.5 119.5q215 0 328.5 -119t113.5 -348zM510 203q100 0 141 68t41 190v106q0 126 -43.5 190t-138.5 64t-138.5 -64t-43.5 -190v-106q0 -59 8.5 -103t28 -80.5t56 -55.5
t89.5 -19zM401 1454h217l222 -291h-234l-96 133l-96 -133h-234z" />
    <glyph glyph-name="otilde" unicode="&#xf5;" horiz-adv-x="1021" 
d="M952 575v-122q0 -220 -109 -345.5t-333 -125.5q-218 0 -330 125t-112 346v122q0 228 114.5 347.5t327.5 119.5q215 0 328.5 -119t113.5 -348zM510 203q100 0 141 68t41 190v106q0 126 -43.5 190t-138.5 64t-138.5 -64t-43.5 -190v-106q0 -59 8.5 -103t28 -80.5t56 -55.5
t89.5 -19zM637 1165q-55 0 -131.5 30t-108.5 30q-61 0 -108 -56l-137 131q45 58 108.5 91.5t130.5 33.5q49 0 126.5 -29.5t113.5 -29.5q55 0 104 55l137 -131q-44 -57 -106.5 -91t-128.5 -34z" />
    <glyph glyph-name="odieresis" unicode="&#xf6;" horiz-adv-x="1021" 
d="M952 575v-122q0 -220 -109 -345.5t-333 -125.5q-218 0 -330 125t-112 346v122q0 228 114.5 347.5t327.5 119.5q215 0 328.5 -119t113.5 -348zM510 203q100 0 141 68t41 190v106q0 126 -43.5 190t-138.5 64t-138.5 -64t-43.5 -190v-106q0 -59 8.5 -103t28 -80.5t56 -55.5
t89.5 -19zM174 1174v239h254v-239h-254zM592 1174v239h252v-239h-252z" />
    <glyph glyph-name="divide" unicode="&#xf7;" horiz-adv-x="1036" 
d="M119 610v230h796v-230h-796zM393 942v248h248v-248h-248zM393 262v246h248v-246h-248z" />
    <glyph glyph-name="oslash" unicode="&#xf8;" horiz-adv-x="1021" 
d="M287 -162h-158l100 223q-161 118 -161 392v122q0 228 114.5 347.5t327.5 119.5q82 0 149 -18l76 168h158l-102 -227q161 -115 161 -390v-122q0 -220 -109 -345.5t-333 -125.5q-84 0 -152 18zM328 461q0 -87 16 -142l221 494q-32 8 -55 8q-95 0 -138.5 -64t-43.5 -190
v-106zM510 203q100 0 141 68t41 190v106q0 79 -18 135l-221 -493q24 -6 57 -6z" />
    <glyph glyph-name="ugrave" unicode="&#xf9;" horiz-adv-x="1077" 
d="M971 1024v-1024h-256v86q-34 -55 -85.5 -79.5t-148.5 -24.5q-81 0 -147 21t-119 67t-82 126t-29 189v639h263v-600q0 -118 40 -167.5t125 -49.5q179 0 179 215v602h260zM575 1485l144 -324h-250l-186 324h292z" />
    <glyph glyph-name="uacute" unicode="&#xfa;" horiz-adv-x="1077" 
d="M971 1024v-1024h-256v86q-34 -55 -85.5 -79.5t-148.5 -24.5q-81 0 -147 21t-119 67t-82 126t-29 189v639h263v-600q0 -118 40 -167.5t125 -49.5q179 0 179 215v602h260zM401 1161l144 324h293l-187 -324h-250z" />
    <glyph glyph-name="ucircumflex" unicode="&#xfb;" horiz-adv-x="1077" 
d="M971 1024v-1024h-256v86q-34 -55 -85.5 -79.5t-148.5 -24.5q-81 0 -147 21t-119 67t-82 126t-29 189v639h263v-600q0 -118 40 -167.5t125 -49.5q179 0 179 215v602h260zM430 1454h217l221 -291h-233l-96 133l-97 -133h-233z" />
    <glyph glyph-name="udieresis" unicode="&#xfc;" horiz-adv-x="1077" 
d="M971 1024v-1024h-256v86q-34 -55 -85.5 -79.5t-148.5 -24.5q-81 0 -147 21t-119 67t-82 126t-29 189v639h263v-600q0 -118 40 -167.5t125 -49.5q179 0 179 215v602h260zM203 1174v239h254v-239h-254zM621 1174v239h251v-239h-251z" />
    <glyph glyph-name="yacute" unicode="&#xfd;" horiz-adv-x="980" 
d="M10 1024h275l227 -655l205 655h264l-358 -1071q-47 -141 -100.5 -212t-137.5 -100.5t-231 -29.5v233q109 0 158.5 27.5t80.5 114.5zM383 1161l143 324h293l-186 -324h-250z" />
    <glyph glyph-name="thorn" unicode="&#xfe;" horiz-adv-x="1058" 
d="M991 584v-140q0 -207 -103.5 -334.5t-295.5 -127.5q-154 0 -225 59v-430h-263v1802h263v-457q77 86 227 86q181 0 289 -121t108 -337zM549 203q99 0 139.5 68t40.5 190v106q0 127 -43 190.5t-137 63.5q-182 0 -182 -231v-129q0 -59 8 -103t27.5 -80.5t56.5 -55.5t90 -19z
" />
    <glyph glyph-name="ydieresis" unicode="&#xff;" horiz-adv-x="980" 
d="M10 1024h275l227 -655l205 655h264l-358 -1071q-47 -141 -100.5 -212t-137.5 -100.5t-231 -29.5v233q109 0 158.5 27.5t80.5 114.5zM172 1174v239h254v-239h-254zM590 1174v239h252v-239h-252z" />
    <glyph glyph-name="Amacron" unicode="&#x100;" horiz-adv-x="1243" 
d="M299 0h-307l491 1413h275l491 -1413h-305l-86 268h-473zM621 1008l-160 -498h319zM293 1524v229h659v-229h-659z" />
    <glyph glyph-name="amacron" unicode="&#x101;" 
d="M53 303q0 105 51 176.5t134 103t194 31.5h203v60q0 88 -36.5 119.5t-145.5 31.5q-79 0 -120.5 -16.5t-72.5 -65.5l-184 129q56 93 148.5 131.5t252.5 38.5q104 0 177 -17t128.5 -58t82 -114t26.5 -181v-672h-256v90q-32 -55 -83.5 -81.5t-137.5 -26.5q-164 0 -262.5 84
t-98.5 237zM635 383v39h-172q-80 0 -117 -27.5t-37 -87.5q0 -57 40 -85.5t110 -28.5q91 0 133.5 44t42.5 146zM211 1174v227h580v-227h-580z" />
    <glyph glyph-name="Abreve" unicode="&#x102;" horiz-adv-x="1243" 
d="M299 0h-307l491 1413h275l491 -1413h-305l-86 268h-473zM621 1008l-160 -498h319zM784 1800h230q0 -149 -108 -230t-283 -81t-283.5 81t-108.5 230h228q11 -54 49.5 -82t114.5 -28q78 0 114.5 28t46.5 82z" />
    <glyph glyph-name="abreve" unicode="&#x103;" 
d="M53 303q0 105 51 176.5t134 103t194 31.5h203v60q0 88 -36.5 119.5t-145.5 31.5q-79 0 -120.5 -16.5t-72.5 -65.5l-184 129q56 93 148.5 131.5t252.5 38.5q104 0 177 -17t128.5 -58t82 -114t26.5 -181v-672h-256v90q-32 -55 -83.5 -81.5t-137.5 -26.5q-164 0 -262.5 84
t-98.5 237zM635 383v39h-172q-80 0 -117 -27.5t-37 -87.5q0 -57 40 -85.5t110 -28.5q91 0 133.5 44t42.5 146zM635 1413h188q-4 -130 -84.5 -200t-220.5 -70q-141 0 -222 70t-85 200h190q6 -53 33 -80.5t84 -27.5t84 27.5t33 80.5z" />
    <glyph glyph-name="Aogonek" unicode="&#x104;" horiz-adv-x="1243" 
d="M299 0h-307l491 1413h275l491 -1413q-49 -43 -69.5 -69.5t-20.5 -55.5q0 -45 55 -45q19 0 39 4l31 -133q-32 -8 -98 -8q-91 0 -158 37.5t-67 117.5q0 87 71 152h-88l-86 268h-473zM621 1008l-160 -498h319z" />
    <glyph glyph-name="aogonek" unicode="&#x105;" horiz-adv-x="1013" 
d="M53 303q0 105 51 176.5t134 103t194 31.5h203v60q0 88 -36.5 119.5t-145.5 31.5q-79 0 -120.5 -16.5t-72.5 -65.5l-184 129q56 93 148.5 131.5t252.5 38.5q104 0 177 -17t128.5 -58t82 -114t26.5 -181v-672q-35 -31 -50 -46t-28.5 -37t-13.5 -42q0 -45 55 -45q19 0 39 4
l31 -133q-32 -8 -99 -8q-91 0 -158 37.5t-67 117.5q0 86 72 152h-37v90q-32 -55 -83.5 -81.5t-137.5 -26.5q-164 0 -262.5 84t-98.5 237zM635 383v39h-172q-80 0 -117 -27.5t-37 -87.5q0 -57 40 -85.5t110 -28.5q91 0 133.5 44t42.5 146z" />
    <glyph glyph-name="Cacute" unicode="&#x106;" horiz-adv-x="1216" 
d="M1155 975h-274q-44 215 -244 215q-127 0 -190.5 -92t-63.5 -291v-201q0 -383 254 -383q105 0 162.5 52.5t81.5 162.5h272q-35 -234 -164.5 -345t-351.5 -111q-121 0 -218.5 37.5t-170.5 112t-112.5 195t-39.5 279.5v201q0 160 39.5 281t112.5 195.5t170.5 111.5t218.5 37
q215 0 349 -114.5t169 -342.5zM453 1520l163 264h302l-211 -264h-254z" />
    <glyph glyph-name="cacute" unicode="&#x107;" horiz-adv-x="913" 
d="M702 291l195 -135q-54 -90 -144 -132t-229 -42q-217 0 -336.5 124.5t-119.5 337.5v140q0 224 121 341t350 117q120 0 212.5 -43t145.5 -127l-197 -137q-61 86 -168 86t-155.5 -63.5t-48.5 -190.5v-106q0 -59 9 -103t30.5 -80.5t63 -55.5t101.5 -19q117 0 170 88z
M375 1161l143 324h293l-186 -324h-250z" />
    <glyph glyph-name="Ccircumflex" unicode="&#x108;" horiz-adv-x="1216" 
d="M1155 975h-274q-44 215 -244 215q-127 0 -190.5 -92t-63.5 -291v-201q0 -383 254 -383q105 0 162.5 52.5t81.5 162.5h272q-35 -234 -164.5 -345t-351.5 -111q-121 0 -218.5 37.5t-170.5 112t-112.5 195t-39.5 279.5v201q0 160 39.5 281t112.5 195.5t170.5 111.5t218.5 37
q215 0 349 -114.5t169 -342.5zM524 1800h215l283 -291h-272l-119 125l-117 -125h-272z" />
    <glyph glyph-name="ccircumflex" unicode="&#x109;" horiz-adv-x="913" 
d="M702 291l195 -135q-54 -90 -144 -132t-229 -42q-217 0 -336.5 124.5t-119.5 337.5v140q0 224 121 341t350 117q120 0 212.5 -43t145.5 -127l-197 -137q-61 86 -168 86t-155.5 -63.5t-48.5 -190.5v-106q0 -59 9 -103t30.5 -80.5t63 -55.5t101.5 -19q117 0 170 88z
M422 1454h217l221 -291h-233l-97 133l-96 -133h-233z" />
    <glyph glyph-name="Cdotaccent" unicode="&#x10a;" horiz-adv-x="1216" 
d="M1155 975h-274q-44 215 -244 215q-127 0 -190.5 -92t-63.5 -291v-201q0 -383 254 -383q105 0 162.5 52.5t81.5 162.5h272q-35 -234 -164.5 -345t-351.5 -111q-121 0 -218.5 37.5t-170.5 112t-112.5 195t-39.5 279.5v201q0 160 39.5 281t112.5 195.5t170.5 111.5t218.5 37
q215 0 349 -114.5t169 -342.5zM489 1554v226h289v-226h-289z" />
    <glyph glyph-name="cdotaccent" unicode="&#x10b;" horiz-adv-x="913" 
d="M702 291l195 -135q-54 -90 -144 -132t-229 -42q-217 0 -336.5 124.5t-119.5 337.5v140q0 224 121 341t350 117q120 0 212.5 -43t145.5 -127l-197 -137q-61 86 -168 86t-155.5 -63.5t-48.5 -190.5v-106q0 -59 9 -103t30.5 -80.5t63 -55.5t101.5 -19q117 0 170 88z
M373 1159v254h282v-254h-282z" />
    <glyph glyph-name="Ccaron" unicode="&#x10c;" horiz-adv-x="1216" 
d="M1155 975h-274q-44 215 -244 215q-127 0 -190.5 -92t-63.5 -291v-201q0 -383 254 -383q105 0 162.5 52.5t81.5 162.5h272q-35 -234 -164.5 -345t-351.5 -111q-121 0 -218.5 37.5t-170.5 112t-112.5 195t-39.5 279.5v201q0 160 39.5 281t112.5 195.5t170.5 111.5t218.5 37
q215 0 349 -114.5t169 -342.5zM733 1509h-215l-282 291h272l117 -125l118 125h273z" />
    <glyph glyph-name="ccaron" unicode="&#x10d;" horiz-adv-x="913" 
d="M702 291l195 -135q-54 -90 -144 -132t-229 -42q-217 0 -336.5 124.5t-119.5 337.5v140q0 224 121 341t350 117q120 0 212.5 -43t145.5 -127l-197 -137q-61 86 -168 86t-155.5 -63.5t-48.5 -190.5v-106q0 -59 9 -103t30.5 -80.5t63 -55.5t101.5 -19q117 0 170 88z
M631 1163h-217l-221 291h233l96 -133l96 133h234z" />
    <glyph glyph-name="Dcaron" unicode="&#x10e;" horiz-adv-x="1280" 
d="M641 0h-502v1413h502q124 0 220.5 -33t170 -104t113 -191.5t39.5 -285.5v-185q0 -164 -39.5 -284.5t-113 -191.5t-170.5 -104.5t-220 -33.5zM641 242q138 0 197 91.5t59 280.5v185q0 189 -58.5 279.5t-197.5 90.5h-215v-927h215zM698 1509h-215l-282 291h272l117 -125
l119 125h272z" />
    <glyph glyph-name="dcaron" unicode="&#x10f;" horiz-adv-x="1101" 
d="M692 971v442h260v-1413h-260v59q-83 -77 -219 -77q-196 0 -300.5 126t-104.5 336v140q0 220 109 339t296 119q136 0 219 -71zM510 203q53 0 90 19t56.5 55.5t27.5 80.5t8 103v129q0 231 -182 231q-95 0 -138.5 -64t-43.5 -190v-106q0 -258 182 -258zM1303 1411v-264
l-281 -240v504h281z" />
    <glyph glyph-name="Dcroat" unicode="&#x110;" horiz-adv-x="1302" 
d="M664 0h-502v610h-182v242h182v561h502q123 0 219.5 -33t170.5 -104t113 -191.5t39 -285.5v-185q0 -164 -39 -284.5t-113 -191.5t-170.5 -104.5t-219.5 -33.5zM664 242q138 0 197 91.5t59 280.5v185q0 189 -58.5 279.5t-197.5 90.5h-215v-317h286v-242h-286v-368h215z" />
    <glyph glyph-name="dcroat" unicode="&#x111;" horiz-adv-x="1058" 
d="M692 971v131h-254v215h254v96h260v-96h154v-215h-154v-1102h-260v59q-83 -77 -219 -77q-196 0 -300.5 126t-104.5 336v140q0 220 109 339t296 119q136 0 219 -71zM510 203q53 0 90 19t56.5 55.5t27.5 80.5t8 103v129q0 231 -182 231q-95 0 -138.5 -64t-43.5 -190v-106
q0 -258 182 -258z" />
    <glyph glyph-name="Emacron" unicode="&#x112;" horiz-adv-x="1079" 
d="M139 1413h881v-244h-594v-317h532v-242h-532v-368h594v-242h-881v1413zM250 1524v229h659v-229h-659z" />
    <glyph glyph-name="emacron" unicode="&#x113;" 
d="M702 291l195 -135q-53 -92 -143.5 -133t-231.5 -41q-222 0 -338 127.5t-116 334.5v140q0 228 109 343t312 115q422 0 422 -479v-117h-583q2 -115 46 -179t146 -64q76 0 112.5 20.5t69.5 67.5zM492 821q-148 0 -164 -188h321q-4 98 -43 143t-114 45zM201 1174v227h579
v-227h-579z" />
    <glyph glyph-name="Edotaccent" unicode="&#x116;" horiz-adv-x="1079" 
d="M139 1413h881v-244h-594v-317h532v-242h-532v-368h594v-242h-881v1413zM434 1554v226h289v-226h-289z" />
    <glyph glyph-name="edotaccent" unicode="&#x117;" 
d="M702 291l195 -135q-53 -92 -143.5 -133t-231.5 -41q-222 0 -338 127.5t-116 334.5v140q0 228 109 343t312 115q422 0 422 -479v-117h-583q2 -115 46 -179t146 -64q76 0 112.5 20.5t69.5 67.5zM492 821q-148 0 -164 -188h321q-4 98 -43 143t-114 45zM348 1159v254h283
v-254h-283z" />
    <glyph glyph-name="Eogonek" unicode="&#x118;" horiz-adv-x="1079" 
d="M139 1413h881v-244h-594v-317h532v-242h-532v-368h594v-242h-227q-36 -32 -50.5 -46.5t-28.5 -36.5t-14 -42q0 -45 56 -45q19 0 39 4l30 -133q-32 -8 -98 -8q-91 0 -158 37.5t-67 117.5q0 87 71 152h-434v1413z" />
    <glyph glyph-name="eogonek" unicode="&#x119;" 
d="M702 291l195 -135q-75 -134 -246 -164q-42 -36 -62 -62t-20 -55q0 -45 56 -45q19 0 39 4l30 -133q-32 -8 -98 -8q-91 0 -158 37.5t-67 117.5t59 142q-119 17 -201.5 80.5t-121.5 158t-39 215.5v140q0 228 109 343t312 115q422 0 422 -479v-117h-583q2 -115 46 -179
t146 -64q76 0 112.5 20.5t69.5 67.5zM492 821q-148 0 -164 -188h321q-4 98 -43 143t-114 45z" />
    <glyph glyph-name="Ecaron" unicode="&#x11a;" horiz-adv-x="1079" 
d="M139 1413h881v-244h-594v-317h532v-242h-532v-368h594v-242h-881v1413zM686 1509h-215l-283 291h273l117 -125l118 125h273z" />
    <glyph glyph-name="ecaron" unicode="&#x11b;" 
d="M702 291l195 -135q-53 -92 -143.5 -133t-231.5 -41q-222 0 -338 127.5t-116 334.5v140q0 228 109 343t312 115q422 0 422 -479v-117h-583q2 -115 46 -179t146 -64q76 0 112.5 20.5t69.5 67.5zM492 821q-148 0 -164 -188h321q-4 98 -43 143t-114 45zM604 1163h-217
l-221 291h233l97 -133l96 133h233z" />
    <glyph glyph-name="Gcircumflex" unicode="&#x11c;" horiz-adv-x="1253" 
d="M643 735h514v-129q0 -315 -136.5 -469.5t-383.5 -154.5q-121 0 -218.5 37.5t-170.5 112t-112.5 195t-39.5 279.5v180q0 168 39.5 293.5t112.5 201.5t170 113.5t219 37.5q220 0 352.5 -119t165.5 -338h-274q-20 101 -80.5 158t-163.5 57q-127 0 -190.5 -92t-63.5 -291
v-201q0 -199 63.5 -291t190.5 -92q117 0 174 68.5t70 202.5h-238v241zM518 1800h215l283 -291h-273l-118 125l-117 -125h-272z" />
    <glyph glyph-name="gcircumflex" unicode="&#x11d;" horiz-adv-x="1058" 
d="M692 971v53h260v-1004q0 -100 -22.5 -175t-61 -121.5t-97 -75t-123 -39t-146.5 -10.5q-147 0 -241.5 41.5t-160.5 142.5l176 127q68 -92 201 -92q119 0 167 43t48 159v33q-83 -71 -219 -71q-196 0 -300.5 126t-104.5 336v140q0 220 109 339t296 119q136 0 219 -71z
M510 203q182 0 182 235v129q0 126 -43.5 190t-138.5 64t-138.5 -64t-43.5 -190v-106q0 -258 182 -258zM471 1454h217l221 -291h-233l-96 133l-97 -133h-233z" />
    <glyph glyph-name="Gbreve" unicode="&#x11e;" horiz-adv-x="1253" 
d="M643 735h514v-129q0 -315 -136.5 -469.5t-383.5 -154.5q-121 0 -218.5 37.5t-170.5 112t-112.5 195t-39.5 279.5v180q0 168 39.5 293.5t112.5 201.5t170 113.5t219 37.5q220 0 352.5 -119t165.5 -338h-274q-20 101 -80.5 158t-163.5 57q-127 0 -190.5 -92t-63.5 -291
v-201q0 -199 63.5 -291t190.5 -92q117 0 174 68.5t70 202.5h-238v241zM788 1800h230q0 -149 -108 -230t-283 -81t-283 81t-108 230h227q11 -54 49.5 -82t114.5 -28q78 0 114.5 28t46.5 82z" />
    <glyph glyph-name="gbreve" unicode="&#x11f;" horiz-adv-x="1058" 
d="M692 971v53h260v-1004q0 -100 -22.5 -175t-61 -121.5t-97 -75t-123 -39t-146.5 -10.5q-147 0 -241.5 41.5t-160.5 142.5l176 127q68 -92 201 -92q119 0 167 43t48 159v33q-83 -71 -219 -71q-196 0 -300.5 126t-104.5 336v140q0 220 109 339t296 119q136 0 219 -71z
M510 203q182 0 182 235v129q0 126 -43.5 190t-138.5 64t-138.5 -64t-43.5 -190v-106q0 -258 182 -258zM698 1413h189q-4 -130 -84.5 -200t-220.5 -70q-141 0 -222.5 70.5t-85.5 199.5h191q6 -53 33 -80.5t84 -27.5t83.5 27.5t32.5 80.5z" />
    <glyph glyph-name="Gdotaccent" unicode="&#x120;" horiz-adv-x="1253" 
d="M643 735h514v-129q0 -315 -136.5 -469.5t-383.5 -154.5q-121 0 -218.5 37.5t-170.5 112t-112.5 195t-39.5 279.5v180q0 168 39.5 293.5t112.5 201.5t170 113.5t219 37.5q220 0 352.5 -119t165.5 -338h-274q-20 101 -80.5 158t-163.5 57q-127 0 -190.5 -92t-63.5 -291
v-201q0 -199 63.5 -291t190.5 -92q117 0 174 68.5t70 202.5h-238v241zM492 1554v226h288v-226h-288z" />
    <glyph glyph-name="gdotaccent" unicode="&#x121;" horiz-adv-x="1058" 
d="M692 971v53h260v-1004q0 -100 -22.5 -175t-61 -121.5t-97 -75t-123 -39t-146.5 -10.5q-147 0 -241.5 41.5t-160.5 142.5l176 127q68 -92 201 -92q119 0 167 43t48 159v33q-83 -71 -219 -71q-196 0 -300.5 126t-104.5 336v140q0 220 109 339t296 119q136 0 219 -71z
M510 203q182 0 182 235v129q0 126 -43.5 190t-138.5 64t-138.5 -64t-43.5 -190v-106q0 -258 182 -258zM426 1159v254h283v-254h-283z" />
    <glyph glyph-name="Gcommaaccent" unicode="&#x122;" horiz-adv-x="1253" 
d="M643 735h514v-129q0 -315 -136.5 -469.5t-383.5 -154.5q-121 0 -218.5 37.5t-170.5 112t-112.5 195t-39.5 279.5v180q0 168 39.5 293.5t112.5 201.5t170 113.5t219 37.5q220 0 352.5 -119t165.5 -338h-274q-20 101 -80.5 158t-163.5 57q-127 0 -190.5 -92t-63.5 -291
v-201q0 -199 63.5 -291t190.5 -92q117 0 174 68.5t70 202.5h-238v241zM768 -104v-265l-281 -239v504h281z" />
    <glyph glyph-name="gcommaaccent" unicode="&#x123;" horiz-adv-x="1058" 
d="M692 971v53h260v-1004q0 -100 -22.5 -175t-61 -121.5t-97 -75t-123 -39t-146.5 -10.5q-147 0 -241.5 41.5t-160.5 142.5l176 127q68 -92 201 -92q119 0 167 43t48 159v33q-83 -71 -219 -71q-196 0 -300.5 126t-104.5 336v140q0 220 109 339t296 119q136 0 219 -71z
M510 203q182 0 182 235v129q0 126 -43.5 190t-138.5 64t-138.5 -64t-43.5 -190v-106q0 -258 182 -258zM387 1110v264l281 240v-504h-281z" />
    <glyph glyph-name="Hcircumflex" unicode="&#x124;" horiz-adv-x="1343" 
d="M426 1413v-561h489v561h287v-1413h-287v610h-489v-610h-287v1413h287zM563 1800h215l283 -291h-273l-118 125l-117 -125h-272z" />
    <glyph glyph-name="hcircumflex" unicode="&#x125;" horiz-adv-x="1077" 
d="M104 0v1413h263v-469q75 98 229 98q81 0 146.5 -20.5t118 -65.5t81.5 -125t29 -190v-641h-260v600q0 116 -41 166.5t-123 50.5q-89 0 -134.5 -56t-45.5 -159v-602h-263zM127 1794h217l221 -291h-233l-96 133l-97 -133h-233z" />
    <glyph glyph-name="Hbar" unicode="&#x126;" horiz-adv-x="1376" 
d="M442 1413v-199h490v199h287v-199h178v-256h-178v-958h-287v610h-490v-610h-286v958h-176v256h176v199h286zM442 852h490v106h-490v-106z" />
    <glyph glyph-name="hbar" unicode="&#x127;" horiz-adv-x="1083" 
d="M-53 1102v215h164v96h262v-96h268v-215h-268v-158q75 98 229 98q81 0 146.5 -20.5t118 -65.5t81.5 -125t29 -190v-641h-260v600q0 116 -41 166.5t-123 50.5q-89 0 -134.5 -56t-45.5 -159v-602h-262v1102h-164z" />
    <glyph glyph-name="Imacron" unicode="&#x12a;" horiz-adv-x="606" 
d="M446 1413v-1413h-286v1413h286zM-25 1524v229h660v-229h-660z" />
    <glyph glyph-name="imacron" unicode="&#x12b;" horiz-adv-x="532" 
d="M135 0v1024h262v-1024h-262zM-33 1174v227h580v-227h-580z" />
    <glyph glyph-name="Iogonek" unicode="&#x12e;" horiz-adv-x="606" 
d="M446 1413v-1413q-35 -31 -50 -46t-28.5 -37t-13.5 -42q0 -45 56 -45q19 0 39 4l30 -133q-32 -8 -98 -8q-91 0 -158 37.5t-67 117.5q0 87 71 152h-67v1413h286z" />
    <glyph glyph-name="iogonek" unicode="&#x12f;" horiz-adv-x="532" 
d="M135 0v1024h262v-1024q-35 -31 -50 -46t-28.5 -37t-13.5 -42q0 -45 55 -45q19 0 39 4l31 -133q-32 -8 -98 -8q-91 0 -158.5 37.5t-67.5 117.5q0 86 72 152h-43zM125 1159v254h283v-254h-283z" />
    <glyph glyph-name="Idotaccent" unicode="&#x130;" horiz-adv-x="606" 
d="M446 1413v-1413h-286v1413h286zM160 1554v226h289v-226h-289z" />
    <glyph glyph-name="dotlessi" unicode="&#x131;" horiz-adv-x="532" 
d="M135 0v1024h262v-1024h-262z" />
    <glyph glyph-name="Jcircumflex" unicode="&#x134;" horiz-adv-x="1048" 
d="M-18 193l237 133q34 -48 84.5 -75.5t108.5 -27.5q108 0 159.5 71.5t51.5 248.5v870h286v-870q0 -295 -123 -428t-356 -133q-300 0 -448 211zM666 1800h215l282 -291h-272l-119 125l-117 -125h-272z" />
    <glyph glyph-name="jcircumflex" unicode="&#x135;" horiz-adv-x="514" 
d="M397 1024v-1079q0 -98 -23 -162.5t-74 -102.5t-122.5 -53.5t-177.5 -15.5v225q78 0 107.5 35t29.5 111v1042h260zM152 1454h217l221 -291h-234l-96 133l-96 -133h-234z" />
    <glyph glyph-name="Kcommaaccent" unicode="&#x136;" horiz-adv-x="1320" 
d="M1296 0h-342l-360 596l-168 -221v-375h-287v1413h287v-610l446 610h340l-432 -571zM805 -104v-265l-281 -239v504h281z" />
    <glyph glyph-name="kcommaaccent" unicode="&#x137;" horiz-adv-x="1028" 
d="M653 1024h312l-355 -428l414 -596h-307l-281 385l-69 -86v-299h-263v1413h263v-762zM674 -104v-265l-281 -239v504h281z" />
    <glyph glyph-name="Lacute" unicode="&#x139;" horiz-adv-x="1032" 
d="M426 1413v-1171h594v-242h-881v1413h287zM172 1520l164 264h301l-211 -264h-254z" />
    <glyph glyph-name="lacute" unicode="&#x13a;" horiz-adv-x="583" 
d="M104 328v1085h263v-1026q0 -86 31 -124t112 -38v-225q-215 0 -310.5 71t-95.5 257zM111 1481l143 323h293l-187 -323h-249z" />
    <glyph glyph-name="Lcommaaccent" unicode="&#x13b;" horiz-adv-x="1032" 
d="M426 1413v-1171h594v-242h-881v1413h287zM721 -104v-265l-281 -239v504h281z" />
    <glyph glyph-name="lcommaaccent" unicode="&#x13c;" horiz-adv-x="583" 
d="M104 328v1085h263v-1026q0 -86 31 -124t112 -38v-225q-215 0 -310.5 71t-95.5 257zM457 -104v-265l-281 -239v504h281z" />
    <glyph glyph-name="Lcaron" unicode="&#x13d;" horiz-adv-x="1032" 
d="M426 1413v-1171h594v-242h-881v1413h287zM903 1446v-338l-274 -234v572h274z" />
    <glyph glyph-name="lcaron" unicode="&#x13e;" horiz-adv-x="575" 
d="M104 328v1085h263v-1026q0 -86 31 -124t112 -38v-225q-215 0 -310.5 71t-95.5 257zM735 1411v-264l-280 -240v504h280z" />
    <glyph glyph-name="Ldot" unicode="&#x13f;" horiz-adv-x="1032" 
d="M426 1413v-1171h594v-242h-881v1413h287zM657 668v254h283v-254h-283z" />
    <glyph glyph-name="ldot" unicode="&#x140;" horiz-adv-x="751" 
d="M104 328v1085h263v-1026q0 -86 31 -124t112 -38v-225q-215 0 -310.5 71t-95.5 257zM459 723v225h289v-225h-289z" />
    <glyph glyph-name="Lslash" unicode="&#x141;" horiz-adv-x="1101" 
d="M494 1413v-393l192 154l145 -185l-337 -270v-477h593v-242h-880v489l-117 -92l-145 185l262 209v622h287z" />
    <glyph glyph-name="lslash" unicode="&#x142;" horiz-adv-x="602" 
d="M61 483l-81 123l186 127v680h262v-498l111 76l82 -121l-193 -133v-350q0 -86 31 -124t112 -38v-225q-215 0 -310 71t-95 257v227z" />
    <glyph glyph-name="Nacute" unicode="&#x143;" horiz-adv-x="1343" 
d="M930 1413h272v-1413h-239l-551 874v-874h-273v1413h238l553 -887v887zM537 1520l163 264h301l-210 -264h-254z" />
    <glyph glyph-name="nacute" unicode="&#x144;" horiz-adv-x="1077" 
d="M104 0v1024h256v-86q33 43 94.5 73.5t141.5 30.5q81 0 146.5 -20.5t118 -65.5t81.5 -125t29 -190v-641h-260v600q0 116 -41 166.5t-123 50.5q-89 0 -134.5 -56t-45.5 -159v-602h-263zM391 1161l144 324h292l-186 -324h-250z" />
    <glyph glyph-name="Ncommaaccent" unicode="&#x145;" horiz-adv-x="1343" 
d="M930 1413h272v-1413h-239l-551 874v-874h-273v1413h238l553 -887v887zM821 -104v-265l-280 -239v504h280z" />
    <glyph glyph-name="ncommaaccent" unicode="&#x146;" horiz-adv-x="1077" 
d="M104 0v1024h256v-86q33 43 94.5 73.5t141.5 30.5q81 0 146.5 -20.5t118 -65.5t81.5 -125t29 -190v-641h-260v600q0 116 -41 166.5t-123 50.5q-89 0 -134.5 -56t-45.5 -159v-602h-263zM684 -104v-265l-281 -239v504h281z" />
    <glyph glyph-name="Ncaron" unicode="&#x147;" horiz-adv-x="1343" 
d="M930 1413h272v-1413h-239l-551 874v-874h-273v1413h238l553 -887v887zM778 1509h-215l-282 291h272l117 -125l118 125h273z" />
    <glyph glyph-name="ncaron" unicode="&#x148;" horiz-adv-x="1077" 
d="M104 0v1024h256v-86q33 43 94.5 73.5t141.5 30.5q81 0 146.5 -20.5t118 -65.5t81.5 -125t29 -190v-641h-260v600q0 116 -41 166.5t-123 50.5q-89 0 -134.5 -56t-45.5 -159v-602h-263zM647 1163h-217l-221 291h233l97 -133l96 133h233z" />
    <glyph glyph-name="Omacron" unicode="&#x14c;" horiz-adv-x="1275" 
d="M1180 606q0 -312 -146.5 -468t-396.5 -156q-121 0 -218.5 37.5t-170.5 112t-112.5 195t-39.5 279.5v201q0 160 39.5 281t112.5 195.5t170.5 111.5t218.5 37q122 0 220 -37t171 -111.5t112.5 -195.5t39.5 -281v-201zM383 807v-201q0 -199 63.5 -291t190.5 -92t191.5 92.5
t64.5 290.5v201q0 198 -64.5 290.5t-191.5 92.5t-190.5 -92t-63.5 -291zM309 1524v229h660v-229h-660z" />
    <glyph glyph-name="omacron" unicode="&#x14d;" horiz-adv-x="1021" 
d="M952 575v-122q0 -220 -109 -345.5t-333 -125.5q-218 0 -330 125t-112 346v122q0 228 114.5 347.5t327.5 119.5q215 0 328.5 -119t113.5 -348zM510 203q100 0 141 68t41 190v106q0 126 -43.5 190t-138.5 64t-138.5 -64t-43.5 -190v-106q0 -59 8.5 -103t28 -80.5t56 -55.5
t89.5 -19zM221 1174v227h580v-227h-580z" />
    <glyph glyph-name="Ohungarumlaut" unicode="&#x150;" horiz-adv-x="1275" 
d="M1180 606q0 -312 -146.5 -468t-396.5 -156q-121 0 -218.5 37.5t-170.5 112t-112.5 195t-39.5 279.5v201q0 160 39.5 281t112.5 195.5t170.5 111.5t218.5 37q122 0 220 -37t171 -111.5t112.5 -195.5t39.5 -281v-201zM383 807v-201q0 -199 63.5 -291t190.5 -92t191.5 92.5
t64.5 290.5v201q0 198 -64.5 290.5t-191.5 92.5t-190.5 -92t-63.5 -291zM266 1520l164 264h303l-211 -264h-256zM684 1520l184 264h301l-231 -264h-254z" />
    <glyph glyph-name="ohungarumlaut" unicode="&#x151;" horiz-adv-x="1021" 
d="M952 575v-122q0 -220 -109 -345.5t-333 -125.5q-218 0 -330 125t-112 346v122q0 228 114.5 347.5t327.5 119.5q215 0 328.5 -119t113.5 -348zM510 203q100 0 141 68t41 190v106q0 126 -43.5 190t-138.5 64t-138.5 -64t-43.5 -190v-106q0 -59 8.5 -103t28 -80.5t56 -55.5
t89.5 -19zM539 1161l184 324h295l-227 -324h-252zM182 1161l144 324h292l-186 -324h-250z" />
    <glyph glyph-name="OE" unicode="&#x152;" horiz-adv-x="1835" 
d="M1774 1413v-244h-594v-317h532v-242h-532v-368h594v-242h-881v49q-98 -67 -256 -67q-121 0 -218.5 37.5t-170.5 112t-112.5 195t-39.5 279.5v201q0 160 39.5 281t112.5 195.5t170.5 111.5t218.5 37q156 0 256 -68v49h881zM383 807v-201q0 -199 63.5 -291t190.5 -92
q256 0 256 363v241q0 363 -256 363q-127 0 -190.5 -92t-63.5 -291z" />
    <glyph glyph-name="oe" unicode="&#x153;" horiz-adv-x="1619" 
d="M1327 291l195 -135q-54 -91 -141 -132.5t-238 -41.5q-202 0 -314 137q-105 -137 -319 -137q-213 0 -327.5 123t-114.5 339v140q0 219 114.5 338.5t327.5 119.5q209 0 313 -129q104 129 303 129q201 0 305.5 -122t104.5 -349v-129h-584q0 -239 193 -239q74 0 111.5 21
t70.5 67zM510 203q182 0 182 241v140q0 237 -182 237q-90 0 -136 -61t-46 -176v-140q0 -241 182 -241zM1114 821q-73 0 -113.5 -50t-48.5 -142h322q-5 95 -42.5 143.5t-117.5 48.5z" />
    <glyph glyph-name="Racute" unicode="&#x154;" horiz-adv-x="1263" 
d="M1225 0h-316l-254 555h-229v-555h-287v1413h506q249 0 389 -110.5t140 -321.5q0 -280 -242 -379zM426 797h192q137 0 203 39.5t66 144.5t-66.5 146.5t-202.5 41.5h-192v-372zM426 1520l164 264h301l-211 -264h-254z" />
    <glyph glyph-name="racute" unicode="&#x155;" horiz-adv-x="839" 
d="M860 883l-201 -144q-54 78 -129 78t-119 -55t-44 -160v-602h-263v1024h256v-86q71 104 224 104q184 0 276 -159zM279 1161l143 324h293l-187 -324h-249z" />
    <glyph glyph-name="Rcommaaccent" unicode="&#x156;" horiz-adv-x="1263" 
d="M1225 0h-316l-254 555h-229v-555h-287v1413h506q249 0 389 -110.5t140 -321.5q0 -280 -242 -379zM426 797h192q137 0 203 39.5t66 144.5t-66.5 146.5t-202.5 41.5h-192v-372zM797 -104v-265l-281 -239v504h281z" />
    <glyph glyph-name="rcommaaccent" unicode="&#x157;" horiz-adv-x="839" 
d="M860 883l-201 -144q-54 78 -129 78t-119 -55t-44 -160v-602h-263v1024h256v-86q71 104 224 104q184 0 276 -159zM379 -104v-265l-281 -239v504h281z" />
    <glyph glyph-name="Rcaron" unicode="&#x158;" horiz-adv-x="1263" 
d="M1225 0h-316l-254 555h-229v-555h-287v1413h506q249 0 389 -110.5t140 -321.5q0 -280 -242 -379zM426 797h192q137 0 203 39.5t66 144.5t-66.5 146.5t-202.5 41.5h-192v-372zM727 1509h-215l-283 291h273l116 -125l119 125h273z" />
    <glyph glyph-name="rcaron" unicode="&#x159;" horiz-adv-x="839" 
d="M860 883l-201 -144q-54 78 -129 78t-119 -55t-44 -160v-602h-263v1024h256v-86q71 104 224 104q184 0 276 -159zM584 1163h-217l-222 291h234l96 -133l96 133h234z" />
    <glyph glyph-name="Sacute" unicode="&#x15a;" horiz-adv-x="1177" 
d="M1090 1200l-216 -153q-47 75 -110.5 109t-167.5 34q-96 0 -147.5 -41.5t-51.5 -114.5q0 -80 65 -125t214 -82q228 -57 328 -154t100 -280q0 -182 -124.5 -296.5t-363.5 -114.5q-189 0 -320 55t-224 176l219 152q59 -73 130.5 -107.5t176.5 -34.5q115 0 167 43.5t52 114.5
q0 76 -61 123t-228 90q-212 56 -314.5 162t-102.5 278q0 85 29 156.5t86 126t151 85t217 30.5q347 0 496 -232zM440 1520l164 264h301l-211 -264h-254z" />
    <glyph glyph-name="sacute" unicode="&#x15b;" horiz-adv-x="950" 
d="M858 872l-192 -137q-37 43 -80 62.5t-121 19.5q-56 0 -92.5 -19.5t-36.5 -60.5q0 -44 38.5 -65.5t125.5 -34.5q194 -30 286.5 -109.5t92.5 -228.5q0 -150 -103.5 -233.5t-298.5 -83.5q-157 0 -257.5 40.5t-166.5 129.5l201 143q34 -45 81.5 -66.5t137.5 -21.5
q68 0 106.5 22t38.5 62q0 46 -37 67.5t-137 36.5q-368 60 -368 332q0 148 102.5 231.5t292.5 83.5q136 0 233 -38.5t154 -131.5zM315 1161l144 324h293l-187 -324h-250z" />
    <glyph glyph-name="Scircumflex" unicode="&#x15c;" horiz-adv-x="1177" 
d="M1090 1200l-216 -153q-47 75 -110.5 109t-167.5 34q-96 0 -147.5 -41.5t-51.5 -114.5q0 -80 65 -125t214 -82q228 -57 328 -154t100 -280q0 -182 -124.5 -296.5t-363.5 -114.5q-189 0 -320 55t-224 176l219 152q59 -73 130.5 -107.5t176.5 -34.5q115 0 167 43.5t52 114.5
q0 76 -61 123t-228 90q-212 56 -314.5 162t-102.5 278q0 85 29 156.5t86 126t151 85t217 30.5q347 0 496 -232zM496 1800h215l282 -291h-272l-119 125l-117 -125h-272z" />
    <glyph glyph-name="scircumflex" unicode="&#x15d;" horiz-adv-x="950" 
d="M858 872l-192 -137q-37 43 -80 62.5t-121 19.5q-56 0 -92.5 -19.5t-36.5 -60.5q0 -44 38.5 -65.5t125.5 -34.5q194 -30 286.5 -109.5t92.5 -228.5q0 -150 -103.5 -233.5t-298.5 -83.5q-157 0 -257.5 40.5t-166.5 129.5l201 143q34 -45 81.5 -66.5t137.5 -21.5
q68 0 106.5 22t38.5 62q0 46 -37 67.5t-137 36.5q-368 60 -368 332q0 148 102.5 231.5t292.5 83.5q136 0 233 -38.5t154 -131.5zM360 1454h218l221 -291h-234l-96 133l-96 -133h-234z" />
    <glyph glyph-name="Scedilla" unicode="&#x15e;" horiz-adv-x="1177" 
d="M494 -147l26 133q-150 12 -258.5 66.5t-189.5 160.5l219 152q59 -73 130.5 -107.5t176.5 -34.5q115 0 167 43.5t52 114.5q0 76 -61 123t-228 90q-212 56 -314.5 162t-102.5 278q0 85 29 156.5t86 126t151 85t217 30.5q347 0 496 -232l-216 -153q-47 75 -110.5 109
t-167.5 34q-96 0 -147.5 -41.5t-51.5 -114.5q0 -80 65 -125t214 -82q228 -57 328 -154t100 -280q0 -168 -107 -279t-313 -128l-8 -31q108 -42 108 -148q0 -82 -67.5 -129t-175.5 -47q-59 0 -95 9l31 133q24 -4 39 -4q68 0 68 43q0 41 -90 41z" />
    <glyph glyph-name="scedilla" unicode="&#x15f;" horiz-adv-x="950" 
d="M373 -147l26 131q-123 9 -206 49.5t-140 118.5l201 143q34 -45 81.5 -66.5t137.5 -21.5q68 0 106.5 22t38.5 62q0 46 -37 67.5t-137 36.5q-368 60 -368 332q0 148 102.5 231.5t292.5 83.5q136 0 233 -38.5t154 -131.5l-192 -137q-37 43 -80 62.5t-121 19.5
q-56 0 -92.5 -19.5t-36.5 -60.5q0 -44 38.5 -65.5t125.5 -34.5q194 -30 286.5 -109.5t92.5 -228.5q0 -132 -81 -214t-235 -99l-8 -31q107 -42 107 -148q0 -82 -67 -129t-175 -47q-58 0 -94 9l30 133q24 -4 39 -4q68 0 68 43q0 41 -90 41z" />
    <glyph glyph-name="Scaron" unicode="&#x160;" horiz-adv-x="1177" 
d="M1090 1200l-216 -153q-47 75 -110.5 109t-167.5 34q-96 0 -147.5 -41.5t-51.5 -114.5q0 -80 65 -125t214 -82q228 -57 328 -154t100 -280q0 -182 -124.5 -296.5t-363.5 -114.5q-189 0 -320 55t-224 176l219 152q59 -73 130.5 -107.5t176.5 -34.5q115 0 167 43.5t52 114.5
q0 76 -61 123t-228 90q-212 56 -314.5 162t-102.5 278q0 85 29 156.5t86 126t151 85t217 30.5q347 0 496 -232zM696 1509h-215l-282 291h272l117 -125l119 125h272z" />
    <glyph glyph-name="scaron" unicode="&#x161;" horiz-adv-x="950" 
d="M858 872l-192 -137q-37 43 -80 62.5t-121 19.5q-56 0 -92.5 -19.5t-36.5 -60.5q0 -44 38.5 -65.5t125.5 -34.5q194 -30 286.5 -109.5t92.5 -228.5q0 -150 -103.5 -233.5t-298.5 -83.5q-157 0 -257.5 40.5t-166.5 129.5l201 143q34 -45 81.5 -66.5t137.5 -21.5
q68 0 106.5 22t38.5 62q0 46 -37 67.5t-137 36.5q-368 60 -368 332q0 148 102.5 231.5t292.5 83.5q136 0 233 -38.5t154 -131.5zM578 1163h-218l-221 291h234l96 -133l96 133h234z" />
    <glyph glyph-name="Tcedilla" unicode="&#x162;" horiz-adv-x="1097" 
d="M432 -147l31 147h-57v1169h-390v244h1065v-244h-389v-1169h-65l-13 -45q109 -42 109 -148q0 -82 -68 -129t-176 -47q-58 0 -94 9l31 133q24 -4 39 -4q67 0 67 43q0 41 -90 41z" />
    <glyph glyph-name="tcedilla" unicode="&#x163;" horiz-adv-x="677" 
d="M319 -147l33 161q-102 23 -147 97t-45 223v469h-131v221h131v225h260v-225h201v-221h-201v-428q0 -80 24 -113t93 -33h84v-229h-107l-12 -45q106 -42 106 -148q0 -82 -66.5 -129t-174.5 -47q-59 0 -95 9l31 133q24 -4 39 -4q68 0 68 43q0 41 -91 41z" />
    <glyph glyph-name="Tcaron" unicode="&#x164;" horiz-adv-x="1097" 
d="M16 1413h1065v-244h-389v-1169h-286v1169h-390v244zM657 1509h-215l-282 291h272l117 -125l119 125h272z" />
    <glyph glyph-name="tcaron" unicode="&#x165;" horiz-adv-x="751" 
d="M29 803v221h131v225h260v-225h201v-221h-201v-428q0 -80 24 -113t93 -33h84v-229h-111q-97 0 -160 15t-107.5 53t-63.5 102.5t-19 163.5v469h-131zM940 1411v-264l-281 -240v504h281z" />
    <glyph glyph-name="Umacron" unicode="&#x16a;" horiz-adv-x="1363" 
d="M938 1413h287v-840q0 -153 -40.5 -268t-114 -185t-171 -104t-217.5 -34t-217.5 34t-171 103.5t-114 184.5t-40.5 267v842h287v-842q0 -181 62 -264.5t194 -83.5t194 83.5t62 264.5v842zM352 1524v229h660v-229h-660z" />
    <glyph glyph-name="umacron" unicode="&#x16b;" horiz-adv-x="1077" 
d="M971 1024v-1024h-256v86q-34 -55 -85.5 -79.5t-148.5 -24.5q-81 0 -147 21t-119 67t-82 126t-29 189v639h263v-600q0 -118 40 -167.5t125 -49.5q179 0 179 215v602h260zM250 1174v227h579v-227h-579z" />
    <glyph glyph-name="Ubreve" unicode="&#x16c;" horiz-adv-x="1363" 
d="M938 1413h287v-840q0 -153 -40.5 -268t-114 -185t-171 -104t-217.5 -34t-217.5 34t-171 103.5t-114 184.5t-40.5 267v842h287v-842q0 -181 62 -264.5t194 -83.5t194 83.5t62 264.5v842zM846 1800h229q0 -149 -108 -230t-283 -81t-283 81t-108 230h227q11 -54 49.5 -82
t114.5 -28q78 0 115 28t47 82z" />
    <glyph glyph-name="ubreve" unicode="&#x16d;" horiz-adv-x="1077" 
d="M971 1024v-1024h-256v86q-34 -55 -85.5 -79.5t-148.5 -24.5q-81 0 -147 21t-119 67t-82 126t-29 189v639h263v-600q0 -118 40 -167.5t125 -49.5q179 0 179 215v602h260zM655 1413h189q-4 -130 -84.5 -200t-220.5 -70q-141 0 -222.5 70.5t-85.5 199.5h191q6 -53 33 -80.5
t84 -27.5t83.5 27.5t32.5 80.5z" />
    <glyph glyph-name="Uring" unicode="&#x16e;" horiz-adv-x="1363" 
d="M938 1413h287v-840q0 -153 -40.5 -268t-114 -185t-171 -104t-217.5 -34t-217.5 34t-171 103.5t-114 184.5t-40.5 267v842h287v-842q0 -181 62 -264.5t194 -83.5t194 83.5t62 264.5v842zM446 1638q0 92 66.5 147.5t169.5 55.5q106 0 173 -55.5t67 -147.5q0 -91 -67 -145.5
t-173 -54.5q-103 0 -169.5 54.5t-66.5 145.5zM608 1638q0 -30 20 -46.5t54 -16.5q76 0 76 63q0 64 -76 64q-74 0 -74 -64z" />
    <glyph glyph-name="uring" unicode="&#x16f;" horiz-adv-x="1077" 
d="M971 1024v-1024h-256v86q-34 -55 -85.5 -79.5t-148.5 -24.5q-81 0 -147 21t-119 67t-82 126t-29 189v639h263v-600q0 -118 40 -167.5t125 -49.5q179 0 179 215v602h260zM287 1323q0 99 69.5 162t182.5 63t182.5 -63t69.5 -162q0 -98 -69.5 -160.5t-182.5 -62.5
t-182.5 62.5t-69.5 160.5zM463 1323q0 -41 20.5 -65.5t55.5 -24.5q36 0 55.5 24t19.5 66q0 88 -75 88q-36 0 -56 -23t-20 -65z" />
    <glyph glyph-name="Uhungarumlaut" unicode="&#x170;" horiz-adv-x="1363" 
d="M938 1413h287v-840q0 -153 -40.5 -268t-114 -185t-171 -104t-217.5 -34t-217.5 34t-171 103.5t-114 184.5t-40.5 267v842h287v-842q0 -181 62 -264.5t194 -83.5t194 83.5t62 264.5v842zM326 1520l163 264h304l-211 -264h-256zM743 1520l185 264h301l-232 -264h-254z" />
    <glyph glyph-name="uhungarumlaut" unicode="&#x171;" horiz-adv-x="1077" 
d="M971 1024v-1024h-256v86q-34 -55 -85.5 -79.5t-148.5 -24.5q-81 0 -147 21t-119 67t-82 126t-29 189v639h263v-600q0 -118 40 -167.5t125 -49.5q179 0 179 215v602h260zM582 1161l184 324h295l-227 -324h-252zM225 1161l144 324h293l-187 -324h-250z" />
    <glyph glyph-name="Uogonek" unicode="&#x172;" horiz-adv-x="1363" 
d="M938 1413h287v-840q0 -263 -113.5 -406.5t-310.5 -174.5q-30 -28 -44.5 -42.5t-26 -35t-11.5 -39.5q0 -45 55 -45q19 0 39 4l31 -133q-32 -8 -99 -8q-91 0 -158 37.5t-67 117.5q0 77 60 140q-205 28 -323 172.5t-118 410.5v842h287v-842q0 -181 62 -264.5t194 -83.5
t194 83.5t62 264.5v842z" />
    <glyph glyph-name="uogonek" unicode="&#x173;" horiz-adv-x="1077" 
d="M971 1024v-1018l2 -6q-35 -31 -50 -46t-28.5 -37t-13.5 -42q0 -45 55 -45q19 0 39 4l31 -133q-32 -8 -99 -8q-91 0 -158 37.5t-67 117.5q0 86 72 152h-39v86q-34 -55 -85.5 -79.5t-148.5 -24.5q-81 0 -147 21t-119 67t-82 126t-29 189v639h263v-600q0 -118 40 -167.5
t125 -49.5q179 0 179 215v602h260z" />
    <glyph glyph-name="Ydieresis" unicode="&#x178;" horiz-adv-x="1193" 
d="M12 1413h332l252 -526l254 526h330l-441 -835v-578h-286v578zM262 1540v240h254v-240h-254zM678 1540v240h254v-240h-254z" />
    <glyph glyph-name="Zacute" unicode="&#x179;" horiz-adv-x="1062" 
d="M61 1413h934v-188l-569 -983h590v-242h-955v188l574 981h-574v244zM385 1520l164 264h301l-211 -264h-254z" />
    <glyph glyph-name="zacute" unicode="&#x17a;" horiz-adv-x="919" 
d="M61 182l451 621h-444v221h782v-182l-444 -621h458v-221h-803v182zM334 1161l143 324h293l-186 -324h-250z" />
    <glyph glyph-name="Zdotaccent" unicode="&#x17b;" horiz-adv-x="1062" 
d="M61 1413h934v-188l-569 -983h590v-242h-955v188l574 981h-574v244zM399 1554v226h289v-226h-289z" />
    <glyph glyph-name="zdotaccent" unicode="&#x17c;" horiz-adv-x="919" 
d="M61 182l451 621h-444v221h782v-182l-444 -621h458v-221h-803v182zM334 1159v254h282v-254h-282z" />
    <glyph glyph-name="Zcaron" unicode="&#x17d;" horiz-adv-x="1062" 
d="M61 1413h934v-188l-569 -983h590v-242h-955v188l574 981h-574v244zM651 1509h-215l-282 291h272l117 -125l119 125h272z" />
    <glyph glyph-name="zcaron" unicode="&#x17e;" horiz-adv-x="919" 
d="M61 182l451 621h-444v221h782v-182l-444 -621h458v-221h-803v182zM590 1163h-217l-221 291h233l96 -133l97 133h233z" />
    <glyph glyph-name="uni018F" unicode="&#x18f;" horiz-adv-x="1232" 
d="M96 606v150h774v51q0 199 -63.5 291t-190.5 92q-102 0 -162.5 -57t-78.5 -158h-275q31 219 163 338t353 119q122 0 219 -37.5t170 -113.5t112.5 -201.5t39.5 -293.5v-180q0 -159 -39.5 -279.5t-112.5 -195t-170.5 -112t-218.5 -37.5q-247 0 -383.5 154.5t-136.5 469.5z
M616 223q113 0 175 67.5t75 221.5h-495q9 -144 66 -216.5t179 -72.5z" />
    <glyph glyph-name="florin" unicode="&#x192;" horiz-adv-x="1105" 
d="M248 1024h131v55q0 98 22 163.5t70 103t114 52.5t163 15h75v-244h-43q-69 0 -95 -31.5t-26 -103.5v-10h164v-244h-164v-835q0 -97 -26 -162.5t-81 -103t-129 -53t-181 -15.5v244q79 0 108 33.5t29 109.5v782h-131v244z" />
    <glyph glyph-name="uni01DD" unicode="&#x1dd;" 
d="M293 733l-195 135q53 92 143.5 133t231.5 41q222 0 338.5 -127.5t116.5 -334.5v-140q0 -228 -109.5 -343t-312.5 -115q-422 0 -422 479v117h584q-3 243 -193 243q-76 0 -112.5 -20.5t-69.5 -67.5zM504 203q148 0 164 188h-322q4 -98 43.5 -143t114.5 -45z" />
    <glyph glyph-name="Scommaaccent" unicode="&#x218;" horiz-adv-x="1177" 
d="M1090 1200l-216 -153q-47 75 -110.5 109t-167.5 34q-96 0 -147.5 -41.5t-51.5 -114.5q0 -80 65 -125t214 -82q228 -57 328 -154t100 -280q0 -182 -124.5 -296.5t-363.5 -114.5q-189 0 -320 55t-224 176l219 152q59 -73 130.5 -107.5t176.5 -34.5q115 0 167 43.5t52 114.5
q0 76 -61 123t-228 90q-212 56 -314.5 162t-102.5 278q0 85 29 156.5t86 126t151 85t217 30.5q347 0 496 -232zM762 -104v-265l-281 -239v504h281z" />
    <glyph glyph-name="scommaaccent" unicode="&#x219;" horiz-adv-x="950" 
d="M858 872l-192 -137q-37 43 -80 62.5t-121 19.5q-56 0 -92.5 -19.5t-36.5 -60.5q0 -44 38.5 -65.5t125.5 -34.5q194 -30 286.5 -109.5t92.5 -228.5q0 -150 -103.5 -233.5t-298.5 -83.5q-157 0 -257.5 40.5t-166.5 129.5l201 143q34 -45 81.5 -66.5t137.5 -21.5
q68 0 106.5 22t38.5 62q0 46 -37 67.5t-137 36.5q-368 60 -368 332q0 148 102.5 231.5t292.5 83.5q136 0 233 -38.5t154 -131.5zM627 -104v-265l-281 -239v504h281z" />
    <glyph glyph-name="Tcommaaccent" unicode="&#x21a;" horiz-adv-x="1097" 
d="M16 1413h1065v-244h-389v-1169h-286v1169h-390v244zM690 -104v-265l-280 -239v504h280z" />
    <glyph glyph-name="tcommaaccent" unicode="&#x21b;" horiz-adv-x="677" 
d="M29 803v221h131v225h260v-225h201v-221h-201v-428q0 -80 24 -113t93 -33h84v-229h-111q-97 0 -160 15t-107.5 53t-63.5 102.5t-19 163.5v469h-131zM541 -104v-265l-281 -239v504h281z" />
    <glyph glyph-name="uni0237" unicode="&#x237;" horiz-adv-x="514" 
d="M397 1024v-1079q0 -98 -23 -162.5t-74 -102.5t-122.5 -53.5t-177.5 -15.5v225q78 0 107.5 35t29.5 111v1042h260z" />
    <glyph glyph-name="uni0259" unicode="&#x259;" 
d="M293 733l-195 135q53 92 143.5 133t231.5 41q222 0 338.5 -127.5t116.5 -334.5v-140q0 -228 -109.5 -343t-312.5 -115q-422 0 -422 479v117h584q-3 243 -193 243q-76 0 -112.5 -20.5t-69.5 -67.5zM504 203q148 0 164 188h-322q4 -98 43.5 -143t114.5 -45z" />
    <glyph glyph-name="uni02B3" unicode="&#x2b3;" horiz-adv-x="641" 
d="M485 1223q-31 49 -79 49q-49 0 -77 -34.5t-28 -100.5v-371h-174v647h170v-63q47 75 141 75q122 0 183 -102z" />
    <glyph glyph-name="afii57929" unicode="&#x2bc;" horiz-adv-x="378" 
d="M350 1024v-299l-278 -240v539h278z" />
    <glyph glyph-name="circumflex" unicode="&#x2c6;" horiz-adv-x="847" 
d="M315 1454h217l222 -291h-234l-96 133l-96 -133h-234z" />
    <glyph glyph-name="caron" unicode="&#x2c7;" horiz-adv-x="847" 
d="M532 1163h-217l-221 291h234l96 -133l96 133h234z" />
    <glyph glyph-name="breve" unicode="&#x2d8;" horiz-adv-x="843" 
d="M539 1413h188q-4 -130 -84.5 -200t-220.5 -70q-141 0 -222 70t-85 200h190q6 -53 33 -80.5t84 -27.5t84 27.5t33 80.5z" />
    <glyph glyph-name="dotaccent" unicode="&#x2d9;" horiz-adv-x="673" 
d="M195 1159v254h282v-254h-282z" />
    <glyph glyph-name="ring" unicode="&#x2da;" horiz-adv-x="790" 
d="M143 1323q0 99 69.5 162t182.5 63t182.5 -63t69.5 -162q0 -98 -69.5 -160.5t-182.5 -62.5t-182.5 62.5t-69.5 160.5zM319 1323q0 -41 20.5 -65.5t55.5 -24.5q36 0 56 24t20 66q0 88 -76 88q-36 0 -56 -23t-20 -65z" />
    <glyph glyph-name="ogonek" unicode="&#x2db;" horiz-adv-x="702" 
d="M440 113l39 -113q-35 -31 -50 -46t-28.5 -37t-13.5 -42q0 -45 55 -45q19 0 39 4l31 -133q-32 -8 -98 -8q-91 0 -158.5 37.5t-67.5 117.5q0 82 63 143.5t189 121.5z" />
    <glyph glyph-name="tilde" unicode="&#x2dc;" horiz-adv-x="894" 
d="M571 1165q-55 0 -131 30t-108 30q-62 0 -109 -56l-137 131q45 57 109 91t131 34q49 0 126 -29.5t113 -29.5q56 0 105 55l137 -131q-44 -57 -107 -91t-129 -34z" />
    <glyph glyph-name="hungarumlaut" unicode="&#x2dd;" horiz-adv-x="1034" 
d="M455 1161l184 324h295l-227 -324h-252zM98 1161l144 324h293l-187 -324h-250z" />
    <glyph glyph-name="uni02E2" unicode="&#x2e2;" horiz-adv-x="661" 
d="M438 1225q-24 27 -50.5 39t-74.5 12q-80 0 -80 -47q0 -27 24.5 -40.5t76.5 -21.5q124 -19 182.5 -68t58.5 -141q0 -94 -64.5 -146t-188.5 -52q-100 0 -164 25t-107 81l131 92q20 -27 50 -40t85 -13q91 0 91 47q0 29 -23 43t-84 23q-235 34 -235 205q0 92 65 144t186 52
q180 0 246 -106z" />
    <glyph glyph-name="acutecomb" unicode="&#x301;" horiz-adv-x="0" 
d="M-643 1161l143 324h293l-186 -324h-250z" />
    <glyph glyph-name="uni0394" unicode="&#x2206;" horiz-adv-x="1208" 
d="M1167 0h-1126l414 1413h299zM807 242l-203 796l-205 -796h408z" />
    <glyph glyph-name="uni0394" unicode="&#x394;" horiz-adv-x="1208" 
d="M1167 0h-1126l414 1413h299zM807 242l-203 796l-205 -796h408z" />
    <glyph glyph-name="uni03A9" unicode="&#x2126;" horiz-adv-x="1288" 
d="M1057 242h131v-242h-436v242q52 29 82.5 67t48.5 113t18 192v193q0 198 -64.5 290.5t-191.5 92.5t-191.5 -92.5t-64.5 -290.5v-193q0 -171 35.5 -252t112.5 -120v-242h-435v242h131q-69 71 -100 153t-31 219v193q0 160 39.5 281t112.5 195.5t171 111.5t220 37
q121 0 219 -37t171 -111.5t113 -195.5t40 -281v-193q0 -136 -31 -218t-100 -154z" />
    <glyph glyph-name="uni03A9" unicode="&#x3a9;" horiz-adv-x="1288" 
d="M1057 242h131v-242h-436v242q52 29 82.5 67t48.5 113t18 192v193q0 198 -64.5 290.5t-191.5 92.5t-191.5 -92.5t-64.5 -290.5v-193q0 -171 35.5 -252t112.5 -120v-242h-435v242h131q-69 71 -100 153t-31 219v193q0 160 39.5 281t112.5 195.5t171 111.5t220 37
q121 0 219 -37t171 -111.5t113 -195.5t40 -281v-193q0 -136 -31 -218t-100 -154z" />
    <glyph glyph-name="pi" unicode="&#x3c0;" horiz-adv-x="1157" 
d="M696 328v475h-323v-803h-248v803h-152v221h1127v-221h-144v-416q0 -86 31.5 -124t112.5 -38v-225q-215 0 -309.5 71t-94.5 257z" />
    <glyph glyph-name="afii10023" unicode="&#x401;" horiz-adv-x="1079" 
d="M139 1413h881v-244h-594v-317h532v-242h-532v-368h594v-242h-881v1413zM244 1540v240h254v-240h-254zM659 1540v240h254v-240h-254z" />
    <glyph glyph-name="afii10051" unicode="&#x402;" horiz-adv-x="1488" 
d="M-4 1413h1065v-244h-389v-381q39 35 121 66t180 31q229 0 334.5 -108t105.5 -331v-124q0 -62 -13.5 -111.5t-34.5 -83t-54 -57.5t-65.5 -37.5t-77 -21t-79.5 -9.5t-81 -2h-47v229h47q64 0 91 32t27 101v66q0 118 -53 165.5t-168 47.5q-150 0 -233 -111v-530h-287v1169
h-389v244z" />
    <glyph glyph-name="afii10052" unicode="&#x403;" horiz-adv-x="1005" 
d="M1006 1413v-244h-580v-1169h-287v1413h867zM418 1520l164 264h301l-211 -264h-254z" />
    <glyph glyph-name="afii10053" unicode="&#x404;" horiz-adv-x="1198" 
d="M1147 975h-275q-19 103 -79 159t-162 56q-124 0 -188.5 -87t-67.5 -272h426v-241h-426q3 -187 66.5 -277t189.5 -90q104 0 161.5 53t79.5 162h275q-70 -456 -516 -456q-250 0 -396.5 156t-146.5 468v201q0 160 39.5 281t112.5 195.5t171 111.5t220 37q215 0 348 -114.5
t168 -342.5z" />
    <glyph glyph-name="afii10054" unicode="&#x405;" horiz-adv-x="1177" 
d="M1090 1200l-216 -153q-47 75 -110.5 109t-167.5 34q-96 0 -147.5 -41.5t-51.5 -114.5q0 -80 65 -125t214 -82q228 -57 328 -154t100 -280q0 -182 -124.5 -296.5t-363.5 -114.5q-189 0 -320 55t-224 176l219 152q59 -73 130.5 -107.5t176.5 -34.5q115 0 167 43.5t52 114.5
q0 76 -61 123t-228 90q-212 56 -314.5 162t-102.5 278q0 85 29 156.5t86 126t151 85t217 30.5q347 0 496 -232z" />
    <glyph glyph-name="afii10055" unicode="&#x406;" horiz-adv-x="606" 
d="M446 1413v-1413h-286v1413h286zM160 1554v226h289v-226h-289z" />
    <glyph glyph-name="afii10056" unicode="&#x407;" horiz-adv-x="606" 
d="M446 1413v-1413h-286v1413h286zM-31 1540v240h254v-240h-254zM385 1540v240h254v-240h-254z" />
    <glyph glyph-name="afii10057" unicode="&#x408;" horiz-adv-x="1048" 
d="M-18 193l237 133q34 -48 84.5 -75.5t108.5 -27.5q108 0 159.5 71.5t51.5 248.5v870h286v-870q0 -295 -123 -428t-356 -133q-300 0 -448 211z" />
    <glyph glyph-name="afii10058" unicode="&#x409;" horiz-adv-x="2000" 
d="M254 1413h946v-518h217q137 0 241 -35t165.5 -97t92 -141.5t30.5 -175.5q0 -94 -30.5 -173t-92 -141t-165.5 -97t-241 -35h-504v1169h-372v-155q0 -341 -15 -494.5t-55 -255.5q-93 -243 -444 -282v299q144 27 184 131q25 65 34 197.5t9 404.5v399zM1403 653h-203v-411
h203q256 0 256 204q0 207 -256 207z" />
    <glyph glyph-name="afii10059" unicode="&#x40a;" horiz-adv-x="2004" 
d="M426 1413v-561h489v561h287v-518h219q137 0 241 -35t165.5 -97t92 -141.5t30.5 -175.5q0 -94 -30.5 -173t-92 -141t-165.5 -97t-241 -35h-506v610h-489v-610h-287v1413h287zM1405 653h-203v-411h203q258 0 258 204q0 207 -258 207z" />
    <glyph glyph-name="afii10060" unicode="&#x40b;" horiz-adv-x="1509" 
d="M16 1413h1065v-244h-389v-381q39 35 121 66t180 31q229 0 335 -108t106 -331v-446h-287v428q0 118 -53 165.5t-168 47.5q-151 0 -234 -111v-530h-286v1169h-390v244z" />
    <glyph glyph-name="afii10061" unicode="&#x40c;" horiz-adv-x="1275" 
d="M1249 0h-340l-362 590h-121v-590h-287v1413h287v-582h115l323 582h316l-381 -684zM475 1520l164 264h301l-211 -264h-254z" />
    <glyph glyph-name="afii10062" unicode="&#x40e;" horiz-adv-x="1185" 
d="M891 1413h295l-434 -1126q-69 -178 -180 -241.5t-330 -63.5v249q113 0 169 21.5t89 83.5l-484 1077h318l303 -704zM735 1800h262q0 -155 -95.5 -232t-293.5 -77q-391 0 -391 309h264q0 -62 28 -94.5t99 -32.5t99 32.5t28 94.5z" />
    <glyph glyph-name="afii10145" unicode="&#x40f;" horiz-adv-x="1306" 
d="M811 -266h-258v266h-414v1413h287v-1171h512v1171h287v-1413h-414v-266z" />
    <glyph glyph-name="afii10017" unicode="&#x410;" horiz-adv-x="1243" 
d="M299 0h-307l491 1413h275l491 -1413h-305l-86 268h-473zM621 1008l-160 -498h319z" />
    <glyph glyph-name="afii10018" unicode="&#x411;" horiz-adv-x="1220" 
d="M1069 1413v-244h-643v-274h219q137 0 240.5 -34.5t165.5 -96.5t92.5 -141t30.5 -174t-30.5 -174.5t-92.5 -142t-166 -97.5t-240 -35h-506v1413h930zM629 653h-203v-411h203q258 0 258 207q0 204 -258 204z" />
    <glyph glyph-name="afii10019" unicode="&#x412;" horiz-adv-x="1241" 
d="M139 1413h473q516 0 516 -371q0 -106 -49 -182t-137 -119q232 -85 232 -335q0 -85 -29 -156.5t-89 -128.5t-162 -89t-237 -32h-518v1413zM426 612v-370h207q254 0 254 186q0 98 -67 141t-214 43h-180zM426 1171v-317h190q226 0 226 162q0 52 -20 84.5t-77.5 51.5
t-158.5 19h-160z" />
    <glyph glyph-name="afii10020" unicode="&#x413;" horiz-adv-x="1005" 
d="M1006 1413v-244h-580v-1169h-287v1413h867z" />
    <glyph glyph-name="afii10021" unicode="&#x414;" horiz-adv-x="1427" 
d="M279 -266h-259v508h91q51 57 92 172q33 107 48 241.5t15 378.5v379h944v-1171h176v-508h-258v266h-849v-266zM467 319q-7 -19 -39 -77h496v927h-371v-135q0 -279 -20.5 -433.5t-65.5 -281.5z" />
    <glyph glyph-name="afii10022" unicode="&#x415;" horiz-adv-x="1079" 
d="M139 1413h881v-244h-594v-317h532v-242h-532v-368h594v-242h-881v1413z" />
    <glyph glyph-name="afii10024" unicode="&#x416;" horiz-adv-x="1859" 
d="M328 0h-322l422 713l-352 700h303l287 -582h120v582h287v-582h119l289 582h303l-352 -700l421 -713h-321l-346 590h-113v-590h-287v590h-112z" />
    <glyph glyph-name="afii10025" unicode="&#x417;" horiz-adv-x="1212" 
d="M434 612v242h154q225 0 225 172q0 166 -211 166q-108 0 -164.5 -44t-87.5 -128h-252q12 124 84.5 218.5t184.5 144t245 49.5q98 0 185 -24t155.5 -70t108 -119.5t39.5 -165.5q0 -201 -185 -310q107 -44 168.5 -130t61.5 -207q0 -194 -142 -309t-393 -115q-230 0 -372 106
t-183 322h275q39 -98 101.5 -142.5t168.5 -44.5q258 0 258 195q0 194 -274 194h-150z" />
    <glyph glyph-name="afii10026" unicode="&#x418;" horiz-adv-x="1384" 
d="M139 1413h287v-887l590 887h229v-1413h-287v877l-583 -877h-236v1413z" />
    <glyph glyph-name="afii10027" unicode="&#x419;" horiz-adv-x="1384" 
d="M139 1413h287v-887l590 887h229v-1413h-287v877l-583 -877h-236v1413zM836 1800h262q0 -155 -95.5 -232t-293.5 -77q-392 0 -392 309h265q0 -62 28 -94.5t99 -32.5t99 32.5t28 94.5z" />
    <glyph glyph-name="afii10028" unicode="&#x41a;" horiz-adv-x="1275" 
d="M1249 0h-340l-362 590h-121v-590h-287v1413h287v-582h115l323 582h316l-381 -684z" />
    <glyph glyph-name="afii10029" unicode="&#x41b;" horiz-adv-x="1339" 
d="M254 1413h946v-1413h-287v1169h-372v-155q0 -341 -15 -494.5t-55 -255.5q-93 -243 -444 -282v299q144 27 184 131q25 65 34 197.5t9 404.5v399z" />
    <glyph glyph-name="afii10030" unicode="&#x41c;" horiz-adv-x="1609" 
d="M408 1413l397 -770l393 770h272v-1413h-274v877l-307 -623h-174l-303 616v-870h-273v1413h269z" />
    <glyph glyph-name="afii10031" unicode="&#x41d;" horiz-adv-x="1343" 
d="M426 1413v-561h489v561h287v-1413h-287v610h-489v-610h-287v1413h287z" />
    <glyph glyph-name="afii10032" unicode="&#x41e;" horiz-adv-x="1275" 
d="M1180 606q0 -312 -146.5 -468t-396.5 -156q-121 0 -218.5 37.5t-170.5 112t-112.5 195t-39.5 279.5v201q0 160 39.5 281t112.5 195.5t170.5 111.5t218.5 37q122 0 220 -37t171 -111.5t112.5 -195.5t39.5 -281v-201zM383 807v-201q0 -199 63.5 -291t190.5 -92t191.5 92.5
t64.5 290.5v201q0 198 -64.5 290.5t-191.5 92.5t-190.5 -92t-63.5 -291z" />
    <glyph glyph-name="afii10033" unicode="&#x41f;" horiz-adv-x="1363" 
d="M139 1413h1086v-1413h-287v1169h-512v-1169h-287v1413z" />
    <glyph glyph-name="afii10034" unicode="&#x420;" horiz-adv-x="1208" 
d="M645 498h-219v-498h-287v1413h506q250 0 389.5 -114.5t139.5 -337.5q0 -222 -140 -342.5t-389 -120.5zM426 739h178q148 0 215.5 53.5t67.5 168.5q0 103 -68.5 155.5t-214.5 52.5h-178v-430z" />
    <glyph glyph-name="afii10035" unicode="&#x421;" horiz-adv-x="1216" 
d="M1155 975h-274q-44 215 -244 215q-127 0 -190.5 -92t-63.5 -291v-201q0 -383 254 -383q105 0 162.5 52.5t81.5 162.5h272q-35 -234 -164.5 -345t-351.5 -111q-121 0 -218.5 37.5t-170.5 112t-112.5 195t-39.5 279.5v201q0 160 39.5 281t112.5 195.5t170.5 111.5t218.5 37
q215 0 349 -114.5t169 -342.5z" />
    <glyph glyph-name="afii10036" unicode="&#x422;" horiz-adv-x="1097" 
d="M16 1413h1065v-244h-389v-1169h-286v1169h-390v244z" />
    <glyph glyph-name="afii10037" unicode="&#x423;" horiz-adv-x="1185" 
d="M891 1413h295l-434 -1126q-69 -178 -180 -241.5t-330 -63.5v249q113 0 169 21.5t89 83.5l-484 1077h318l303 -704z" />
    <glyph glyph-name="afii10038" unicode="&#x424;" horiz-adv-x="1609" 
d="M662 1311v102h286v-102q102 0 186 -17.5t157.5 -58.5t123.5 -106t78.5 -163.5t28.5 -226.5v-65q0 -128 -28.5 -226.5t-78.5 -163.5t-123.5 -106t-157.5 -58.5t-186 -17.5v-102h-286v102q-102 0 -186 17.5t-157.5 58.5t-123.5 106t-78.5 163.5t-28.5 226.5v65
q0 128 28.5 226.5t78.5 163.5t123.5 106t157.5 58.5t186 17.5zM948 1069v-725q74 0 125.5 15t89 52t55 102t17.5 161v65q0 96 -17.5 161t-55 102t-89 52t-125.5 15zM662 344v725q-74 0 -125 -15t-88.5 -52t-55.5 -102t-18 -161v-65q0 -96 18 -161t55.5 -102t88.5 -52
t125 -15z" />
    <glyph glyph-name="afii10039" unicode="&#x425;" horiz-adv-x="1212" 
d="M338 0h-311l397 729l-354 684h311l225 -450l228 450h309l-357 -684l400 -729h-309l-271 481z" />
    <glyph glyph-name="afii10040" unicode="&#x426;" horiz-adv-x="1462" 
d="M426 1413v-1171h512v1171h287v-1171h205v-508h-261v266h-1030v1413h287z" />
    <glyph glyph-name="afii10041" unicode="&#x427;" horiz-adv-x="1224" 
d="M330 1413v-416q0 -146 54.5 -207t188.5 -61q173 0 226 88v596h286v-1413h-286v553q-93 -66 -279 -66q-261 0 -369 119t-108 391v416h287z" />
    <glyph glyph-name="afii10042" unicode="&#x428;" horiz-adv-x="1912" 
d="M426 1413v-1171h387v1171h287v-1171h387v1171h287v-1413h-1635v1413h287z" />
    <glyph glyph-name="afii10043" unicode="&#x429;" horiz-adv-x="2011" 
d="M426 1413v-1171h387v1171h287v-1171h387v1171h287v-1171h204v-508h-260v266h-1579v1413h287z" />
    <glyph glyph-name="afii10044" unicode="&#x42a;" horiz-adv-x="1345" 
d="M-55 1413h600v-518h219q137 0 240.5 -35t165 -97t92 -141.5t30.5 -175.5q0 -94 -30.5 -173t-92 -141t-165.5 -97t-240 -35h-506v1169h-313v244zM748 653h-203v-411h203q258 0 258 204q0 207 -258 207z" />
    <glyph glyph-name="afii10045" unicode="&#x42b;" horiz-adv-x="1671" 
d="M139 1413h287v-518h199q137 0 240.5 -35t165.5 -97t92 -141.5t30 -175.5q0 -95 -30.5 -173.5t-94.5 -140.5t-174 -97t-258 -35h-457v1413zM1532 1413v-1413h-287v1413h287zM608 653h-182v-411h182q258 0 258 204q0 207 -258 207z" />
    <glyph glyph-name="afii10046" unicode="&#x42c;" horiz-adv-x="1226" 
d="M139 1413h287v-518h219q137 0 240.5 -35t165.5 -97t92.5 -141.5t30.5 -175.5q0 -94 -30.5 -173t-92.5 -141t-166 -97t-240 -35h-506v1413zM629 653h-203v-411h203q258 0 258 204q0 207 -258 207z" />
    <glyph glyph-name="afii10047" unicode="&#x42d;" horiz-adv-x="1216" 
d="M408 590v241h426q-4 185 -68.5 272t-187.5 87q-101 0 -162 -56.5t-80 -158.5h-275q35 228 168.5 342.5t348.5 114.5q122 0 219.5 -37t170.5 -111.5t112.5 -195.5t39.5 -281v-201q0 -159 -39.5 -279.5t-112 -195t-170.5 -112t-220 -37.5q-447 0 -517 456h275
q22 -109 80 -162t162 -53q250 0 256 367h-426z" />
    <glyph glyph-name="afii10048" unicode="&#x42e;" horiz-adv-x="1724" 
d="M1628 627q0 -645 -512 -645q-506 0 -512 628h-178v-610h-287v1413h287v-561h178q25 580 512 580q512 0 512 -646v-159zM891 774v-133q0 -219 51 -318.5t174 -99.5q124 0 174.5 99t50.5 319v133q0 217 -50.5 316.5t-174.5 99.5q-123 0 -174 -99.5t-51 -316.5z" />
    <glyph glyph-name="afii10049" unicode="&#x42f;" horiz-adv-x="1257" 
d="M342 0h-315l327 592q-270 93 -270 393q0 211 141 319.5t393 108.5h500v-1413h-287v555h-196zM639 797h192v372h-192q-136 0 -202 -41.5t-66 -142.5q0 -98 58 -143t210 -45z" />
    <glyph glyph-name="afii10065" unicode="&#x430;" 
d="M53 303q0 105 51 176.5t134 103t194 31.5h203v60q0 88 -36.5 119.5t-145.5 31.5q-79 0 -120.5 -16.5t-72.5 -65.5l-184 129q56 93 148.5 131.5t252.5 38.5q104 0 177 -17t128.5 -58t82 -114t26.5 -181v-672h-256v90q-32 -55 -83.5 -81.5t-137.5 -26.5q-164 0 -262.5 84
t-98.5 237zM635 383v39h-172q-80 0 -117 -27.5t-37 -87.5q0 -57 40 -85.5t110 -28.5q91 0 133.5 44t42.5 146z" />
    <glyph glyph-name="afii10066" unicode="&#x431;" horiz-adv-x="1028" 
d="M827 1481l136 -168q-27 -56 -72 -82.5t-129 -30.5l-189 -10q-84 -5 -129.5 -24.5t-74.5 -65.5q-26 -44 -37 -123q87 65 219 65q201 0 305.5 -117t104.5 -341v-140q0 -213 -110.5 -337.5t-332.5 -124.5q-219 0 -330.5 123t-111.5 339v134q0 449 90 630q43 87 131 144
t215 63l205 10q44 3 67.5 16t42.5 40zM518 203q182 0 182 258v123q0 237 -182 237t-182 -237v-123q0 -59 8 -103t27.5 -80.5t56.5 -55.5t90 -19z" />
    <glyph glyph-name="afii10067" unicode="&#x432;" horiz-adv-x="1017" 
d="M104 1024h410q188 0 284.5 -66t96.5 -194q0 -76 -40 -129.5t-99 -77.5q92 -27 145 -94.5t53 -163.5q0 -61 -20.5 -112.5t-64 -94.5t-122.5 -67.5t-186 -24.5h-457v1024zM367 434v-231h149q158 0 158 114q0 62 -39.5 89.5t-134.5 27.5h-133zM367 821v-194h110
q137 0 137 96q0 49 -34.5 73.5t-114.5 24.5h-98z" />
    <glyph glyph-name="afii10068" unicode="&#x433;" horiz-adv-x="763" 
d="M784 1024v-221h-417v-803h-263v1024h680z" />
    <glyph glyph-name="afii10069" unicode="&#x434;" horiz-adv-x="1161" 
d="M264 -240h-239v461h79q41 33 78 123q45 113 45 434v246h764v-803h135v-461h-237v240h-625v-240zM399 242l-10 -21h342v582h-256v-64q0 -341 -76 -497z" />
    <glyph glyph-name="afii10070" unicode="&#x435;" 
d="M702 291l195 -135q-53 -92 -143.5 -133t-231.5 -41q-222 0 -338 127.5t-116 334.5v140q0 228 109 343t312 115q422 0 422 -479v-117h-583q2 -115 46 -179t146 -64q76 0 112.5 20.5t69.5 67.5zM492 821q-148 0 -164 -188h321q-4 98 -43 143t-114 45z" />
    <glyph glyph-name="afii10072" unicode="&#x436;" horiz-adv-x="1419" 
d="M1104 1024h272l-215 -498l258 -526h-289l-188 408h-102v-408h-260v408h-103l-188 -408h-289l258 526l-215 498h272l166 -397h99v397h260v-397h96z" />
    <glyph glyph-name="afii10073" unicode="&#x437;" horiz-adv-x="929" 
d="M274 434v193h105q158 0 158 110q0 45 -34 73t-100 28q-59 0 -101.5 -19.5t-84.5 -64.5l-178 125q131 163 399 163q181 0 280 -73.5t99 -186.5q0 -159 -147 -231q83 -32 134.5 -96.5t51.5 -163.5q0 -142 -106.5 -225.5t-313.5 -83.5q-152 0 -250 44.5t-157 133.5l168 131
q38 -51 86.5 -78t134.5 -27q78 0 117.5 35.5t39.5 91.5q0 58 -45 89.5t-157 31.5h-99z" />
    <glyph glyph-name="afii10074" unicode="&#x438;" horiz-adv-x="1089" 
d="M367 1024v-559l391 559h225v-1024h-260v580l-395 -580h-224v1024h263z" />
    <glyph glyph-name="afii10075" unicode="&#x439;" horiz-adv-x="1089" 
d="M367 1024v-559l391 559h225v-1024h-260v580l-395 -580h-224v1024h263zM645 1407h213q0 -137 -85 -200.5t-230 -63.5t-231.5 63.5t-86.5 200.5h213q0 -113 105 -113q102 0 102 113z" />
    <glyph glyph-name="afii10076" unicode="&#x43a;" horiz-adv-x="1007" 
d="M690 1024h287l-281 -496l310 -528h-301l-234 408h-104v-408h-263v1024h263v-397h98z" />
    <glyph glyph-name="afii10077" unicode="&#x43b;" horiz-adv-x="1062" 
d="M186 1024h772v-1024h-260v803h-264v-238q0 -152 -13 -235t-50 -156q-46 -91 -136.5 -141t-218.5 -56v230q54 15 87.5 44.5t52.5 78.5q20 52 25 129t5 227v338z" />
    <glyph glyph-name="afii10078" unicode="&#x43c;" horiz-adv-x="1302" 
d="M334 1024l317 -557l318 557h227v-1024h-260v528l-205 -374h-174l-190 368v-522h-263v1024h230z" />
    <glyph glyph-name="afii10079" unicode="&#x43d;" horiz-adv-x="1054" 
d="M367 1024v-389h321v389h262v-1024h-262v412h-321v-412h-263v1024h263z" />
    <glyph glyph-name="afii10080" unicode="&#x43e;" horiz-adv-x="1021" 
d="M952 575v-122q0 -220 -109 -345.5t-333 -125.5q-218 0 -330 125t-112 346v122q0 228 114.5 347.5t327.5 119.5q215 0 328.5 -119t113.5 -348zM510 203q100 0 141 68t41 190v106q0 126 -43.5 190t-138.5 64t-138.5 -64t-43.5 -190v-106q0 -59 8.5 -103t28 -80.5t56 -55.5
t89.5 -19z" />
    <glyph glyph-name="afii10081" unicode="&#x43f;" horiz-adv-x="1054" 
d="M104 1024h846v-1024h-262v803h-321v-803h-263v1024z" />
    <glyph glyph-name="afii10082" unicode="&#x440;" horiz-adv-x="1058" 
d="M991 584v-140q0 -207 -103.5 -334.5t-295.5 -127.5q-154 0 -225 59v-430h-263v1413h263v-68q77 86 227 86q181 0 289 -121t108 -337zM549 203q99 0 139.5 68t40.5 190v106q0 127 -43 190.5t-137 63.5q-182 0 -182 -231v-129q0 -59 8 -103t27.5 -80.5t56.5 -55.5t90 -19z
" />
    <glyph glyph-name="afii10083" unicode="&#x441;" horiz-adv-x="913" 
d="M702 291l195 -135q-54 -90 -144 -132t-229 -42q-217 0 -336.5 124.5t-119.5 337.5v140q0 224 121 341t350 117q120 0 212.5 -43t145.5 -127l-197 -137q-61 86 -168 86t-155.5 -63.5t-48.5 -190.5v-106q0 -59 9 -103t30.5 -80.5t63 -55.5t101.5 -19q117 0 170 88z" />
    <glyph glyph-name="afii10084" unicode="&#x442;" horiz-adv-x="860" 
d="M0 1024h860v-221h-301v-803h-260v803h-299v221z" />
    <glyph glyph-name="afii10085" unicode="&#x443;" horiz-adv-x="980" 
d="M10 1024h275l227 -655l205 655h264l-358 -1071q-47 -141 -100.5 -212t-137.5 -100.5t-231 -29.5v233q109 0 158.5 27.5t80.5 114.5z" />
    <glyph glyph-name="afii10086" unicode="&#x444;" horiz-adv-x="1429" 
d="M846 1413v-371q516 0 516 -458v-140q0 -223 -128.5 -342.5t-387.5 -119.5v-371h-262v371q-259 0 -387.5 119.5t-128.5 342.5v140q0 458 516 458v371h262zM328 455q0 -131 59.5 -191.5t196.5 -60.5v618q-131 0 -193.5 -56.5t-62.5 -195.5v-114zM1100 569q0 139 -62 195.5
t-192 56.5v-618q137 0 195.5 60.5t58.5 191.5v114z" />
    <glyph glyph-name="afii10087" unicode="&#x445;" horiz-adv-x="1003" 
d="M991 0h-291l-198 311l-199 -311h-289l336 524l-309 500h289l172 -293l172 293h289l-310 -500z" />
    <glyph glyph-name="afii10088" unicode="&#x446;" horiz-adv-x="1118" 
d="M1085 -240h-239v240h-742v1024h263v-803h321v803h262v-803h135v-461z" />
    <glyph glyph-name="afii10089" unicode="&#x447;" horiz-adv-x="962" 
d="M311 1024v-295q0 -100 39.5 -134t106.5 -34q104 0 139 68v395h260v-1024h-260v381q-63 -49 -193 -49q-77 0 -137 17t-110.5 56t-77.5 111t-27 174v334h260z" />
    <glyph glyph-name="afii10090" unicode="&#x448;" horiz-adv-x="1527" 
d="M1423 0h-1319v1024h263v-803h266v803h262v-803h266v803h262v-1024z" />
    <glyph glyph-name="afii10091" unicode="&#x449;" horiz-adv-x="1593" 
d="M1559 -240h-240v240h-1215v1024h263v-803h266v803h262v-803h266v803h262v-803h136v-461z" />
    <glyph glyph-name="afii10092" unicode="&#x44a;" horiz-adv-x="1116" 
d="M-27 1024h510v-352h158q432 0 432 -334q0 -161 -104 -249.5t-307 -88.5h-439v803h-250v221zM483 451v-230h164q146 0 146 117q0 56 -39 84.5t-131 28.5h-140z" />
    <glyph glyph-name="afii10093" unicode="&#x44b;" horiz-adv-x="1353" 
d="M104 1024h263v-352h108q432 0 432 -334q0 -168 -108 -253t-303 -85h-392v1024zM987 1024h260v-1024h-260v1024zM367 451v-230h114q146 0 146 117q0 56 -39 84.5t-131 28.5h-90z" />
    <glyph glyph-name="afii10094" unicode="&#x44c;" horiz-adv-x="999" 
d="M104 1024h263v-352h155q432 0 432 -334q0 -162 -103 -250t-308 -88h-439v1024zM367 451v-230h161q146 0 146 117q0 56 -39 84.5t-131 28.5h-137z" />
    <glyph glyph-name="afii10095" unicode="&#x44d;" horiz-adv-x="923" 
d="M274 418v203h320q-10 200 -197 200q-110 0 -170 -86l-194 137q61 80 152.5 125t201.5 45q232 0 350.5 -118.5t118.5 -339.5v-140q0 -217 -120 -339.5t-349 -122.5q-123 0 -215.5 44t-144.5 130l190 135q61 -88 180 -88q57 0 97 17t60.5 48.5t29.5 67.5t10 82h-320z" />
    <glyph glyph-name="afii10096" unicode="&#x44e;" horiz-adv-x="1415" 
d="M1346 584v-140q0 -214 -109.5 -338t-308.5 -124q-185 0 -298 109.5t-120 320.5h-143v-412h-263v1024h263v-389h145q12 199 121.5 303t294.5 104q198 0 308 -116t110 -342zM928 203q84 0 120.5 64t36.5 190v114q0 131 -39.5 190.5t-117.5 59.5q-158 0 -158 -250v-114
q0 -128 35.5 -191t122.5 -63z" />
    <glyph glyph-name="afii10097" unicode="&#x44f;" horiz-adv-x="1024" 
d="M918 0h-261v365h-129l-215 -365h-276l246 408q-193 85 -193 299q0 143 101 230t317 87h410v-1024zM657 582v221h-137q-149 0 -149 -109q0 -59 40 -85.5t126 -26.5h120z" />
    <glyph glyph-name="afii10071" unicode="&#x451;" 
d="M702 291l195 -135q-53 -92 -143.5 -133t-231.5 -41q-222 0 -338 127.5t-116 334.5v140q0 228 109 343t312 115q422 0 422 -479v-117h-583q2 -115 46 -179t146 -64q76 0 112.5 20.5t69.5 67.5zM492 821q-148 0 -164 -188h321q-4 98 -43 143t-114 45zM150 1174v239h253
v-239h-253zM567 1174v239h252v-239h-252z" />
    <glyph glyph-name="afii10099" unicode="&#x452;" horiz-adv-x="1077" 
d="M-59 1102v203h192v108h260v-108h283v-203h-283v-221q72 94 232 94q81 0 146 -21t118 -66t81.5 -125t28.5 -190v-614q0 -186 -92.5 -267t-271.5 -81h-27v225h23q55 0 81.5 27.5t26.5 95.5v573q0 116 -41.5 167t-124.5 51q-89 0 -134.5 -56t-45.5 -159v-535h-260v1102h-192
z" />
    <glyph glyph-name="afii10100" unicode="&#x453;" horiz-adv-x="763" 
d="M784 1024v-221h-417v-803h-263v1024h680zM301 1161l143 324h293l-186 -324h-250z" />
    <glyph glyph-name="afii10101" unicode="&#x454;" horiz-adv-x="940" 
d="M643 621v-203h-321q1 -46 10 -82t30 -67.5t61 -48.5t97 -17q120 0 178 88l193 -135q-109 -174 -361 -174q-230 0 -349.5 122.5t-119.5 339.5v140q0 221 118.5 339.5t350.5 118.5q110 0 202 -45t153 -125l-197 -137q-60 86 -168 86q-191 0 -198 -200h321z" />
    <glyph glyph-name="afii10102" unicode="&#x455;" horiz-adv-x="950" 
d="M858 872l-192 -137q-37 43 -80 62.5t-121 19.5q-56 0 -92.5 -19.5t-36.5 -60.5q0 -44 38.5 -65.5t125.5 -34.5q194 -30 286.5 -109.5t92.5 -228.5q0 -150 -103.5 -233.5t-298.5 -83.5q-157 0 -257.5 40.5t-166.5 129.5l201 143q34 -45 81.5 -66.5t137.5 -21.5
q68 0 106.5 22t38.5 62q0 46 -37 67.5t-137 36.5q-368 60 -368 332q0 148 102.5 231.5t292.5 83.5q136 0 233 -38.5t154 -131.5z" />
    <glyph glyph-name="afii10103" unicode="&#x456;" horiz-adv-x="532" 
d="M135 0v1024h262v-1024h-262zM125 1159v254h283v-254h-283z" />
    <glyph glyph-name="afii10104" unicode="&#x457;" horiz-adv-x="532" 
d="M135 0v1024h262v-1024h-262zM-78 1174v239h254v-239h-254zM340 1174v239h252v-239h-252z" />
    <glyph glyph-name="afii10105" unicode="&#x458;" horiz-adv-x="514" 
d="M397 1024v-1079q0 -98 -23 -162.5t-74 -102.5t-122.5 -53.5t-177.5 -15.5v225q78 0 107.5 35t29.5 111v1042h260zM127 1159v254h281v-254h-281z" />
    <glyph glyph-name="afii10106" unicode="&#x459;" horiz-adv-x="1591" 
d="M186 1024h772v-352h158q432 0 432 -334q0 -162 -104 -250t-309 -88h-437v803h-264v-238q0 -152 -13 -235t-50 -156q-46 -91 -136.5 -141t-218.5 -56v230q54 15 87.5 44.5t52.5 78.5q20 52 25 129t5 227v338zM958 451v-230h164q144 0 144 117q0 56 -38 84.5t-130 28.5
h-140z" />
    <glyph glyph-name="afii10107" unicode="&#x45a;" horiz-adv-x="1583" 
d="M367 1024v-389h321v389h262v-352h156q432 0 432 -334q0 -162 -103.5 -250t-310.5 -88h-436v412h-321v-412h-263v1024h263zM950 451v-230h162q145 0 145 117q0 56 -39 84.5t-131 28.5h-137z" />
    <glyph glyph-name="afii10108" unicode="&#x45b;" horiz-adv-x="1077" 
d="M-59 1102v203h192v108h260v-108h283v-203h-283v-221q72 94 232 94q81 0 146 -21t118 -66t81.5 -125t28.5 -190v-573h-260v532q0 116 -41.5 167t-124.5 51q-89 0 -134.5 -56t-45.5 -159v-535h-260v1102h-192z" />
    <glyph glyph-name="afii10109" unicode="&#x45c;" horiz-adv-x="1007" 
d="M690 1024h287l-281 -496l310 -528h-301l-234 408h-104v-408h-263v1024h263v-397h98zM379 1161l143 324h293l-186 -324h-250z" />
    <glyph glyph-name="afii10110" unicode="&#x45e;" horiz-adv-x="980" 
d="M10 1024h275l227 -655l205 655h264l-358 -1071q-47 -141 -100.5 -212t-137.5 -100.5t-231 -29.5v233q109 0 158.5 27.5t80.5 114.5zM612 1407h213q0 -137 -85 -200.5t-230 -63.5t-231 63.5t-86 200.5h213q0 -113 104 -113q102 0 102 113z" />
    <glyph glyph-name="afii10193" unicode="&#x45f;" horiz-adv-x="1077" 
d="M623 -240h-191v240h-328v1024h263v-801h321v801h262v-1024h-327v-240z" />
    <glyph glyph-name="afii10146" unicode="&#x462;" horiz-adv-x="1226" 
d="M139 1413h287v-147h309v-242h-309v-129h219q137 0 240.5 -35t165.5 -97t92.5 -141.5t30.5 -175.5q0 -94 -30.5 -173t-92.5 -141t-166 -97t-240 -35h-506v1024h-159v242h159v147zM629 653h-203v-411h203q258 0 258 204q0 207 -258 207z" />
    <glyph glyph-name="afii10194" unicode="&#x463;" horiz-adv-x="999" 
d="M-59 821v203h163v389h263v-389h309v-203h-309v-149h155q432 0 432 -334q0 -162 -103 -250t-308 -88h-439v821h-163zM367 451v-230h161q146 0 146 117q0 56 -39 84.5t-131 28.5h-137z" />
    <glyph glyph-name="afii10147" unicode="&#x472;" horiz-adv-x="1275" 
d="M1180 606q0 -312 -146.5 -468t-396.5 -156q-121 0 -218.5 37.5t-170.5 112t-112.5 195t-39.5 279.5v201q0 160 39.5 281t112.5 195.5t170.5 111.5t218.5 37q122 0 220 -37t171 -111.5t112.5 -195.5t39.5 -281v-201zM637 223q127 0 191.5 92.5t64.5 290.5v4h-510v-4
q0 -199 63.5 -291t190.5 -92zM637 1190q-121 0 -184 -81t-70 -257h508q-11 338 -254 338z" />
    <glyph glyph-name="afii10195" unicode="&#x473;" horiz-adv-x="1021" 
d="M952 575v-122q0 -220 -109 -345.5t-333 -125.5q-218 0 -330 125t-112 346v122q0 228 114.5 347.5t327.5 119.5q215 0 328.5 -119t113.5 -348zM510 203q90 0 132 54.5t48 154.5h-360q7 -100 48 -154.5t132 -54.5zM510 821q-158 0 -180 -186h358q-18 186 -178 186z" />
    <glyph glyph-name="afii10148" unicode="&#x474;" horiz-adv-x="1263" 
d="M6 1413h316l309 -950l221 680q33 104 80.5 164t135.5 92.5t226 32.5v-236q-71 0 -106 -32t-64 -115l-364 -1049h-260z" />
    <glyph glyph-name="afii10196" unicode="&#x475;" horiz-adv-x="1026" 
d="M1047 1042v-219q-58 0 -84.5 -27t-53.5 -98l-266 -698h-246l-397 1024h287l229 -664l158 453q21 61 46 102t53 66.5t70.5 38.5t88 17.5t115.5 4.5z" />
    <glyph glyph-name="afii10050" unicode="&#x490;" horiz-adv-x="1005" 
d="M768 1413v221h238v-465h-580v-1169h-287v1413h629z" />
    <glyph glyph-name="afii10098" unicode="&#x491;" horiz-adv-x="763" 
d="M563 1024v190h221v-411h-417v-803h-263v1024h459z" />
    <glyph glyph-name="uni0492" unicode="&#x492;" horiz-adv-x="1007" 
d="M1008 1413v-244h-580v-317h279v-242h-279v-610h-287v610h-161v242h161v561h867z" />
    <glyph glyph-name="uni0493" unicode="&#x493;" horiz-adv-x="808" 
d="M829 1024v-221h-417v-168h217v-223h-217v-412h-262v412h-177v223h177v389h679z" />
    <glyph glyph-name="uni0496" unicode="&#x496;" horiz-adv-x="1970" 
d="M328 0h-322l422 713l-352 700h303l287 -582h120v582h287v-582h119l289 582h303l-352 -700l278 -471h227v-508h-260v266h-145l-346 590h-113v-590h-287v590h-112z" />
    <glyph glyph-name="uni0497" unicode="&#x497;" horiz-adv-x="1484" 
d="M1104 1024h272l-215 -498l150 -305h153v-461h-239v240h-95l-188 408h-102v-408h-260v408h-103l-188 -408h-289l258 526l-215 498h272l166 -397h99v397h260v-397h96z" />
    <glyph glyph-name="uni0498" unicode="&#x498;" horiz-adv-x="1212" 
d="M741 -266h-260v258q-357 51 -426 418h275q39 -98 101.5 -142.5t168.5 -44.5q258 0 258 195q0 194 -274 194h-150v242h154q225 0 225 172q0 166 -211 166q-108 0 -164.5 -44t-87.5 -128h-252q12 124 84.5 218.5t184.5 144t245 49.5q98 0 185 -24t155.5 -70t108 -119.5
t39.5 -165.5q0 -201 -185 -310q107 -44 168.5 -130t61.5 -207q0 -167 -106.5 -276.5t-297.5 -137.5v-258z" />
    <glyph glyph-name="uni0499" unicode="&#x499;" horiz-adv-x="929" 
d="M567 -240h-239v228q-204 26 -299 172l168 131q38 -51 86.5 -78t134.5 -27q78 0 117.5 35.5t39.5 91.5q0 58 -45 89.5t-157 31.5h-99v193h105q158 0 158 110q0 45 -34 73t-100 28q-59 0 -101.5 -19.5t-84.5 -64.5l-178 125q131 163 399 163q181 0 280 -73.5t99 -186.5
q0 -159 -147 -231q83 -32 134.5 -96.5t51.5 -163.5q0 -117 -73 -196t-216 -103v-232z" />
    <glyph glyph-name="uni049A" unicode="&#x49a;" horiz-adv-x="1361" 
d="M1327 -266h-258v266h-160l-362 590h-121v-590h-287v1413h287v-582h115l323 582h316l-381 -684l301 -487h227v-508z" />
    <glyph glyph-name="uni049B" unicode="&#x49b;" horiz-adv-x="1069" 
d="M690 1024h287l-281 -496l181 -307h165v-461h-239v240h-98l-234 408h-104v-408h-263v1024h263v-397h98z" />
    <glyph glyph-name="uni049C" unicode="&#x49c;" horiz-adv-x="1474" 
d="M1446 0h-338l-365 590h-38v-219h-216v219h-63v-590h-287v1413h287v-582h63v234h216v-234h34l322 582h315l-381 -684z" />
    <glyph glyph-name="uni049D" unicode="&#x49d;" horiz-adv-x="1165" 
d="M848 1024h287l-281 -496l309 -528h-301l-233 408h-21v-197h-194v197h-47v-408h-263v1024h263v-397h47v200h194v-200h15z" />
    <glyph glyph-name="uni04A0" unicode="&#x4a0;" horiz-adv-x="1394" 
d="M1368 0h-340l-362 590h-121v-590h-287v1169h-313v244h600v-582h114l324 582h315l-380 -684z" />
    <glyph glyph-name="uni04A1" unicode="&#x4a1;" horiz-adv-x="1124" 
d="M807 1024h287l-281 -496l309 -528h-301l-233 408h-105v-408h-262v803h-248v221h510v-397h99z" />
    <glyph glyph-name="uni04A2" unicode="&#x4a2;" horiz-adv-x="1441" 
d="M426 1413v-561h489v561h287v-1171h205v-508h-260v266h-232v610h-489v-610h-287v1413h287z" />
    <glyph glyph-name="uni04A3" unicode="&#x4a3;" horiz-adv-x="1118" 
d="M367 1024v-389h321v389h262v-803h135v-461h-239v240h-158v412h-321v-412h-263v1024h263z" />
    <glyph glyph-name="uni04AA" unicode="&#x4aa;" horiz-adv-x="1216" 
d="M768 -266h-260v260q-193 37 -302.5 190t-109.5 422v201q0 160 39.5 281t112.5 195.5t170.5 111.5t218.5 37q215 0 349 -114.5t169 -342.5h-274q-44 215 -244 215q-127 0 -190.5 -92t-63.5 -291v-201q0 -383 254 -383q105 0 162.5 52.5t81.5 162.5h272q-60 -387 -385 -444
v-260z" />
    <glyph glyph-name="uni04AB" unicode="&#x4ab;" horiz-adv-x="913" 
d="M651 -240h-237v232q-166 29 -256 149t-90 303v140q0 224 121 341t350 117q120 0 212.5 -43t145.5 -127l-197 -137q-61 86 -168 86t-155.5 -63.5t-48.5 -190.5v-106q0 -59 9 -103t30.5 -80.5t63 -55.5t101.5 -19q117 0 170 88l195 -135q-79 -134 -246 -164v-232z" />
    <glyph glyph-name="uni04AE" unicode="&#x4ae;" horiz-adv-x="1193" 
d="M12 1413h332l252 -526l254 526h330l-441 -835v-578h-286v578z" />
    <glyph glyph-name="uni04AF" unicode="&#x4af;" horiz-adv-x="1032" 
d="M743 1024h289l-381 -1004v-409h-262v409l-389 1004h287l229 -664z" />
    <glyph glyph-name="uni04B0" unicode="&#x4b0;" horiz-adv-x="1193" 
d="M12 1413h332l252 -526l254 526h330l-412 -780h236v-242h-265v-391h-286v391h-260v242h231z" />
    <glyph glyph-name="uni04B1" unicode="&#x4b1;" horiz-adv-x="1032" 
d="M743 1024h289l-389 -1024h203v-221h-203v-168h-246v168h-209v221h209l-397 1024h287l229 -664z" />
    <glyph glyph-name="uni04B2" unicode="&#x4b2;" horiz-adv-x="1314" 
d="M338 0h-311l397 729l-354 684h311l225 -450l228 450h309l-357 -684l267 -487h227v-508h-260v266h-143l-271 481z" />
    <glyph glyph-name="uni04B3" unicode="&#x4b3;" horiz-adv-x="1046" 
d="M1026 -240h-238v240h-88l-198 311l-199 -311h-289l336 524l-309 500h289l172 -293l172 293h289l-310 -500l195 -303h178v-461z" />
    <glyph glyph-name="uni04B6" unicode="&#x4b6;" horiz-adv-x="1323" 
d="M330 1413v-416q0 -146 54.5 -207t188.5 -61q173 0 226 88v596h286v-1171h203v-508h-258v266h-231v553q-93 -66 -279 -66q-261 0 -369 119t-108 391v416h287z" />
    <glyph glyph-name="uni04B7" unicode="&#x4b7;" horiz-adv-x="1030" 
d="M315 1024v-295q0 -100 39.5 -134t106.5 -34q104 0 139 68v395h260v-803h135v-461h-239v240h-156v381q-63 -49 -192 -49q-77 0 -137.5 17t-110.5 56t-77.5 111t-27.5 174v334h260z" />
    <glyph glyph-name="uni04B8" unicode="&#x4b8;" horiz-adv-x="1265" 
d="M713 969v-224q98 23 127 72v596h286v-1413h-286v553q-37 -26 -127 -47v-232h-242v213q-233 10 -330.5 130t-97.5 380v416h287v-416q0 -115 32.5 -175.5t108.5 -82.5v230h242z" />
    <glyph glyph-name="uni04B9" unicode="&#x4b9;" horiz-adv-x="1048" 
d="M315 1024v-295q0 -137 86 -162v213h195v-198q56 15 86 45v397h260v-1024h-260v381q-37 -19 -86 -27v-188h-195v166q-348 0 -348 358v334h262z" />
    <glyph glyph-name="uni04BA" unicode="&#x4ba;" horiz-adv-x="1224" 
d="M895 0v532q0 146 -55 207.5t-189 61.5q-174 0 -225 -88v-713h-287v1413h287v-436q92 65 281 65q259 0 367 -118.5t108 -388.5v-535h-287z" />
    <glyph glyph-name="uni04BB" unicode="&#x4bb;" horiz-adv-x="1077" 
d="M104 0v1413h263v-469q75 98 229 98q81 0 146.5 -20.5t118 -65.5t81.5 -125t29 -190v-641h-260v600q0 116 -41 166.5t-123 50.5q-89 0 -134.5 -56t-45.5 -159v-602h-263z" />
    <glyph glyph-name="uni04D8" unicode="&#x4d8;" horiz-adv-x="1232" 
d="M96 606v150h774v51q0 199 -63.5 291t-190.5 92q-102 0 -162.5 -57t-78.5 -158h-275q31 219 163 338t353 119q122 0 219 -37.5t170 -113.5t112.5 -201.5t39.5 -293.5v-180q0 -159 -39.5 -279.5t-112.5 -195t-170.5 -112t-218.5 -37.5q-247 0 -383.5 154.5t-136.5 469.5z
M616 223q113 0 175 67.5t75 221.5h-495q9 -144 66 -216.5t179 -72.5z" />
    <glyph glyph-name="afii10846" unicode="&#x4d9;" 
d="M293 733l-195 135q53 92 143.5 133t231.5 41q222 0 338.5 -127.5t116.5 -334.5v-140q0 -228 -109.5 -343t-312.5 -115q-422 0 -422 479v117h584q-3 243 -193 243q-76 0 -112.5 -20.5t-69.5 -67.5zM504 203q148 0 164 188h-322q4 -98 43.5 -143t114.5 -45z" />
    <glyph glyph-name="uni04E2" unicode="&#x4e2;" horiz-adv-x="1384" 
d="M139 1413h287v-887l590 887h229v-1413h-287v877l-583 -877h-236v1413zM365 1524v229h659v-229h-659z" />
    <glyph glyph-name="uni04E3" unicode="&#x4e3;" horiz-adv-x="1089" 
d="M367 1024v-559l391 559h225v-1024h-260v580l-395 -580h-224v1024h263zM256 1174v227h580v-227h-580z" />
    <glyph glyph-name="uni04E8" unicode="&#x4e8;" horiz-adv-x="1275" 
d="M1180 606q0 -312 -146.5 -468t-396.5 -156q-121 0 -218.5 37.5t-170.5 112t-112.5 195t-39.5 279.5v201q0 160 39.5 281t112.5 195.5t170.5 111.5t218.5 37q122 0 220 -37t171 -111.5t112.5 -195.5t39.5 -281v-201zM637 223q127 0 191.5 92.5t64.5 290.5v4h-510v-4
q0 -199 63.5 -291t190.5 -92zM637 1190q-121 0 -184 -81t-70 -257h508q-11 338 -254 338z" />
    <glyph glyph-name="uni04E9" unicode="&#x4e9;" horiz-adv-x="1021" 
d="M952 575v-122q0 -220 -109 -345.5t-333 -125.5q-218 0 -330 125t-112 346v122q0 228 114.5 347.5t327.5 119.5q215 0 328.5 -119t113.5 -348zM510 203q90 0 132 54.5t48 154.5h-360q7 -100 48 -154.5t132 -54.5zM510 821q-158 0 -180 -186h358q-18 186 -178 186z" />
    <glyph glyph-name="uni04EE" unicode="&#x4ee;" horiz-adv-x="1185" 
d="M891 1413h295l-434 -1126q-69 -178 -180 -241.5t-330 -63.5v249q113 0 169 21.5t89 83.5l-484 1077h318l303 -704zM291 1524v229h659v-229h-659z" />
    <glyph glyph-name="uni04EF" unicode="&#x4ef;" horiz-adv-x="980" 
d="M10 1024h275l227 -655l205 655h264l-358 -1071q-47 -141 -100.5 -212t-137.5 -100.5t-231 -29.5v233q109 0 158.5 27.5t80.5 114.5zM215 1174v227h580v-227h-580z" />
    <glyph glyph-name="uni1D49" unicode="&#x1d49;" horiz-adv-x="673" 
d="M594 868q-35 -57 -93 -82.5t-149 -25.5q-142 0 -216.5 80t-74.5 209v86q0 142 71 213t200 71q270 0 270 -297v-78h-371q4 -141 121 -141q47 0 69.5 12.5t43.5 42.5zM231 1167h201q-6 111 -98 111q-93 0 -103 -111z" />
    <glyph glyph-name="uni1E9E" unicode="&#x1e9e;" horiz-adv-x="1243" 
d="M1108 1315l-203 -367q111 -25 157 -88t46 -172v-401q0 -91 -17.5 -148.5t-58 -87.5t-92.5 -40.5t-135 -10.5h-187v242h103q55 0 77.5 27.5t22.5 86.5v271q0 64 -20.5 92.5t-79.5 28.5h-103v184l138 237q-66 21 -129 21q-105 0 -153 -48.5t-48 -158.5v-983h-287v999
q0 204 119 318.5t369 114.5q141 0 279.5 -39t201.5 -78z" />
    <glyph glyph-name="uni2010" unicode="&#x2010;" horiz-adv-x="653" 
d="M61 477v230h531v-230h-531z" />
    <glyph glyph-name="uni2011" unicode="&#x2011;" horiz-adv-x="653" 
d="M61 477v230h531v-230h-531z" />
    <glyph glyph-name="figuredash" unicode="&#x2012;" horiz-adv-x="1105" 
d="M131 588v254h844v-254h-844z" />
    <glyph glyph-name="endash" unicode="&#x2013;" horiz-adv-x="1042" 
d="M123 465v254h797v-254h-797z" />
    <glyph glyph-name="emdash" unicode="&#x2014;" horiz-adv-x="1445" 
d="M41 465v254h1364v-254h-1364z" />
    <glyph glyph-name="quoteleft" unicode="&#x2018;" horiz-adv-x="497" 
d="M94 1094v331l281 240v-571h-281z" />
    <glyph glyph-name="quoteright" unicode="&#x2019;" horiz-adv-x="509" 
d="M369 1446v-338l-275 -234v572h275z" />
    <glyph glyph-name="quotesinglbase" unicode="&#x201a;" horiz-adv-x="524" 
d="M401 279v-332l-278 -240v572h278z" />
    <glyph glyph-name="quotedblleft" unicode="&#x201c;" horiz-adv-x="790" 
d="M39 1094v331l280 240v-571h-280zM408 1094v331l278 240v-571h-278z" />
    <glyph glyph-name="quotedblright" unicode="&#x201d;" horiz-adv-x="790" 
d="M319 1446v-332l-280 -240v572h280zM686 1446v-332l-278 -240v572h278z" />
    <glyph glyph-name="quotedblbase" unicode="&#x201e;" horiz-adv-x="874" 
d="M770 279v-332l-281 -240v572h281zM401 279v-332l-278 -240v572h278z" />
    <glyph glyph-name="dagger" unicode="&#x2020;" horiz-adv-x="1187" 
d="M68 1024h383v389h286v-389h381v-244h-381v-1169h-286v1169h-383v244z" />
    <glyph glyph-name="daggerdbl" unicode="&#x2021;" horiz-adv-x="1187" 
d="M68 1024h383v389h286v-389h381v-244h-381v-538h381v-242h-381v-389h-286v389h-383v242h383v538h-383v244z" />
    <glyph glyph-name="bullet" unicode="&#x2022;" horiz-adv-x="606" 
d="M68 698q0 98 69.5 168t167.5 70t168 -70t70 -168t-70 -167.5t-168 -69.5t-167.5 69.5t-69.5 167.5z" />
    <glyph glyph-name="ellipsis" unicode="&#x2026;" horiz-adv-x="1806" 
d="M442 319v-319h-319v319h319zM1683 319v-319h-319v319h319zM1063 319v-319h-320v319h320z" />
    <glyph glyph-name="perthousand" unicode="&#x2030;" horiz-adv-x="2277" 
d="M1044 1413h252l-788 -1413h-254zM1513 410v-121q0 -145 -75 -226t-234 -81q-150 0 -228.5 78.5t-78.5 228.5v121q0 148 79 225.5t228 77.5q151 0 230 -76.5t79 -226.5zM1204 160q51 0 75 31.5t24 97.5v114q0 69 -24 99t-75 30q-94 0 -94 -129v-114q0 -66 22.5 -97.5
t71.5 -31.5zM662 1128v-120q0 -145 -75.5 -226.5t-236.5 -81.5q-149 0 -227 79t-78 229v120q0 148 79 226t226 78q153 0 232.5 -77t79.5 -227zM352 879q51 0 75 31.5t24 97.5v114q0 69 -24 99t-75 30q-94 0 -94 -129v-114q0 -67 22 -98t72 -31zM2206 410v-121
q0 -145 -75.5 -226t-236.5 -81q-150 0 -228.5 78.5t-78.5 228.5v121q0 148 79 225.5t228 77.5q153 0 232.5 -76.5t79.5 -226.5zM1896 160q51 0 74 31.5t23 97.5v114q0 69 -23.5 99t-73.5 30q-94 0 -94 -129v-114q0 -67 22 -98t72 -31z" />
    <glyph glyph-name="guilsinglleft" unicode="&#x2039;" horiz-adv-x="675" 
d="M61 580l476 473v-293l-185 -180l185 -183v-291z" />
    <glyph glyph-name="guilsinglright" unicode="&#x203a;" horiz-adv-x="675" 
d="M119 1053l475 -473l-475 -474v291l182 183l-182 180v293z" />
    <glyph glyph-name="fraction" unicode="&#x2044;" horiz-adv-x="1159" 
d="M993 1413h260l-970 -1413h-263z" />
    <glyph glyph-name="uni2060" unicode="&#x2060;" horiz-adv-x="0" 
 />
    <glyph glyph-name="uni2074" unicode="&#x2074;" horiz-adv-x="714" 
d="M305 1413h209l-252 -405h105v92h180v-92h80v-146h-80v-96h-180v96h-330v131z" />
    <glyph glyph-name="Euro" unicode="&#x20ac;" horiz-adv-x="1105" 
d="M20 647h140v105h-140v229h150q59 451 465 451q202 0 310.5 -114t131.5 -343h-274q-13 109 -51 162t-117 53q-83 0 -125 -47.5t-55 -161.5h227v-229h-236v-105h236v-229h-225q17 -102 59.5 -148.5t118.5 -46.5q75 0 115 50.5t53 164.5h272q-24 -235 -128 -345.5
t-312 -110.5q-397 0 -463 436h-152v229z" />
    <glyph glyph-name="uni20B4" unicode="&#x20b4;" horiz-adv-x="1105" 
d="M14 449v217h1078v-217h-693q-12 -30 -12 -68q0 -70 48 -114t149 -44q54 0 96 17t72.5 45t72.5 80l217 -152q-99 -126 -204.5 -178.5t-276.5 -52.5q-113 0 -202 31.5t-145 86t-85 125.5t-29 154q0 35 6 70h-92zM14 750v217h688q17 34 17 67q0 73 -44.5 114.5t-127.5 41.5
q-71 0 -120 -33.5t-99 -107.5l-213 151q155 232 434 232q225 0 342 -108t115 -273q0 -43 -13 -84h99v-217h-1078z" />
    <glyph glyph-name="uni20B8" unicode="&#x20b8;" horiz-adv-x="1105" 
d="M29 1073h1050v-244h-383v-829h-286v829h-381v244zM29 1413h1050v-244h-1050v244z" />
    <glyph glyph-name="uni20BD" unicode="&#x20bd;" horiz-adv-x="1105" 
d="M18 498v241h172v674h394q250 0 389 -114.5t139 -337.5q0 -222 -140 -342.5t-388 -120.5h-107v-80h236v-242h-236v-176h-287v176h-172v242h172v80h-172zM477 739h66q148 0 215 53.5t67 168.5q0 104 -68 156t-214 52h-66v-430z" />
    <glyph glyph-name="afii61352" unicode="&#x2116;" horiz-adv-x="1937" 
d="M1898 1100v-96q0 -152 -78.5 -243t-234.5 -91q-150 0 -231.5 89.5t-81.5 244.5v96q0 158 82 245t231 87q150 0 231.5 -86.5t81.5 -245.5zM1321 340v244h530v-244h-530zM1585 872q92 0 92 140v80q0 137 -92 137q-94 0 -94 -137v-80q0 -68 21 -104t73 -36zM909 1413h273
v-1413h-240l-551 874v-874h-272v1413h237l553 -887v887z" />
    <glyph glyph-name="trademark" unicode="&#x2122;" horiz-adv-x="1863" 
d="M1047 1413l251 -440l252 440h217v-854h-229v399l-158 -268h-174l-147 268v-399h-228v854h216zM49 1413h719v-205h-244v-649h-229v649h-246v205z" />
    <glyph glyph-name="uni2190" unicode="&#x2190;" horiz-adv-x="1792" 
d="M1071 -188h-225l-723 723l723 722h225l-643 -643h1241v-159h-1241z" />
    <glyph glyph-name="uni2191" unicode="&#x2191;" horiz-adv-x="1691" 
d="M1569 586v-226l-643 644v-1242h-160v1242l-643 -644v226l723 723z" />
    <glyph glyph-name="uni2192" unicode="&#x2192;" horiz-adv-x="1792" 
d="M946 -188h-225l643 643h-1241v159h1241l-643 643h225l723 -722z" />
    <glyph glyph-name="uni2193" unicode="&#x2193;" horiz-adv-x="1691" 
d="M123 483v226l643 -643v1241h160v-1241l643 643v-226l-723 -723z" />
    <glyph glyph-name="uni2196" unicode="&#x2196;" horiz-adv-x="1429" 
d="M281 -160l-158 160v1024h1024l160 -158h-912l877 -878l-113 -113l-878 877v-912z" />
    <glyph glyph-name="uni2197" unicode="&#x2197;" horiz-adv-x="1429" 
d="M1307 0l-158 -160v912l-879 -877l-112 113l876 878h-911l160 158h1024v-1024z" />
    <glyph glyph-name="uni2198" unicode="&#x2198;" horiz-adv-x="1429" 
d="M1149 1184l158 -160v-1024h-1024l-160 158h911l-876 878l112 113l879 -877v912z" />
    <glyph glyph-name="uni2199" unicode="&#x2199;" horiz-adv-x="1429" 
d="M123 1024l158 160v-912l878 877l113 -113l-877 -878h912l-160 -158h-1024v1024z" />
    <glyph glyph-name="uni21A3" unicode="&#x21a3;" horiz-adv-x="2816" 
d="M541 950l254 -254h1572l-131 133l123 121l375 -375l-375 -374l-123 121l131 133h-1572l-254 -254l-125 121l254 253l-254 254zM205 950l375 -375l-375 -374l-123 121l254 253l-254 254z" />
    <glyph glyph-name="partialdiff" unicode="&#x2202;" horiz-adv-x="1030" 
d="M952 942v-489q0 -220 -109 -345.5t-333 -125.5q-218 0 -330 125t-112 346v122q0 227 112.5 347t313.5 120q117 0 198 -49q-4 117 -56 168t-149 51q-103 0 -217 -71l-118 162q64 60 159.5 94.5t202.5 34.5q222 0 330 -122t108 -368zM510 203q100 0 141 68t41 190v106
q0 126 -43.5 190t-138.5 64t-138.5 -64t-43.5 -190v-106q0 -59 8.5 -103t28 -80.5t56 -55.5t89.5 -19z" />
    <glyph glyph-name="product" unicode="&#x220f;" horiz-adv-x="1306" 
d="M119 1413h1069v-1802h-287v1558h-495v-1558h-287v1802z" />
    <glyph glyph-name="summation" unicode="&#x2211;" horiz-adv-x="1062" 
d="M1022 1413v-242h-596l360 -548v-226l-360 -544h596v-242h-961v211l461 690l-461 690v211h961z" />
    <glyph glyph-name="minus" unicode="&#x2212;" horiz-adv-x="1036" 
d="M119 610v230h796v-230h-796z" />
    <glyph glyph-name="uni2215" unicode="&#x2215;" horiz-adv-x="993" 
d="M332 -238h-236l688 1901h236z" />
    <glyph glyph-name="radical" unicode="&#x221a;" horiz-adv-x="1427" 
d="M14 1024h439l258 -618l217 1007h610v-244h-377l-291 -1169h-270l-362 780h-224v244z" />
    <glyph glyph-name="infinity" unicode="&#x221e;" horiz-adv-x="1642" 
d="M819 545q-91 -107 -183 -163t-208 -56q-157 0 -258.5 108t-101.5 266q0 159 102.5 267t265.5 108q216 0 395 -215q91 108 179 161.5t202 53.5q159 0 260 -108.5t101 -266.5q0 -157 -99 -265.5t-249 -108.5q-123 0 -219 56t-187 163zM1204 557q59 0 100.5 39.5t41.5 103.5
q0 62 -43 101t-107 39q-41 0 -80 -20.5t-64.5 -44.5t-70.5 -73q64 -71 115.5 -108t107.5 -37zM442 557q63 0 115 36.5t115 106.5q-126 140 -230 140q-60 0 -102.5 -39t-42.5 -101q0 -64 42 -103.5t103 -39.5z" />
    <glyph glyph-name="integral" unicode="&#x222b;" horiz-adv-x="632" 
d="M436 1038v-1093q0 -99 -20 -163.5t-65.5 -102.5t-109.5 -53t-161 -15h-76v233h49q67 0 92 31.5t25 108.5v1095q0 99 20 163.5t65.5 102.5t109.5 53t161 15h76v-233h-47q-67 0 -93 -30.5t-26 -111.5z" />
    <glyph glyph-name="approxequal" unicode="&#x2248;" horiz-adv-x="1024" 
d="M852 993l92 -190q-51 -55 -104.5 -82t-126.5 -27q-63 0 -136.5 27t-141.5 54.5t-118 27.5q-68 0 -143 -60l-94 195q57 57 110.5 83t120.5 26q60 0 135 -27.5t146 -54.5t123 -27q42 0 72 13t65 42zM852 637l92 -188q-51 -55 -104.5 -82t-126.5 -27q-63 0 -136.5 27
t-141.5 54.5t-118 27.5q-68 0 -143 -60l-94 195q57 57 110 82.5t121 25.5q60 0 135 -27t146 -54t123 -27q42 0 72.5 12.5t64.5 40.5z" />
    <glyph glyph-name="notequal" unicode="&#x2260;" horiz-adv-x="1024" 
d="M113 735v246h422l139 319l205 -81l-105 -238h135v-246h-241l-52 -119h293v-243h-399l-131 -303l-205 82l96 221h-157v243h264l51 119h-315z" />
    <glyph glyph-name="lessequal" unicode="&#x2264;" horiz-adv-x="788" 
d="M170 821l475 473v-293l-184 -180l184 -182v-291zM170 399v289l475 -469v-293z" />
    <glyph glyph-name="greaterequal" unicode="&#x2265;" horiz-adv-x="788" 
d="M170 1294l475 -473l-475 -473v291l182 182l-182 180v293zM645 688v-289l-475 -473v293z" />
    <glyph glyph-name="uni231A" unicode="&#x231a;" horiz-adv-x="1363" 
d="M379 -420v481q-117 70 -186.5 190t-69.5 261q0 140 69.5 259.5t186.5 189.5v481h534v-479q99 -59 165 -156t85 -213h78v-164h-78q-19 -117 -85 -213.5t-165 -155.5v-481h-534zM215 512q0 -178 126.5 -305t305.5 -127q178 0 304 126.5t126 305.5q0 178 -125.5 304
t-304.5 126t-305.5 -126t-126.5 -304zM987 651l-340 -190l-272 153l-13 41l41 11l244 -144l314 178l38 -10z" />
    <glyph glyph-name="uni23F2" unicode="&#x23f2;" horiz-adv-x="2195" 
d="M123 700q0 133 35 259.5t98 233t153 196.5t196.5 153t233 98t259.5 35t259.5 -35t233 -98t196.5 -153t153 -196.5t98 -233t35 -259.5q0 -199 -77 -379t-207.5 -310.5t-311 -207.5t-379.5 -77t-379.5 77t-311 207.5t-207.5 310.5t-77 379zM233 700q0 -176 68.5 -336
t184.5 -275.5t276 -184t336 -68.5t335.5 68.5t275 184t183.5 275.5t68 336t-68 335.5t-183.5 275t-275 184t-335.5 68.5t-336 -68.5t-276 -184t-184.5 -275t-68.5 -335.5zM1784 1040l-686 -393l-508 291l-21 72l74 20l455 -264l633 367l73 -19zM1642 745h259v-94h-259v94z
M1051 -102v258h94v-258h-94zM297 745h258v-94h-258v94zM1051 1243v258h94v-258h-94z" />
    <glyph glyph-name="uni2550" unicode="&#x2550;" horiz-adv-x="4419" 
d="M4420 854v-244h-4420v244h4420zM4420 522v-243h-4420v243h4420z" />
    <glyph glyph-name="lozenge" unicode="&#x25ca;" horiz-adv-x="1155" 
d="M440 1202h279l389 -596l-389 -606h-279l-393 606zM578 975l-230 -369l230 -381l227 381z" />
    <glyph glyph-name="uni261D" unicode="&#x261d;" horiz-adv-x="1443" 
d="M1321 -57h-758l-440 598q6 6 17 14.5t44.5 24.5t66.5 20t79.5 -12.5t87.5 -59.5l145 -151v921q0 62 27.5 93.5t75.5 31.5q47 0 74.5 -30t27.5 -88v-469h74q58 0 84 -26t26 -85h74q58 0 84.5 -26.5t26.5 -84.5h69q61 0 88 -25t27 -79v-567zM563 -498v330h758v-330h-758z
M1157 -276q-25 0 -41 -15.5t-16 -40.5t16 -41t41 -16q26 0 40.5 16t14.5 41t-15 40.5t-40 15.5z" />
    <glyph glyph-name="uni261E" unicode="&#x261e;" horiz-adv-x="2172" 
d="M569 104v758l598 441q6 -6 14.5 -17t24.5 -44.5t20.5 -66.5t-12 -79.5t-59.5 -87.5l-151 -146h921q62 0 93.5 -27.5t31.5 -74.5t-30.5 -75t-88.5 -28h-469v-73q0 -59 -26 -85t-84 -26v-74q0 -58 -26 -84t-85 -26v-70q0 -61 -25 -88t-79 -27h-568zM123 862h336v-758h-336
v758zM346 268q0 25 -15.5 41.5t-39.5 16.5q-25 0 -41.5 -16.5t-16.5 -41.5q0 -26 16.5 -40.5t41.5 -14.5t40 15t15 40z" />
    <glyph glyph-name="uni26F3" unicode="&#x26f3;" horiz-adv-x="1380" 
d="M123 1051q0 154 76 284.5t206.5 206.5t284.5 76t284.5 -76t206.5 -206.5t76 -284.5q0 -90 -36 -191.5t-131 -251.5l-400 -628l-403 632q-93 149 -128.5 249t-35.5 190zM463 1051q0 -94 66.5 -160t160.5 -66t159.5 66t65.5 160q0 95 -65.5 160t-159.5 65t-160.5 -65
t-66.5 -160z" />
    <glyph glyph-name="uni2709" unicode="&#x2709;" horiz-adv-x="2531" 
d="M123 1184h2285v-123l-1142 -684l-1143 684v123zM123 985l692 -412l-692 -497v909zM2408 0h-2285l749 539l394 -234l393 234zM1716 573l692 412v-909z" />
    <glyph glyph-name="uniF040" unicode="&#xf040;" horiz-adv-x="6254" 
d="M3353 961l264 -265h2638v-241h-2634l-268 -269l-125 121l266 266l-266 265zM0 455v241h2638l264 265l125 -123l-266 -265l266 -266l-125 -121l-268 269h-2634z" />
    <glyph glyph-name="uniF041" unicode="&#xf041;" horiz-adv-x="5847" 
d="M3193 901l164 -94l-64 -111h2554v-241h-2695l-117 -203l-162 92zM2812 901l162 -94l-320 -555l-164 92l64 111h-2554v241h2693z" />
    <glyph glyph-name="uniF042" unicode="&#xf042;" horiz-adv-x="5785" 
d="M2943 455v241h2843v-241h-2843zM2597 696v-241h-2597v241h2597z" />
    <glyph glyph-name="uniF043" unicode="&#xf043;" horiz-adv-x="1443" 
d="M563 -57h758v567q0 54 -27 79t-88 25h-69q0 58 -26.5 84.5t-84.5 26.5h-74q0 59 -26 85t-84 26h-74v469q0 58 -27.5 88t-74.5 30q-48 0 -75.5 -31.5t-27.5 -93.5v-921l-145 151q-41 43 -86.5 60.5t-81 11t-65.5 -19t-46 -26.5l-16 -13zM563 -168v-330h758v330h-758z
M1157 -276q25 0 40 -15.5t15 -40.5t-14.5 -41t-40.5 -16q-25 0 -41 16t-16 41t16 40.5t41 15.5zM170 1352h324v-113h-324v113zM838 1352h323v-113h-323v113zM608 1485v323h113v-323h-113z" />
    <glyph glyph-name="uniF044" unicode="&#xf044;" horiz-adv-x="1906" 
d="M362 258l664 -315h758v567q0 54 -27 79t-88 25h-70q0 59 -26 85t-84 26h-74q0 59 -26 85t-84 26h-74v469q0 58 -28 88t-75 30t-74.5 -31.5t-27.5 -93.5v-979l-412 93q-62 12 -106 2t-72 -36t-44.5 -52.5t-23.5 -47.5zM1026 -168v-330h758v330h-758zM1133 1667h323v-324
h-113v211h-210v113zM446 31h-323v323h113v-211h210v-112zM1620 -276q25 0 40 -15.5t15 -40.5t-14.5 -41t-40.5 -16q-25 0 -41 16t-16 41t16 40.5t41 15.5z" />
    <glyph glyph-name="uniF045" unicode="&#xf045;" horiz-adv-x="1849" 
d="M758 1362h1030v-113h-1020v-413h74q58 0 84 -26t26 -85h74q58 0 84.5 -26.5t26.5 -84.5h69q61 0 88 -25t27 -79v-567h-758l-440 598q6 6 17 14.5t44.5 24.5t66.5 20t79.5 -12.5t87.5 -59.5l145 -151v921q0 62 27.5 93.5t75.5 31.5q71 0 92 -61zM563 -498v330h758v-330
h-758zM178 1305l230 229l79 -80l-149 -149l149 -150l-79 -80zM1157 -276q-25 0 -41 -15.5t-16 -40.5t16 -41t41 -16q26 0 40.5 16t14.5 41t-15 40.5t-40 15.5z" />
    <glyph glyph-name="uniF046" unicode="&#xf046;" horiz-adv-x="1949" 
d="M1827 -57h-758l-440 598q6 6 17 14.5t44.5 24.5t66.5 20t79.5 -12.5t87.5 -59.5l145 -151v872h-1008v113h1018q21 61 92 61q47 0 75 -30t28 -88v-469h74q58 0 84 -26t26 -85h74q58 0 84 -26t26 -85h70q61 0 88 -25t27 -79v-567zM1069 -498v330h758v-330h-758zM1671 1305
l-229 -230l-80 80l149 150l-149 149l80 80zM1663 -276q-25 0 -41 -15.5t-16 -40.5t16 -41t41 -16q26 0 40.5 16t14.5 41t-15 40.5t-40 15.5z" />
    <glyph glyph-name="uniF047" unicode="&#xf047;" horiz-adv-x="2068" 
d="M1774 1044v-1298h-113v1235l-281 -162l35 -63q30 -51 21 -86.5t-60 -63.5l37 -65q29 -51 19.5 -86t-60.5 -64l35 -61q30 -54 21.5 -89t-56.5 -63l-489 -284l-379 657l297 680q2 -1 6.5 -2.5t17.5 -7t25 -12.5t27.5 -19.5t28 -27t23 -34.5t16 -43t4 -53t-10.5 -63
l-59 -203l800 463q106 60 160 -27q25 -39 11.5 -79t-64.5 -70zM123 332l287 166l376 -658l-284 -166zM1487 1413l229 229l230 -229l-80 -80l-150 150l-149 -150zM565 -41q-25 0 -41 -15t-16 -40t16 -41.5t41 -16.5q26 0 41 16.5t15 41.5t-15.5 40t-40.5 15z" />
    <glyph glyph-name="uniF048" unicode="&#xf048;" horiz-adv-x="2344" 
d="M502 281l381 657l737 82q1 -4 2.5 -11.5t2.5 -29t-1.5 -42t-12.5 -47.5t-27 -48.5t-48.5 -41.5t-73.5 -30l-205 -49l680 -393v1235h113v-1301l8 -4q107 -62 56 -152q-24 -41 -63.5 -48.5t-92.5 20.5l-406 235l-36 -61q-29 -51 -64.5 -61.5t-85.5 18.5l-37 -64
q-29 -51 -64.5 -60t-86.5 21l-35 -61q-30 -53 -66.5 -63.5t-83.5 18.5zM502 1157l286 -164l-380 -655l-285 164zM1993 -334l-230 230l80 79l150 -149l149 149l80 -79zM352 616q-25 0 -41 -15t-16 -40t16 -41t41 -16q26 0 41 16t15 41t-15.5 40t-40.5 15z" />
    <glyph glyph-name="uniF400" unicode="&#xf400;" horiz-adv-x="0" 
d="M-643 1161l143 324h293l-186 -324h-250z" />
    <glyph glyph-name="uniF401" unicode="&#xf401;" horiz-adv-x="0" 
d="M-774 1520l164 264h301l-211 -264h-254z" />
    <glyph glyph-name="uniF406" unicode="&#xf406;" horiz-adv-x="1062" 
d="M692 1800h230q0 -149 -108.5 -230t-283.5 -81t-283 81t-108 230h228q11 -54 49 -82t114 -28q78 0 115 28t47 82z" />
    <glyph glyph-name="uniF407" unicode="&#xf407;" horiz-adv-x="839" 
d="M297 -147l41 198l166 -6l-25 -90q109 -42 109 -148q0 -82 -68 -129t-176 -47q-58 0 -94 9l31 133q24 -4 38 -4q68 0 68 43q0 41 -90 41z" />
    <glyph glyph-name="uniF408" unicode="&#xf408;" horiz-adv-x="1062" 
d="M424 1800h215l283 -291h-273l-119 125l-116 -125h-273z" />
    <glyph glyph-name="uniF409" unicode="&#xf409;" horiz-adv-x="813" 
d="M547 -104v-265l-281 -239v504h281z" />
    <glyph glyph-name="uniF40A" unicode="&#xf40a;" horiz-adv-x="419" 
d="M395 1413v-307l-278 -238v545h278z" />
    <glyph glyph-name="uniF40B" unicode="&#xf40b;" horiz-adv-x="817" 
d="M264 1554v226h289v-226h-289z" />
    <glyph glyph-name="uniF40C" unicode="&#xf40c;" horiz-adv-x="911" 
d="M217 1638q0 92 66.5 147.5t169.5 55.5q106 0 172.5 -55t66.5 -148q0 -91 -66.5 -145.5t-172.5 -54.5q-103 0 -169.5 54.5t-66.5 145.5zM379 1638q0 -30 20 -46.5t54 -16.5q75 0 75 63q0 64 -75 64q-74 0 -74 -64z" />
    <glyph glyph-name="uniF40D" unicode="&#xf40d;" horiz-adv-x="1032" 
d="M641 1511q-56 0 -133 30t-109 30q-59 0 -106 -53l-139 141q47 57 110 90t131 33q49 0 126.5 -30t113.5 -30q55 0 102 56l140 -142q-45 -57 -108 -91t-128 -34z" />
    <glyph glyph-name="uniF40E" unicode="&#xf40e;" horiz-adv-x="845" 
d="M481 98l70 -98q-35 -31 -50 -46t-28.5 -37t-13.5 -42q0 -45 55 -45q19 0 39 4l31 -133q-32 -8 -99 -8q-91 0 -158 37.5t-67 117.5q0 76 55.5 135t165.5 115z" />
    <glyph glyph-name="dollar.fitted" unicode="&#xf5f5;" horiz-adv-x="1177" 
d="M1090 1200l-216 -153q-71 108 -169 131v-359q211 -57 305 -153t94 -273q0 -161 -97 -270.5t-286 -134.5v-226h-238v228q-266 30 -411 223l219 152q83 -109 207 -134v371q-197 58 -292 162t-95 270q0 155 93 259.5t279 129.5v240h238v-242q249 -38 369 -221zM817 381
q0 52 -25 88t-87 66v-299q112 34 112 145zM397 1034q0 -95 101 -147v287q-101 -35 -101 -140z" />
    <glyph glyph-name="Euro.fitted" unicode="&#xf5f6;" horiz-adv-x="1308" 
d="M16 647h172v105h-172v229h185q38 227 177 339t351 112q215 0 349 -114.5t169 -342.5h-274q-44 215 -244 215q-95 0 -154 -51t-83 -158h303v-229h-320v-105h320v-229h-299q51 -195 233 -195q105 0 162.5 52.5t81.5 162.5h272q-35 -234 -164.5 -345t-351.5 -111
q-208 0 -345 108.5t-179 327.5h-189v229z" />
    <glyph glyph-name="cent.fitted" unicode="&#xf5f7;" horiz-adv-x="913" 
d="M702 297l195 -135q-81 -141 -258 -168v-232h-233v236q-162 32 -250 151t-88 300v131q0 188 86 301.5t252 144.5v248h233v-246q177 -32 258 -162l-197 -137q-61 86 -168 86t-155.5 -63.5t-48.5 -190.5v-94q0 -59 9 -103t30.5 -80.5t63 -55.5t101.5 -19q118 0 170 88z" />
    <glyph glyph-name="sterling.fitted" unicode="&#xf5f8;" horiz-adv-x="1097" 
d="M51 0v242h150v325h-150v244h150v63q0 150 33 259.5t94 174t140.5 94.5t180.5 30q142 0 243 -50t173 -161l-236 -134q-78 103 -167 103q-85 0 -130 -72.5t-45 -243.5v-63h269v-244h-269v-325h531v-242h-967z" />
    <glyph glyph-name="yen.fitted" unicode="&#xf5f9;" horiz-adv-x="1220" 
d="M174 473h293v105h-293v229h172l-319 606h331l252 -526l254 526h330l-320 -606h175v-229h-295v-105h295v-229h-295v-244h-287v244h-293v229z" />
    <glyph glyph-name="florin.fitted" unicode="&#xf5fa;" horiz-adv-x="663" 
d="M49 1024h131v55q0 98 22 163.5t70 103t114 52.5t163 15h76v-244h-43q-69 0 -95 -31.5t-26 -103.5v-10h164v-244h-164v-835q0 -97 -26.5 -162.5t-81.5 -103t-129 -53t-181 -15.5v244q79 0 108 33.5t29 109.5v782h-131v244z" />
    <glyph glyph-name="uni20B4.fitted" unicode="&#xf5fb;" horiz-adv-x="1220" 
d="M72 449v217h1077v-217h-692q-13 -32 -13 -68q0 -70 47.5 -114t149.5 -44q77 0 127.5 32.5t114.5 109.5l217 -152q-99 -126 -205 -178.5t-279 -52.5q-113 0 -201.5 31.5t-144 86t-84 125.5t-28.5 154q0 35 6 70h-92zM72 750v217h688q16 32 16 67q0 73 -45 114.5t-127 41.5
q-72 0 -121.5 -33.5t-97.5 -107.5l-213 151q152 232 432 232q115 0 204 -30t144 -83t83 -121t28 -147q0 -47 -12 -84h98v-217h-1077z" />
    <glyph glyph-name="uni20BD.fitted" unicode="&#xf5fc;" horiz-adv-x="1105" 
d="M18 498v241h172v674h394q250 0 389 -114.5t139 -337.5q0 -222 -140 -342.5t-388 -120.5h-107v-80h236v-242h-236v-176h-287v176h-172v242h172v80h-172zM477 739h66q148 0 215 53.5t67 168.5q0 104 -68 156t-214 52h-66v-430z" />
    <glyph glyph-name="uni20B8.fitted" unicode="&#xf5fd;" horiz-adv-x="1097" 
d="M16 1073h1065v-244h-389v-829h-286v829h-390v244zM16 1413h1065v-244h-1065v244z" />
    <glyph glyph-name="currency.fitted" unicode="&#xf5fe;" horiz-adv-x="1183" 
d="M184 750q0 100 45 188l-161 162l172 172l157 -160q90 49 195 49q106 0 192 -47l160 160l172 -172l-160 -160q48 -88 48 -192q0 -101 -50 -193l162 -160l-172 -172l-162 160q-88 -45 -190 -45q-107 0 -193 47l-159 -160l-172 172l161 162q-45 85 -45 189zM403 750
q0 -82 55 -138.5t134 -56.5q81 0 135.5 56.5t54.5 138.5t-54.5 139t-135.5 57q-79 0 -134 -57t-55 -139z" />
    <glyph glyph-name="uniF639" unicode="&#xf639;" horiz-adv-x="1167" 
d="M1059 983v-551q0 -115 -38 -203.5t-104.5 -141t-150.5 -79t-182 -26.5t-182 26.5t-150.5 79t-104.5 141t-38 203.5v549q0 120 38 209.5t105 141t150 76t182 24.5t182 -24.5t150 -75.5t105 -140t38 -209zM772 956q0 234 -188 234q-191 0 -191 -234v-499q0 -234 191 -234
q188 0 188 234v499z" />
    <glyph glyph-name="uniF63A" unicode="&#xf63a;" horiz-adv-x="1054" 
d="M946 242v-242h-872v184l473 557q131 152 131 281q0 82 -51 127t-125 45t-122 -44.5t-54 -127.5h-254q0 119 60 213.5t161 145.5t223 51q191 0 319 -117.5t128 -292.5q0 -53 -14.5 -108t-33.5 -95t-52.5 -89.5t-54.5 -76t-58 -69.5l-291 -342h487z" />
    <glyph glyph-name="uniF63B" unicode="&#xf63b;" horiz-adv-x="1050" 
d="M375 608v242h104q90 0 143.5 46.5t53.5 133.5q0 71 -49.5 117.5t-126.5 46.5q-73 0 -120 -42t-56 -110h-254q5 113 64.5 202.5t159 138.5t220.5 49q191 0 319 -114.5t128 -275.5q0 -110 -55.5 -187t-137.5 -122q97 -47 155 -132.5t58 -205.5q0 -179 -120 -296t-331 -117
q-219 0 -345 110t-134 287h252q11 -71 64 -113.5t145 -42.5q84 0 134 53.5t50 133.5q0 95 -55 146.5t-162 51.5h-104z" />
    <glyph glyph-name="uniF63C" unicode="&#xf63c;" horiz-adv-x="1116" 
d="M510 1413h313l-440 -969h270v361h287v-361h129v-243h-129v-201h-287v201h-626v198z" />
    <glyph glyph-name="uniF63D" unicode="&#xf63d;" horiz-adv-x="1077" 
d="M545 727q-99 0 -150 -104h-258v790h805v-260h-524v-242q78 74 209 74q168 0 268 -129t100 -375q0 -499 -442 -499q-186 0 -314 101t-145 282h283q36 -142 168 -142q78 0 121 61t43 183q0 131 -39.5 195.5t-124.5 64.5z" />
    <glyph glyph-name="uniF63E" unicode="&#xf63e;" horiz-adv-x="1087" 
d="M788 1413l-294 -582q58 27 137 27q164 0 275.5 -120t111.5 -302q0 -114 -36.5 -202.5t-102 -142.5t-150 -81.5t-184.5 -27.5q-101 0 -186 27t-151 81t-103 142t-37 202q0 143 129 404l284 575h307zM354 424q0 -92 49 -146.5t142 -54.5q90 0 138 54.5t48 146.5
q0 90 -48 144.5t-138 54.5q-93 0 -142 -54t-49 -145z" />
    <glyph glyph-name="uniF63F" unicode="&#xf63f;" horiz-adv-x="925" 
d="M276 950h-243v463h864v-201l-408 -1212h-296l409 1169h-326v-219z" />
    <glyph glyph-name="uniF640" unicode="&#xf640;" horiz-adv-x="1097" 
d="M68 393q0 115 61.5 207t149.5 133q-86 43 -138.5 127.5t-52.5 183.5q0 91 38 165.5t102.5 122.5t147 74t173.5 26q124 0 227 -44t168.5 -134t65.5 -210q0 -99 -52.5 -183.5t-138.5 -127.5q90 -40 150.5 -132t60.5 -208q0 -96 -38 -175t-104 -130t-153 -78.5t-186 -27.5
t-186 27.5t-153 78.5t-104 130t-38 175zM354 420q0 -83 55.5 -141t139.5 -58q81 0 138.5 58.5t57.5 140.5q0 87 -60 141.5t-136 54.5q-77 0 -136 -54t-59 -142zM373 1016q0 -74 51.5 -126t124.5 -52q72 0 124 52.5t52 125.5q0 72 -52 123t-124 51q-73 0 -124.5 -51
t-51.5 -123z" />
    <glyph glyph-name="uniF641" unicode="&#xf641;" horiz-adv-x="1087" 
d="M297 0l297 582q-61 -27 -137 -27q-164 0 -276.5 120t-112.5 302q0 114 37 202.5t102.5 143t150.5 82t185 27.5q101 0 186 -27.5t151 -81.5t103 -142t37 -202q0 -139 -131 -404l-285 -575h-307zM733 989q0 92 -49 146.5t-141 54.5q-90 0 -139.5 -55t-49.5 -146
q0 -90 49.5 -144t139.5 -54q91 0 140.5 54t49.5 144z" />
    <glyph glyph-name="uniF6BA" unicode="&#xf6ba;" horiz-adv-x="653" 
d="M61 592v229h531v-229h-531z" />
    <glyph glyph-name="uniF6BB" unicode="&#xf6bb;" horiz-adv-x="1042" 
d="M123 580v254h797v-254h-797z" />
    <glyph glyph-name="uniF6BC" unicode="&#xf6bc;" horiz-adv-x="1445" 
d="M41 580v254h1364v-254h-1364z" />
    <glyph glyph-name="uniF6C3" unicode="&#xf6c3;" horiz-adv-x="679" 
d="M479 -104v-265l-280 -239v504h280z" />
    <glyph glyph-name="uniF6C9" unicode="&#xf6c9;" horiz-adv-x="776" 
d="M156 1520l163 264h302l-211 -264h-254z" />
    <glyph glyph-name="uniF6CA" unicode="&#xf6ca;" horiz-adv-x="1062" 
d="M639 1509h-215l-283 291h273l116 -125l119 125h273z" />
    <glyph glyph-name="uniF6CB" unicode="&#xf6cb;" horiz-adv-x="1007" 
d="M168 1540v240h254v-240h-254zM584 1540v240h254v-240h-254z" />
    <glyph glyph-name="uniF6CE" unicode="&#xf6ce;" horiz-adv-x="827" 
d="M483 1784l164 -264h-256l-211 264h303z" />
    <glyph glyph-name="uniF6CF" unicode="&#xf6cf;" horiz-adv-x="1208" 
d="M152 1520l163 264h303l-210 -264h-256zM569 1520l185 264h301l-232 -264h-254z" />
    <glyph glyph-name="uniF6D0" unicode="&#xf6d0;" horiz-adv-x="1003" 
d="M172 1524v229h659v-229h-659z" />
    <glyph glyph-name="uniF6D1" unicode="&#xf6d1;" horiz-adv-x="931" 
d="M594 1800h262q0 -155 -95.5 -232t-293.5 -77q-391 0 -391 309h264q0 -62 28 -94.5t99 -32.5t99 32.5t28 94.5z" />
    <glyph glyph-name="uniF6D4" unicode="&#xf6d4;" horiz-adv-x="854" 
d="M530 1407h213q0 -137 -85 -200.5t-230 -63.5t-231 63.5t-86 200.5h213q0 -113 104 -113q102 0 102 113z" />
    <glyph glyph-name="uniF6DC" unicode="&#xf6dc;" horiz-adv-x="690" 
d="M551 1413v-1413h-287v1114l-203 -133v276l232 156h258z" />
    <glyph glyph-name="uniFEFF" unicode="&#xfeff;" horiz-adv-x="0" 
 />
    <glyph glyph-name="uniF4D3" unicode="&#x1f4d3;" horiz-adv-x="1540" 
d="M123 123v1669q0 52 36.5 88.5t88.5 36.5h1044q51 0 88 -36.5t37 -88.5v-1669q0 -51 -37 -87t-88 -36h-1044q-52 0 -88.5 36t-36.5 87zM684 135q0 -35 24.5 -59.5t61.5 -24.5q34 0 59 24.5t25 59.5t-25 59.5t-59 24.5q-37 0 -61.5 -24.5t-24.5 -59.5zM1327 1686h-1114
v-1416h1114v1416zM731 1800q0 -15 11 -26t26 -11t26 11t11 26t-11 25t-26 10t-26 -10t-11 -25z" />
    <glyph glyph-name="uniF4F1" unicode="&#x1f4f1;" horiz-adv-x="1130" 
d="M123 123v1464q0 53 36.5 89t88.5 36h635q51 0 88 -36.5t37 -88.5v-1464q0 -51 -37 -87t-88 -36h-635q-52 0 -88.5 36t-36.5 87zM479 135q0 -35 24.5 -59.5t61.5 -24.5q34 0 59 24.5t25 59.5t-25 59.5t-59 24.5q-37 0 -61.5 -24.5t-24.5 -59.5zM918 1481h-705v-1211h705
v1211zM662 1618h-193q-10 0 -16.5 -7.5t-6.5 -17.5q0 -24 23 -24h193q10 0 16 7t6 17q0 25 -22 25z" />
    <glyph glyph-name="uni2197.ss02" horiz-adv-x="1366" 
d="M1243 0h-160v752l-847 -848l-113 112l848 848h-752v160h1024v-1024z" />
    <glyph glyph-name="uni2199.ss02" horiz-adv-x="1366" 
d="M123 1024h160v-752l847 848l113 -112l-848 -848h752v-160h-1024v1024z" />
    <glyph glyph-name="a.ss01" horiz-adv-x="1058" 
d="M68 444v140q0 220 109 339t296 119q134 0 219 -69v51h260v-1024h-260v57q-84 -75 -219 -75q-196 0 -300.5 126t-104.5 336zM510 203q53 0 90 19t56.5 55.5t27.5 80.5t8 103v106q0 126 -43.5 190t-138.5 64t-138.5 -64t-43.5 -190v-106q0 -258 182 -258z" />
    <glyph glyph-name="uni2198.ss02" horiz-adv-x="1366" 
d="M1083 1024h160v-1024h-1024v160h752l-848 848l113 112l847 -848v752z" />
    <glyph glyph-name="afii10069.ss01" horiz-adv-x="1058" 
d="M952 942v-489q0 -220 -109 -345.5t-333 -125.5q-218 0 -330 125t-112 346v122q0 227 112.5 347t313.5 120q117 0 198 -49q-4 117 -56 168t-149 51q-103 0 -217 -71l-118 162q64 60 159.5 94.5t202.5 34.5q222 0 330 -122t108 -368zM510 203q100 0 141 68t41 190v106
q0 126 -43.5 190t-138.5 64t-138.5 -64t-43.5 -190v-106q0 -59 8.5 -103t28 -80.5t56 -55.5t89.5 -19z" />
    <glyph glyph-name="afii10074.ss01" horiz-adv-x="1077" 
d="M971 1024v-1024h-256v86q-34 -55 -85.5 -79.5t-148.5 -24.5q-81 0 -147 21t-119 67t-82 126t-29 189v639h263v-600q0 -118 40 -167.5t125 -49.5q179 0 179 215v602h260z" />
    <glyph glyph-name="afii10075.ss01" horiz-adv-x="1077" 
d="M971 1024v-1024h-256v86q-34 -55 -85.5 -79.5t-148.5 -24.5q-81 0 -147 21t-119 67t-82 126t-29 189v639h263v-600q0 -118 40 -167.5t125 -49.5q179 0 179 215v602h260zM641 1407h213q0 -137 -85 -200.5t-230 -63.5t-231.5 63.5t-86.5 200.5h213q0 -113 105 -113
q102 0 102 113z" />
    <glyph glyph-name="afii10081.ss01" horiz-adv-x="1077" 
d="M104 0v1024h256v-86q33 43 94.5 73.5t141.5 30.5q81 0 146.5 -20.5t118 -65.5t81.5 -125t29 -190v-641h-260v600q0 116 -41 166.5t-123 50.5q-89 0 -134.5 -56t-45.5 -159v-602h-263z" />
    <glyph glyph-name="afii10084.ss01" horiz-adv-x="1628" 
d="M944 602v-602h-260v600q0 217 -156 217q-73 0 -117 -55t-44 -160v-602h-263v1024h256v-86q77 104 228 104q190 0 286 -137q113 137 295 137q170 0 262.5 -102t92.5 -299v-641h-262v600q0 113 -39 165t-119 52q-73 0 -116.5 -55t-43.5 -160z" />
    <glyph glyph-name="uni2193.ss02" horiz-adv-x="1691" 
d="M123 504l113 112l530 -530v1200h160v-1200l530 530l113 -112l-723 -723z" />
    <glyph glyph-name="uni2196.ss02" horiz-adv-x="1366" 
d="M283 0h-160v1024h1024v-160h-752l848 -848l-113 -112l-847 848v-752z" />
    <glyph glyph-name="uni261E.ss02" horiz-adv-x="2172" 
d="M569 104v758l598 441q6 -6 14.5 -17t24.5 -44.5t20.5 -66.5t-12 -79.5t-59.5 -87.5l-151 -146h921q62 0 93.5 -27.5t31.5 -74.5t-30.5 -75t-88.5 -28h-469v-73q0 -59 -26 -85t-84 -26v-74q0 -58 -26 -84t-85 -26v-70q0 -61 -25 -88t-79 -27h-568zM123 862h336v-758h-336
v758zM176 811v-653h41v653h-41zM406 158v653h-41v-653h41zM270 811v-455h41v455h-41zM270 229v-71h41v71h-41z" />
    <glyph glyph-name="uni2191.ss02" horiz-adv-x="1691" 
d="M1569 565l-113 -112l-530 530v-1200h-160v1200l-530 -530l-113 112l723 723z" />
    <glyph glyph-name="uni2192.ss02" horiz-adv-x="1751" 
d="M905 -188l-112 112l530 531h-1200v159h1200l-530 531l112 112l723 -722z" />
    <glyph glyph-name="acircumflex.ss01" horiz-adv-x="1058" 
d="M68 444v140q0 220 109 339t296 119q134 0 219 -69v51h260v-1024h-260v57q-84 -75 -219 -75q-196 0 -300.5 126t-104.5 336zM510 203q53 0 90 19t56.5 55.5t27.5 80.5t8 103v106q0 126 -43.5 190t-138.5 64t-138.5 -64t-43.5 -190v-106q0 -258 182 -258zM410 1454h217
l221 -291h-234l-96 133l-96 -133h-234z" />
    <glyph glyph-name="atilde.ss01" horiz-adv-x="1058" 
d="M68 444v140q0 220 109 339t296 119q134 0 219 -69v51h260v-1024h-260v57q-84 -75 -219 -75q-196 0 -300.5 126t-104.5 336zM510 203q53 0 90 19t56.5 55.5t27.5 80.5t8 103v106q0 126 -43.5 190t-138.5 64t-138.5 -64t-43.5 -190v-106q0 -258 182 -258zM659 1165
q-55 0 -131 30t-108 30q-62 0 -109 -56l-137 131q45 57 109 91t131 34q49 0 126 -29.5t113 -29.5q56 0 105 55l137 -131q-44 -57 -107 -91t-129 -34z" />
    <glyph glyph-name="adieresis.ss01" horiz-adv-x="1058" 
d="M68 444v140q0 220 109 339t296 119q134 0 219 -69v51h260v-1024h-260v57q-84 -75 -219 -75q-196 0 -300.5 126t-104.5 336zM510 203q53 0 90 19t56.5 55.5t27.5 80.5t8 103v106q0 126 -43.5 190t-138.5 64t-138.5 -64t-43.5 -190v-106q0 -258 182 -258zM195 1174v239h254
v-239h-254zM612 1174v239h252v-239h-252z" />
    <glyph glyph-name="aring.ss01" horiz-adv-x="1058" 
d="M68 444v140q0 220 109 339t296 119q134 0 219 -69v51h260v-1024h-260v57q-84 -75 -219 -75q-196 0 -300.5 126t-104.5 336zM510 203q53 0 90 19t56.5 55.5t27.5 80.5t8 103v106q0 126 -43.5 190t-138.5 64t-138.5 -64t-43.5 -190v-106q0 -258 182 -258zM281 1323
q0 99 69 162t182 63t182.5 -63t69.5 -162q0 -98 -69.5 -160.5t-182.5 -62.5t-182 62.5t-69 160.5zM457 1323q0 -42 20 -66t55 -24q36 0 56 24t20 66q0 88 -76 88q-36 0 -55.5 -23t-19.5 -65z" />
    <glyph glyph-name="egrave.ss01" 
d="M702 291l195 -135q-53 -92 -143.5 -133t-231.5 -41q-222 0 -338 127.5t-116 334.5v140q0 227 112.5 342.5t317.5 115.5q211 0 312 -91.5t101 -241.5q0 -139 -100.5 -221t-312.5 -82h-168q17 -203 190 -203q76 0 112.5 20.5t69.5 67.5zM498 821q-84 0 -126 -58t-44 -163
h170q153 0 153 109q0 112 -153 112zM539 1485l143 -324h-250l-186 324h293z" />
    <glyph glyph-name="eacute.ss01" 
d="M702 291l195 -135q-53 -92 -143.5 -133t-231.5 -41q-222 0 -338 127.5t-116 334.5v140q0 227 112.5 342.5t317.5 115.5q211 0 312 -91.5t101 -241.5q0 -139 -100.5 -221t-312.5 -82h-168q17 -203 190 -203q76 0 112.5 20.5t69.5 67.5zM498 821q-84 0 -126 -58t-44 -163
h170q153 0 153 109q0 112 -153 112zM362 1161l144 324h293l-187 -324h-250z" />
    <glyph glyph-name="ecircumflex.ss01" 
d="M702 291l195 -135q-53 -92 -143.5 -133t-231.5 -41q-222 0 -338 127.5t-116 334.5v140q0 227 112.5 342.5t317.5 115.5q211 0 312 -91.5t101 -241.5q0 -139 -100.5 -221t-312.5 -82h-168q17 -203 190 -203q76 0 112.5 20.5t69.5 67.5zM498 821q-84 0 -126 -58t-44 -163
h170q153 0 153 109q0 112 -153 112zM406 1454h217l221 -291h-234l-96 133l-96 -133h-234z" />
    <glyph glyph-name="edieresis.ss01" 
d="M702 291l195 -135q-53 -92 -143.5 -133t-231.5 -41q-222 0 -338 127.5t-116 334.5v140q0 227 112.5 342.5t317.5 115.5q211 0 312 -91.5t101 -241.5q0 -139 -100.5 -221t-312.5 -82h-168q17 -203 190 -203q76 0 112.5 20.5t69.5 67.5zM498 821q-84 0 -126 -58t-44 -163
h170q153 0 153 109q0 112 -153 112zM178 1174v239h254v-239h-254zM596 1174v239h252v-239h-252z" />
    <glyph glyph-name="afii10065.ss01" horiz-adv-x="1058" 
d="M68 444v140q0 220 109 339t296 119q134 0 219 -69v51h260v-1024h-260v57q-84 -75 -219 -75q-196 0 -300.5 126t-104.5 336zM510 203q53 0 90 19t56.5 55.5t27.5 80.5t8 103v106q0 126 -43.5 190t-138.5 64t-138.5 -64t-43.5 -190v-106q0 -258 182 -258z" />
    <glyph glyph-name="afii10070.ss01" 
d="M702 291l195 -135q-53 -92 -143.5 -133t-231.5 -41q-222 0 -338 127.5t-116 334.5v140q0 227 112.5 342.5t317.5 115.5q211 0 312 -91.5t101 -241.5q0 -139 -100.5 -221t-312.5 -82h-168q17 -203 190 -203q76 0 112.5 20.5t69.5 67.5zM498 821q-84 0 -126 -58t-44 -163
h170q153 0 153 109q0 112 -153 112z" />
    <glyph glyph-name="afii10071.ss01" 
d="M702 291l195 -135q-53 -92 -143.5 -133t-231.5 -41q-222 0 -338 127.5t-116 334.5v140q0 227 112.5 342.5t317.5 115.5q211 0 312 -91.5t101 -241.5q0 -139 -100.5 -221t-312.5 -82h-168q17 -203 190 -203q76 0 112.5 20.5t69.5 67.5zM498 821q-84 0 -126 -58t-44 -163
h170q153 0 153 109q0 112 -153 112zM178 1174v239h254v-239h-254zM596 1174v239h252v-239h-252z" />
    <glyph glyph-name="aogonek.ss01" horiz-adv-x="1058" 
d="M952 1024v-1024q-49 -43 -69.5 -69.5t-20.5 -55.5q0 -45 56 -45q18 0 38 4l31 -133q-32 -8 -98 -8q-91 0 -158 37.5t-67 117.5q0 87 71 152h-43v57q-84 -75 -219 -75q-196 0 -300.5 126t-104.5 336v140q0 220 109 339t296 119q134 0 219 -69v51h260zM510 203q53 0 90 19
t56.5 55.5t27.5 80.5t8 103v106q0 126 -43.5 190t-138.5 64t-138.5 -64t-43.5 -190v-106q0 -258 182 -258z" />
    <glyph glyph-name="abreve.ss01" horiz-adv-x="1058" 
d="M68 444v140q0 220 109 339t296 119q134 0 219 -69v51h260v-1024h-260v57q-84 -75 -219 -75q-196 0 -300.5 126t-104.5 336zM510 203q53 0 90 19t56.5 55.5t27.5 80.5t8 103v106q0 126 -43.5 190t-138.5 64t-138.5 -64t-43.5 -190v-106q0 -258 182 -258zM666 1413h188
q-4 -130 -84.5 -200t-220.5 -70q-141 0 -222 70t-85 200h190q6 -53 33 -80.5t84 -27.5t84 27.5t33 80.5z" />
    <glyph glyph-name="eogonek.ss01" 
d="M702 291l195 -135q-65 -117 -209 -156q-35 -31 -50 -46t-28.5 -37t-13.5 -42q0 -45 55 -45q19 0 39 4l31 -133q-32 -8 -98 -8q-91 0 -158.5 37.5t-67.5 117.5q0 74 58 138q-190 20 -288.5 144t-98.5 314v140q0 227 112.5 342.5t317.5 115.5q211 0 312 -91.5t101 -241.5
q0 -139 -100.5 -221t-312.5 -82h-168q17 -203 190 -203q76 0 112.5 20.5t69.5 67.5zM498 821q-84 0 -126 -58t-44 -163h170q153 0 153 109q0 112 -153 112z" />
    <glyph glyph-name="ecaron.ss01" 
d="M702 291l195 -135q-53 -92 -143.5 -133t-231.5 -41q-222 0 -338 127.5t-116 334.5v140q0 227 112.5 342.5t317.5 115.5q211 0 312 -91.5t101 -241.5q0 -139 -100.5 -221t-312.5 -82h-168q17 -203 190 -203q76 0 112.5 20.5t69.5 67.5zM498 821q-84 0 -126 -58t-44 -163
h170q153 0 153 109q0 112 -153 112zM614 1163h-217l-221 291h234l96 -133l96 133h234z" />
    <glyph glyph-name="amacron.ss01" horiz-adv-x="1058" 
d="M68 444v140q0 220 109 339t296 119q134 0 219 -69v51h260v-1024h-260v57q-84 -75 -219 -75q-196 0 -300.5 126t-104.5 336zM510 203q53 0 90 19t56.5 55.5t27.5 80.5t8 103v106q0 126 -43.5 190t-138.5 64t-138.5 -64t-43.5 -190v-106q0 -258 182 -258zM250 1174v227h579
v-227h-579z" />
    <glyph glyph-name="emacron.ss01" 
d="M702 291l195 -135q-53 -92 -143.5 -133t-231.5 -41q-222 0 -338 127.5t-116 334.5v140q0 227 112.5 342.5t317.5 115.5q211 0 312 -91.5t101 -241.5q0 -139 -100.5 -221t-312.5 -82h-168q17 -203 190 -203q76 0 112.5 20.5t69.5 67.5zM498 821q-84 0 -126 -58t-44 -163
h170q153 0 153 109q0 112 -153 112zM209 1174v227h579v-227h-579z" />
    <glyph glyph-name="edotaccent.ss01" 
d="M702 291l195 -135q-53 -92 -143.5 -133t-231.5 -41q-222 0 -338 127.5t-116 334.5v140q0 227 112.5 342.5t317.5 115.5q211 0 312 -91.5t101 -241.5q0 -139 -100.5 -221t-312.5 -82h-168q17 -203 190 -203q76 0 112.5 20.5t69.5 67.5zM498 821q-84 0 -126 -58t-44 -163
h170q153 0 153 109q0 112 -153 112zM358 1159v254h283v-254h-283z" />
    <glyph glyph-name="afii10065.var.accented.ss01" horiz-adv-x="1058" 
d="M68 444v140q0 220 109 339t296 119q134 0 219 -69v51h260v-1024h-260v57q-84 -75 -219 -75q-196 0 -300.5 126t-104.5 336zM510 203q53 0 90 19t56.5 55.5t27.5 80.5t8 103v106q0 126 -43.5 190t-138.5 64t-138.5 -64t-43.5 -190v-106q0 -258 182 -258zM387 1161l143 324
h293l-186 -324h-250z" />
    <glyph glyph-name="afii10070.var.accented.ss01" 
d="M702 291l195 -135q-53 -92 -143.5 -133t-231.5 -41q-222 0 -338 127.5t-116 334.5v140q0 227 112.5 342.5t317.5 115.5q211 0 312 -91.5t101 -241.5q0 -139 -100.5 -221t-312.5 -82h-168q17 -203 190 -203q76 0 112.5 20.5t69.5 67.5zM498 821q-84 0 -126 -58t-44 -163
h170q153 0 153 109q0 112 -153 112zM362 1161l144 324h293l-187 -324h-250z" />
    <glyph glyph-name="afii10074.var.accented.ss01" horiz-adv-x="1077" 
d="M971 1024v-1024h-256v86q-34 -55 -85.5 -79.5t-148.5 -24.5q-81 0 -147 21t-119 67t-82 126t-29 189v639h263v-600q0 -118 40 -167.5t125 -49.5q179 0 179 215v602h260zM401 1161l144 324h293l-187 -324h-250z" />
    <glyph glyph-name="afii10071.var.accented.ss01" 
d="M702 291l195 -135q-53 -92 -143.5 -133t-231.5 -41q-222 0 -338 127.5t-116 334.5v140q0 227 112.5 342.5t317.5 115.5q211 0 312 -91.5t101 -241.5q0 -139 -100.5 -221t-312.5 -82h-168q17 -203 190 -203q76 0 112.5 20.5t69.5 67.5zM498 821q-84 0 -126 -58t-44 -163
h170q153 0 153 109q0 112 -153 112zM350 1468l144 324h292l-186 -324h-250zM150 1174v239h253v-239h-253zM567 1174v239h252v-239h-252z" />
    <glyph glyph-name="uni04E3.ss01" horiz-adv-x="1077" 
d="M971 1024v-1024h-256v86q-34 -55 -85.5 -79.5t-148.5 -24.5q-81 0 -147 21t-119 67t-82 126t-29 189v639h263v-600q0 -118 40 -167.5t125 -49.5q179 0 179 215v602h260zM250 1174v227h579v-227h-579z" />
    <glyph glyph-name="afii10193.ss01" horiz-adv-x="1077" 
d="M387 -240v230q-131 23 -207 118.5t-76 276.5v639h263v-600q0 -118 40 -167.5t125 -49.5q179 0 179 215v602h260v-1024h-256v86q-24 -40 -56 -63t-81 -33v-230h-191z" />
    <glyph glyph-name="uni2190.ss02" horiz-adv-x="1751" 
d="M958 -76l-112 -112l-723 723l723 722l112 -112l-530 -531h1200v-159h-1200z" />
    <glyph glyph-name="aacute.ss01" horiz-adv-x="1058" 
d="M68 444v140q0 220 109 339t296 119q134 0 219 -69v51h260v-1024h-260v57q-84 -75 -219 -75q-196 0 -300.5 126t-104.5 336zM510 203q53 0 90 19t56.5 55.5t27.5 80.5t8 103v106q0 126 -43.5 190t-138.5 64t-138.5 -64t-43.5 -190v-106q0 -258 182 -258zM387 1161l143 324
h293l-186 -324h-250z" />
    <glyph glyph-name="agrave.ss01" horiz-adv-x="1058" 
d="M68 444v140q0 220 109 339t296 119q134 0 219 -69v51h260v-1024h-260v57q-84 -75 -219 -75q-196 0 -300.5 126t-104.5 336zM510 203q53 0 90 19t56.5 55.5t27.5 80.5t8 103v106q0 126 -43.5 190t-138.5 64t-138.5 -64t-43.5 -190v-106q0 -258 182 -258zM575 1485
l144 -324h-250l-186 324h292z" />
    <glyph glyph-name="afii10091.ss01" horiz-adv-x="1652" 
d="M1483 1024v-803h135v-461h-240v240h-151v86q-75 -104 -215 -104q-189 0 -281 135q-106 -135 -280 -135q-166 0 -256.5 102t-90.5 299v641h263v-600q0 -114 36 -165.5t113 -51.5q72 0 110 54t38 161v602h260v-600q0 -117 37.5 -167t109.5 -50q71 0 110.5 54.5t39.5 160.5
v602h262z" />
    <glyph glyph-name="afii10090.ss01" horiz-adv-x="1589" 
d="M664 422v602h260v-600q0 -117 37.5 -167t109.5 -50q71 0 110.5 54.5t39.5 160.5v602h262v-1024h-256v86q-75 -104 -215 -104q-189 0 -281 135q-106 -135 -280 -135q-166 0 -256.5 102t-90.5 299v641h263v-600q0 -114 36 -165.5t113 -51.5q72 0 110 54t38 161z" />
    <glyph glyph-name="afii10088.ss01" horiz-adv-x="1140" 
d="M971 1024v-803h135v-461h-238v240h-153v86q-34 -55 -85.5 -79.5t-148.5 -24.5q-81 0 -147 21t-119 67t-82 126t-29 189v639h263v-600q0 -118 40 -167.5t125 -49.5q179 0 179 215v602h260z" />
    <glyph glyph-name="e.ss01" 
d="M702 291l195 -135q-53 -92 -143.5 -133t-231.5 -41q-222 0 -338 127.5t-116 334.5v140q0 227 112.5 342.5t317.5 115.5q211 0 312 -91.5t101 -241.5q0 -139 -100.5 -221t-312.5 -82h-168q17 -203 190 -203q76 0 112.5 20.5t69.5 67.5zM498 821q-84 0 -126 -58t-44 -163
h170q153 0 153 109q0 112 -153 112z" />
    </font>
</defs>
</svg>
